<svg width="60" height="60" viewBox="0 0 60 60" fill="none" xmlns="http://www.w3.org/2000/svg">
<g id="System / Desktop">
<path id="Vector" d="M37.5 50H22.5M17.9923 42.5C15.1975 42.5 13.798 42.5 12.7295 41.9556C11.7887 41.4762 11.0243 40.7093 10.545 39.7685C10.2425 39.1748 10.1079 38.4798 10.048 37.5M17.9923 42.5H42.0077M17.9923 42.5H13.999C12.5989 42.5 11.8995 42.499 11.3647 42.2266C10.8943 41.9869 10.5122 41.6073 10.2725 41.1369C10 40.6022 10 39.9001 10 38.5V37.5H10.048M10.048 37.5C10 36.7147 10 35.7463 10 34.5005V18.0005C10 15.2002 10 13.7991 10.545 12.7295C11.0243 11.7887 11.7887 11.0243 12.7295 10.545C13.7991 10 15.2002 10 18.0005 10H42.0005C44.8008 10 46.1989 10 47.2685 10.545C48.2093 11.0243 48.9762 11.7887 49.4556 12.7295C50 13.798 50 15.1975 50 17.9923V34.5077C50 35.7499 50 36.7161 49.9522 37.5M10.048 37.5H49.9522M49.9522 37.5C49.8924 38.4798 49.758 39.1749 49.4556 39.7685C48.9762 40.7093 48.2093 41.4762 47.2685 41.9556C46.2 42.5 44.8025 42.5 42.0077 42.5M49.9522 37.5H50V38.5C50 39.9001 49.999 40.6022 49.7266 41.1369C49.4869 41.6073 49.1059 41.9869 48.6355 42.2266C48.1007 42.499 47.3992 42.5 45.999 42.5H42.0077" stroke="#0D0D0D" stroke-width="5" stroke-linecap="round" stroke-linejoin="round"/>
</g>
</svg>
