<svg width="15" height="15" viewBox="0 0 15 15" fill="none" xmlns="http://www.w3.org/2000/svg">
<path id="Vector" d="M3.43231 14.7968V5.1782H0.238083V14.7968H3.43231ZM1.83586 3.86517C2.94952 3.86517 3.64285 3.12658 3.64285 2.20355C3.62201 1.25948 2.94952 0.541504 1.85704 0.541504C0.763811 0.541504 0.0498047 1.25948 0.0498047 2.20346C0.0498047 3.1265 0.742882 3.86509 1.81493 3.86509L1.83586 3.86517ZM5.20036 14.7968H8.39434V9.42591C8.39434 9.13882 8.41518 8.85097 8.49957 8.64592C8.73037 8.07132 9.25593 7.47652 10.1385 7.47652C11.2941 7.47652 11.7566 8.35849 11.7566 9.65166V14.7968H14.9505V9.28178C14.9505 6.32749 13.3749 4.9527 11.2734 4.9527C9.55044 4.9527 8.79374 5.91655 8.37332 6.57302H8.39459V5.17854H5.20053C5.24222 6.08087 5.20036 14.7968 5.20036 14.7968Z" fill="white"/>
</svg>
