<svg width="312" height="64" viewBox="0 0 312 64" fill="none" xmlns="http://www.w3.org/2000/svg">
<g clip-path="url(#clip0_3009_1265)">
<path d="M74.3187 17.5326L70.6146 15.7573L70.3182 15.6133L68.4716 14.7274L68.4607 14.7346L66.5563 13.82L61.6451 11.4649L61.3487 11.3208L61.0524 11.4649L54.9559 14.3889L52.2094 15.7069L51.9167 15.8474L47.0308 18.188L42.7809 20.2298H61.0524L61.3487 20.0858L61.3596 20.0822L61.4752 20.1398L58.4649 21.5838L52.3395 24.5223L50.5362 25.3866L43.2037 28.9048L42.6147 28.6203L34.686 24.8176L34.0644 24.5223L26.7609 21.0149L24.9287 20.1398L26.7609 19.2612L34.0644 15.7573L34.686 15.4584L42.6147 11.6557L43.2001 11.3748L45.7732 12.6064L45.831 12.5776L46.2646 12.3723L50.3483 10.4134L54.9089 8.22391L52.3395 6.98875L50.5362 6.1245L43.2037 2.60986L42.6147 2.89075L34.686 6.69346L34.0644 6.99235L26.7609 10.4962L24.9287 11.3748L18.8358 14.2989L15.7929 15.7573L10.9106 18.098L6.65356 20.1398L10.9106 22.1816L15.7893 24.5223L18.8358 25.9843L24.925 28.9048L26.7609 29.7834L34.0644 33.2873L34.686 33.5862L42.6147 37.3889L43.2001 37.6698L50.5362 34.1515L52.3395 33.2873L58.4649 30.3488L61.4752 28.9048L66.39 26.5461L70.611 24.5223L74.3187 22.7434L79.7503 20.1398L74.3187 17.5326Z" fill="black"/>
<path d="M43.1638 51.8037V56.4671L43.2036 56.4491V63.9249L43.1132 63.9645L42.6145 63.7232L35.8531 60.4823L35.3218 60.2302L29.0916 57.2377L27.5304 56.4887L22.3338 53.9968L19.739 52.7508L15.5759 50.7558V31.1409L19.739 33.1395L22.3338 34.3854L27.5304 36.8738L29.0916 37.6264L35.3218 40.6153L35.8531 40.8673L42.6145 44.1083L43.1132 44.3532L43.2036 44.3099V51.7821L43.1638 51.8037Z" fill="black"/>
<path d="M69.6493 51.2385L66.4908 52.7509L62.8915 54.4794L58.6958 56.4924L56.13 57.7204L50.908 60.2303L49.3722 60.9649L43.2034 63.925V56.4492L49.3722 53.4891L50.908 52.7545L56.13 50.2482L58.6994 49.0166L69.6493 51.2385Z" fill="black"/>
<path d="M69.6493 31.6235V39.0993L66.4908 40.6154L62.8915 42.3403L58.6958 44.3533L56.13 45.5812L50.908 48.0876L49.3722 48.8258L43.2034 51.7823V44.3101L49.3722 41.35L50.908 40.6154L56.13 38.1054L58.6994 36.8739L62.8915 34.8645L66.4908 33.1396L69.6493 31.6235Z" fill="black"/>
<path d="M93.6342 45.3875C91.8923 44.354 90.5263 42.8631 89.5361 40.9149C88.5459 38.9668 88.0544 36.6693 88.0544 34.0153C88.0544 31.3613 88.5387 29.0963 89.5108 27.1481C90.4829 25.1999 91.8417 23.7091 93.5836 22.6684C95.3254 21.6277 97.3311 21.1091 99.5934 21.1091C102.412 21.1091 104.678 21.7393 106.398 23.0033C108.118 24.2673 109.311 26.0354 109.976 28.3112L106.319 28.9666C105.791 27.5982 104.974 26.5179 103.869 25.7185C102.766 24.919 101.386 24.5193 99.7271 24.5193C98.0683 24.5193 96.5722 24.9154 95.3977 25.7077C94.2232 26.4999 93.3451 27.6126 92.7596 29.0423C92.1742 30.4719 91.8815 32.1464 91.8815 34.0657C91.8815 35.9851 92.1814 37.6488 92.7885 39.064C93.3921 40.4756 94.2955 41.5703 95.4953 42.3482C96.6987 43.1224 98.1731 43.5113 99.9186 43.5113C102 43.5113 103.641 42.9063 104.844 41.6928C106.044 40.4792 106.774 38.7255 107.027 36.428H100.247V33.5328H110.854C110.901 33.9109 110.923 34.4006 110.923 34.9984C110.923 37.3211 110.478 39.3809 109.586 41.185C108.693 42.9892 107.396 44.3972 105.686 45.4163C103.977 46.4354 101.946 46.9395 99.5898 46.9395C97.36 46.9395 95.3724 46.421 93.6306 45.3875H93.6342Z" fill="black"/>
<path d="M117.98 46.4204H114.374V21.6055H117.98V32.3078H130.401V21.6055H134.022V46.4204H130.401V35.7036H117.98V46.4204Z" fill="black"/>
<path d="M157.48 46.4204H153.375L148.337 36.7011H142.454V46.4204H138.851V21.6055H148.89C149.58 21.6055 150.22 21.6523 150.805 21.7423C152.16 21.9476 153.306 22.3941 154.238 23.0783C155.171 23.7625 155.868 24.6232 156.334 25.6639C156.8 26.7046 157.032 27.8677 157.032 29.1533C157.032 30.1544 156.847 31.1231 156.479 32.0665C156.11 33.01 155.561 33.8491 154.831 34.5837C154.101 35.3183 153.219 35.8657 152.182 36.2222L157.476 46.424L157.48 46.4204ZM142.457 25.0013V33.3089H148.752C149.475 33.3089 149.999 33.2513 150.321 33.1361C151.365 32.7795 152.135 32.2466 152.623 31.5336C153.111 30.8206 153.356 30.0283 153.356 29.1569C153.356 28.2854 153.107 27.4176 152.605 26.665C152.106 25.9123 151.344 25.4154 150.321 25.1741C149.894 25.0589 149.374 25.0013 148.752 25.0013H142.457Z" fill="black"/>
<path d="M177.16 46.4204H161.292V21.6055H177.16V25.0013H164.895V31.9621H175.09V35.3579H164.895V43.0246H177.16V46.4204Z" fill="black"/>
<path d="M200.911 46.4204H197.167L195.32 40.8207H185.126L183.315 46.4204H179.571L187.645 21.6055H192.838L200.911 46.4204ZM190.2 25.2065L186.232 37.4429H194.218L190.2 25.2065Z" fill="black"/>
<path d="M211.745 46.4204H208.142V25.0013H199.881V21.6055H220.01V25.0013H211.749V46.4204H211.745Z" fill="black"/>
<path d="M226.421 46.4204H222.764V21.6055H226.421L238.65 40.0429V21.6055H242.307V46.4204H238.65L226.421 27.9649V46.4204Z" fill="black"/>
<path d="M263.007 46.4204H247.138V21.6055H263.007V25.0013H250.741V31.9621H260.936V35.3579H250.741V43.0246H263.007V46.4204Z" fill="black"/>
<path d="M270.856 46.0171C269.417 45.4013 268.236 44.5191 267.311 43.3631C266.385 42.2072 265.789 40.8568 265.525 39.3047L269.287 38.7358C269.54 39.7369 269.981 40.5975 270.606 41.3213C271.232 42.0451 272.001 42.5961 272.908 42.9742C273.816 43.3523 274.813 43.5432 275.893 43.5432C276.894 43.5432 277.82 43.3811 278.672 43.0606C279.522 42.7401 280.198 42.2792 280.7 41.6814C281.199 41.0836 281.451 40.385 281.451 39.5784C281.451 38.7286 281.177 38.048 280.631 37.5366C280.085 37.0253 279.319 36.6219 278.329 36.323L271.965 34.4433C270.39 33.9824 269.085 33.2838 268.051 32.3403C267.018 31.3968 266.501 30.0248 266.501 28.2207C266.501 26.737 266.884 25.4623 267.658 24.3855C268.427 23.3124 269.483 22.495 270.823 21.9404C272.164 21.3859 273.671 21.105 275.351 21.105C277.032 21.105 278.524 21.3931 279.861 21.9656C281.202 22.5418 282.315 23.3736 283.208 24.4648C284.097 25.5559 284.711 26.8595 285.044 28.3755L281.18 29.0309C280.996 28.1018 280.62 27.2916 280.053 26.611C279.482 25.9268 278.777 25.4082 277.939 25.0517C277.1 24.6952 276.19 24.5188 275.214 24.5188C274.318 24.5188 273.494 24.67 272.746 24.9653C271.998 25.2642 271.405 25.6819 270.968 26.2221C270.531 26.7622 270.314 27.3708 270.314 28.0478C270.314 28.9661 270.668 29.6647 271.376 30.14C272.084 30.6154 273.017 31.0151 274.18 31.3392L278.77 32.632C279.898 32.9417 280.906 33.309 281.798 33.7339C282.687 34.1588 283.482 34.8286 284.18 35.7397C284.877 36.6543 285.224 37.8499 285.224 39.3335C285.224 40.9432 284.794 42.3188 283.938 43.4603C283.081 44.6055 281.932 45.4697 280.487 46.0531C279.045 46.6401 277.447 46.9318 275.702 46.9318C273.956 46.9318 272.309 46.6257 270.87 46.0099L270.856 46.0171Z" fill="black"/>
<path d="M293.573 46.0171C292.134 45.4013 290.953 44.5191 290.027 43.3631C289.102 42.2072 288.506 40.8568 288.242 39.3047L292.004 38.7358C292.257 39.7369 292.698 40.5975 293.323 41.3213C293.948 42.0451 294.718 42.5961 295.625 42.9742C296.532 43.3523 297.53 43.5432 298.61 43.5432C299.611 43.5432 300.536 43.3811 301.389 43.0606C302.239 42.7401 302.914 42.2792 303.417 41.6814C303.915 41.0836 304.168 40.385 304.168 39.5784C304.168 38.7286 303.894 38.048 303.348 37.5366C302.802 37.0253 302.036 36.6219 301.046 36.323L294.682 34.4433C293.106 33.9824 291.802 33.2838 290.768 32.3403C289.735 31.3968 289.218 30.0248 289.218 28.2207C289.218 26.737 289.601 25.4623 290.374 24.3855C291.144 23.3124 292.199 22.495 293.54 21.9404C294.881 21.3859 296.388 21.105 298.068 21.105C299.749 21.105 301.241 21.3931 302.578 21.9656C303.919 22.5418 305.032 23.3736 305.925 24.4648C306.814 25.5559 307.428 26.8595 307.76 28.3755L303.897 29.0309C303.713 28.1018 303.337 27.2916 302.77 26.611C302.199 25.9268 301.494 25.4082 300.656 25.0517C299.817 24.6952 298.907 24.5188 297.931 24.5188C297.035 24.5188 296.211 24.67 295.463 24.9653C294.715 25.2642 294.122 25.6819 293.685 26.2221C293.247 26.7622 293.03 27.3708 293.03 28.0478C293.03 28.9661 293.385 29.6647 294.093 30.14C294.801 30.6154 295.734 31.0151 296.897 31.3392L301.487 32.632C302.614 32.9417 303.623 33.309 304.515 33.7339C305.404 34.1588 306.199 34.8286 306.897 35.7397C307.594 36.6543 307.941 37.8499 307.941 39.3335C307.941 40.9432 307.511 42.3188 306.655 43.4603C305.798 44.6055 304.649 45.4697 303.203 46.0531C301.761 46.6401 300.164 46.9318 298.419 46.9318C296.673 46.9318 295.025 46.6257 293.587 46.0099L293.573 46.0171Z" fill="black"/>
</g>
<defs>
<clipPath id="clip0_3009_1265">
<rect width="310.246" height="63.9296" fill="white" transform="translate(0.936768 0.0351562)"/>
</clipPath>
</defs>
</svg>
