<svg width="165" height="34" viewBox="0 0 165 34" fill="none" xmlns="http://www.w3.org/2000/svg">
<g id="Artboard 3 1">
<g id="Group">
<path id="Vector" d="M39.0272 9.30585L37.0572 8.36167L36.8996 8.28506L35.9175 7.81393L35.9118 7.81776L34.8989 7.33131L32.2869 6.07879L32.1293 6.00218L31.9717 6.07879L28.7294 7.6339L27.2687 8.33486L27.113 8.40955L24.5146 9.65441L22.2543 10.7403H31.9717L32.1293 10.6637L32.1351 10.6618L32.1966 10.6924L30.5956 11.4604L27.3379 13.0232L26.3788 13.4828L22.4792 15.3539L22.1659 15.2027L17.9491 13.1802L17.6186 13.0232L13.7343 11.1578L12.7599 10.6924L13.7343 10.2251L17.6186 8.36167L17.9491 8.20271L22.1659 6.18029L22.4773 6.03091L23.8457 6.68589L23.8765 6.67057L24.1071 6.56141L26.2789 5.51956L28.7044 4.35513L27.3379 3.69823L26.3788 3.23859L22.4792 1.36938L22.1659 1.51877L17.9491 3.54119L17.6186 3.70015L13.7343 5.56361L12.7599 6.03091L9.51944 7.58602L7.90116 8.36167L5.30459 9.60653L3.04053 10.6924L5.30459 11.7783L7.89923 13.0232L9.51944 13.8007L12.7579 15.3539L13.7343 15.8213L17.6186 17.6847L17.9491 17.8437L22.1659 19.8661L22.4773 20.0155L26.3788 18.1444L27.3379 17.6847L30.5956 16.1219L32.1966 15.3539L34.8105 14.0995L37.0553 13.0232L39.0272 12.0771L41.9159 10.6924L39.0272 9.30585Z" fill="black"/>
<path id="Vector_2" d="M22.4581 27.5325V30.0126L22.4792 30.003V33.9789L22.4312 34L22.166 33.8717L18.57 32.148L18.2875 32.014L14.974 30.4224L14.1437 30.0241L11.3799 28.6988L9.99998 28.0361L7.78589 26.9751V16.5432L9.99998 17.6061L11.3799 18.2688L14.1437 19.5922L14.974 19.9924L18.2875 21.582L18.57 21.7161L22.166 23.4397L22.4312 23.57L22.4792 23.547V27.521L22.4581 27.5325Z" fill="black"/>
<path id="Vector_3" d="M36.5441 27.232L34.8643 28.0363L32.9501 28.9556L30.7187 30.0262L29.3541 30.6793L26.5769 32.0141L25.76 32.4048L22.4792 33.9791V30.0032L25.76 28.4289L26.5769 28.0382L29.3541 26.7053L30.7206 26.0503L36.5441 27.232Z" fill="black"/>
<path id="Vector_4" d="M36.5441 16.7998V20.7757L34.8643 21.582L32.9501 22.4993L30.7187 23.5699L29.3541 24.223L26.5769 25.556L25.76 25.9486L22.4792 27.5209V23.5469L25.76 21.9727L26.5769 21.582L29.3541 20.2471L30.7206 19.5921L32.9501 18.5235L34.8643 17.6061L36.5441 16.7998Z" fill="black"/>
</g>
<g id="Group_2">
<path id="Vector_5" d="M49.3 24.1198C48.3736 23.5702 47.6471 22.7773 47.1205 21.7412C46.5939 20.7051 46.3325 19.4832 46.3325 18.0717C46.3325 16.6603 46.5901 15.4556 47.1071 14.4195C47.6241 13.3834 48.3467 12.5905 49.2731 12.037C50.1995 11.4835 51.2662 11.2078 52.4693 11.2078C53.9685 11.2078 55.1735 11.5429 56.0884 12.2151C57.0032 12.8874 57.6375 13.8277 57.9911 15.0381L56.0461 15.3867C55.7655 14.6589 55.3311 14.0843 54.743 13.6592C54.1568 13.234 53.4226 13.0214 52.5404 13.0214C51.6583 13.0214 50.8626 13.2321 50.2379 13.6534C49.6133 14.0748 49.1463 14.6666 48.8349 15.4269C48.5235 16.1872 48.3679 17.0778 48.3679 18.0985C48.3679 19.1193 48.5274 20.0041 48.8503 20.7568C49.1712 21.5075 49.6517 22.0898 50.2898 22.5034C50.9298 22.9152 51.714 23.122 52.6423 23.122C53.7493 23.122 54.6219 22.8003 55.2619 22.1549C55.9 21.5095 56.2883 20.5768 56.4228 19.3549H52.8172V17.8151H58.4581C58.4831 18.0162 58.4947 18.2767 58.4947 18.5946C58.4947 19.8299 58.2583 20.9253 57.7835 21.8848C57.3088 22.8443 56.6188 23.5932 55.7097 24.1352C54.8007 24.6771 53.7205 24.9453 52.4674 24.9453C51.2816 24.9453 50.2245 24.6695 49.2981 24.1198H49.3Z" fill="black"/>
<path id="Vector_6" d="M62.2482 24.6691H60.3301V11.4717H62.2482V17.1636H68.854V11.4717H70.7798V24.6691H68.854V18.9696H62.2482V24.6691Z" fill="black"/>
<path id="Vector_7" d="M83.2553 24.6691H81.072L78.3928 19.5001H75.2638V24.6691H73.3477V11.4717H78.6869C79.0539 11.4717 79.3941 11.4966 79.7055 11.5445C80.4262 11.6536 81.0355 11.8911 81.5313 12.255C82.0272 12.6189 82.3982 13.0766 82.6461 13.6301C82.894 14.1836 83.017 14.8022 83.017 15.4859C83.017 16.0183 82.919 16.5335 82.723 17.0352C82.5269 17.537 82.2348 17.9833 81.8465 18.3739C81.4583 18.7646 80.9894 19.0557 80.4378 19.2454L83.2534 24.671L83.2553 24.6691ZM75.2658 13.2777V17.696H78.6138C78.9982 17.696 79.2769 17.6653 79.4479 17.6041C80.0034 17.4144 80.4128 17.131 80.6722 16.7518C80.9317 16.3726 81.0624 15.9513 81.0624 15.4878C81.0624 15.0243 80.9298 14.5628 80.6626 14.1625C80.3974 13.7622 79.9919 13.4979 79.4479 13.3696C79.2212 13.3083 78.9444 13.2777 78.6138 13.2777H75.2658Z" fill="black"/>
<path id="Vector_8" d="M93.7223 24.6691H85.283V11.4717H93.7223V13.2777H87.1992V16.9797H92.621V18.7857H87.1992V22.8631H93.7223V24.6691Z" fill="black"/>
<path id="Vector_9" d="M106.353 24.6691H104.362L103.38 21.691H97.9582L96.9953 24.6691H95.0042L99.2978 11.4717H102.06L106.353 24.6691ZM100.657 13.3868L98.5463 19.8946H102.794L100.657 13.3868Z" fill="black"/>
<path id="Vector_10" d="M112.115 24.6691H110.199V13.2777H105.806V11.4717H116.511V13.2777H112.117V24.6691H112.115Z" fill="black"/>
<path id="Vector_11" d="M119.92 24.6691H117.975V11.4717H119.92L126.424 21.2773V11.4717H128.369V24.6691H126.424L119.92 14.8539V24.6691Z" fill="black"/>
<path id="Vector_12" d="M139.378 24.6691H130.939V11.4717H139.378V13.2777H132.855V16.9797H138.277V18.7857H132.855V22.8631H139.378V24.6691Z" fill="black"/>
<path id="Vector_13" d="M143.553 24.4547C142.788 24.1272 142.159 23.658 141.667 23.0432C141.175 22.4285 140.858 21.7103 140.718 20.8848L142.719 20.5822C142.853 21.1147 143.088 21.5724 143.42 21.9573C143.753 22.3423 144.162 22.6353 144.644 22.8364C145.127 23.0375 145.657 23.139 146.232 23.139C146.764 23.139 147.256 23.0528 147.71 22.8824C148.162 22.7119 148.521 22.4668 148.788 22.1488C149.053 21.8309 149.188 21.4594 149.188 21.0304C149.188 20.5784 149.042 20.2164 148.752 19.9445C148.461 19.6725 148.054 19.458 147.527 19.2991L144.143 18.2994C143.305 18.0542 142.611 17.6827 142.061 17.1809C141.512 16.6791 141.237 15.9494 141.237 14.9899C141.237 14.2009 141.44 13.5229 141.852 12.9503C142.261 12.3796 142.822 11.9448 143.535 11.6499C144.248 11.355 145.05 11.2056 145.944 11.2056C146.837 11.2056 147.631 11.3588 148.342 11.6633C149.055 11.9697 149.647 12.4121 150.122 12.9924C150.595 13.5727 150.921 14.266 151.098 15.0723L149.044 15.4209C148.946 14.9267 148.746 14.4958 148.444 14.1339C148.14 13.77 147.766 13.4942 147.32 13.3046C146.874 13.115 146.389 13.0211 145.871 13.0211C145.394 13.0211 144.956 13.1016 144.558 13.2586C144.16 13.4176 143.845 13.6397 143.612 13.927C143.38 14.2143 143.264 14.538 143.264 14.898C143.264 15.3864 143.453 15.7579 143.829 16.0107C144.206 16.2635 144.702 16.4761 145.321 16.6485L147.762 17.336C148.361 17.5007 148.898 17.6961 149.372 17.9221C149.845 18.1481 150.268 18.5043 150.639 18.9888C151.01 19.4753 151.194 20.1111 151.194 20.9002C151.194 21.7562 150.966 22.4878 150.51 23.0949C150.055 23.704 149.443 24.1636 148.675 24.4739C147.908 24.786 147.058 24.9412 146.13 24.9412C145.202 24.9412 144.325 24.7784 143.56 24.4509L143.553 24.4547Z" fill="black"/>
<path id="Vector_14" d="M155.634 24.4547C154.869 24.1272 154.241 23.658 153.749 23.0432C153.257 22.4285 152.94 21.7103 152.799 20.8848L154.8 20.5822C154.935 21.1147 155.169 21.5724 155.502 21.9573C155.834 22.3423 156.243 22.6353 156.726 22.8364C157.208 23.0375 157.739 23.139 158.313 23.139C158.846 23.139 159.338 23.0528 159.791 22.8824C160.243 22.7119 160.602 22.4668 160.87 22.1488C161.135 21.8309 161.269 21.4594 161.269 21.0304C161.269 20.5784 161.123 20.2164 160.833 19.9445C160.543 19.6725 160.135 19.458 159.609 19.2991L156.224 18.2994C155.386 18.0542 154.692 17.6827 154.143 17.1809C153.593 16.6791 153.318 15.9494 153.318 14.9899C153.318 14.2009 153.522 13.5229 153.933 12.9503C154.343 12.3796 154.904 11.9448 155.617 11.6499C156.33 11.355 157.131 11.2056 158.025 11.2056C158.919 11.2056 159.713 11.3588 160.424 11.6633C161.137 11.9697 161.729 12.4121 162.203 12.9924C162.676 13.5727 163.003 14.266 163.18 15.0723L161.125 15.4209C161.027 14.9267 160.827 14.4958 160.526 14.1339C160.222 13.77 159.847 13.4942 159.401 13.3046C158.955 13.115 158.471 13.0211 157.952 13.0211C157.475 13.0211 157.037 13.1016 156.639 13.2586C156.242 13.4176 155.926 13.6397 155.694 13.927C155.461 14.2143 155.346 14.538 155.346 14.898C155.346 15.3864 155.534 15.7579 155.911 16.0107C156.288 16.2635 156.784 16.4761 157.402 16.6485L159.843 17.336C160.443 17.5007 160.979 17.6961 161.454 17.9221C161.927 18.1481 162.35 18.5043 162.72 18.9888C163.091 19.4753 163.276 20.1111 163.276 20.9002C163.276 21.7562 163.047 22.4878 162.592 23.0949C162.136 23.704 161.525 24.1636 160.756 24.4739C159.989 24.786 159.14 24.9412 158.212 24.9412C157.283 24.9412 156.407 24.7784 155.642 24.4509L155.634 24.4547Z" fill="black"/>
</g>
</g>
</svg>
