<svg width="125" height="26" viewBox="0 0 125 26" fill="none" xmlns="http://www.w3.org/2000/svg">
<g id="Artboard 3 1" clip-path="url(#clip0_3009_1972)">
<g id="Group">
<path id="Vector" d="M30.0214 7.22901L28.5439 6.52089L28.4257 6.46344L27.6892 6.1101L27.6848 6.11298L26.9252 5.74815L24.9663 4.80879L24.8481 4.75134L24.7299 4.80879L22.2982 5.97509L21.2028 6.50079L21.086 6.5568L19.1372 7.49042L17.4421 8.30482H24.7299L24.8481 8.24736L24.8524 8.24593L24.8986 8.26891L23.6979 8.84488L21.2547 10.0169L20.5354 10.3616L17.6108 11.7649L17.3758 11.6515L14.2133 10.1347L13.9654 10.0169L11.0523 8.61794L10.3215 8.26891L11.0523 7.91844L13.9654 6.52089L14.2133 6.40168L17.3758 4.88492L17.6093 4.77288L18.6356 5.26411L18.6587 5.25262L18.8316 5.17074L20.4604 4.38938L22.2795 3.51609L21.2547 3.02343L20.5354 2.67871L17.6108 1.27686L17.3758 1.38889L14.2133 2.90565L13.9654 3.02487L11.0523 4.42242L10.3215 4.77288L7.89125 5.93918L6.67758 6.52089L4.73022 7.45451L3.03223 8.26891L4.73022 9.08331L6.67614 10.0169L7.89125 10.6001L10.32 11.7649L11.0523 12.1154L13.9654 13.5129L14.2133 13.6322L17.3758 15.1489L17.6093 15.261L20.5354 13.8577L21.2547 13.5129L23.6979 12.3409L24.8986 11.7649L26.8589 10.8241L28.5425 10.0169L30.0214 9.30737L32.1878 8.26891L30.0214 7.22901Z" fill="black"/>
<path id="Vector_2" d="M17.5956 20.8984V22.7584L17.6115 22.7513V25.7331L17.5754 25.7489L17.3765 25.6526L14.6796 24.36L14.4677 24.2594L11.9827 23.0658L11.36 22.7671L9.28725 21.7731L8.25231 21.2762L6.5918 20.4804V12.6567L8.25231 13.4539L9.28725 13.9509L11.36 14.9434L11.9827 15.2436L14.4677 16.4357L14.6796 16.5363L17.3765 17.829L17.5754 17.9266L17.6115 17.9094V20.8898L17.5956 20.8984Z" fill="black"/>
<path id="Vector_3" d="M28.1596 20.6738L26.8998 21.2771L25.4642 21.9665L23.7907 22.7694L22.7673 23.2592L20.6844 24.2603L20.0718 24.5533L17.6113 25.734V22.7522L20.0718 21.5715L20.6844 21.2785L22.7673 20.2788L23.7921 19.7876L28.1596 20.6738Z" fill="black"/>
<path id="Vector_4" d="M28.1596 12.8486V15.8305L26.8998 16.4351L25.4642 17.1232L23.7907 17.9261L22.7673 18.4158L20.6844 19.4155L20.0718 19.71L17.6113 20.8892V17.9088L20.0718 16.7282L20.6844 16.4351L22.7673 15.434L23.7921 14.9428L25.4642 14.1413L26.8998 13.4533L28.1596 12.8486Z" fill="black"/>
</g>
<g id="Group_2">
<path id="Vector_5" d="M37.7236 18.3385C37.0288 17.9263 36.484 17.3317 36.089 16.5546C35.6941 15.7775 35.498 14.8612 35.498 13.8026C35.498 12.744 35.6912 11.8406 36.0789 11.0635C36.4667 10.2865 37.0087 9.69181 37.7034 9.27672C38.3982 8.86162 39.1982 8.65479 40.1005 8.65479C41.2248 8.65479 42.1286 8.90614 42.8147 9.41029C43.5008 9.91445 43.9765 10.6197 44.2417 11.5274L42.783 11.7889C42.5725 11.2431 42.2468 10.8122 41.8057 10.4933C41.3661 10.1744 40.8154 10.015 40.1538 10.015C39.4922 10.015 38.8955 10.173 38.427 10.489C37.9586 10.805 37.6083 11.2488 37.3748 11.819C37.1413 12.3892 37.0245 13.0571 37.0245 13.8227C37.0245 14.5883 37.1441 15.2518 37.3863 15.8163C37.627 16.3794 37.9874 16.816 38.4659 17.1263C38.9459 17.4351 39.534 17.5902 40.2302 17.5902C41.0605 17.5902 41.7149 17.3489 42.1949 16.8648C42.6734 16.3808 42.9646 15.6813 43.0655 14.7649H40.3614V13.6101H44.592C44.6107 13.7609 44.6194 13.9563 44.6194 14.1947C44.6194 15.1211 44.4421 15.9427 44.086 16.6623C43.73 17.3819 43.2125 17.9435 42.5307 18.35C41.8489 18.7565 41.0389 18.9576 40.0991 18.9576C39.2097 18.9576 38.4169 18.7507 37.7222 18.3385H37.7236Z" fill="black"/>
<path id="Vector_6" d="M47.4346 18.7503H45.9961V8.85254H47.4346V13.1213H52.3888V8.85254H53.8331V18.7503H52.3888V14.4758H47.4346V18.7503Z" fill="black"/>
<path id="Vector_7" d="M63.1898 18.7503H61.5523L59.543 14.8736H57.1964V18.7503H55.7593V8.85254H59.7635C60.0389 8.85254 60.294 8.87121 60.5275 8.90712C61.068 8.98899 61.525 9.1671 61.8968 9.44C62.2687 9.7129 62.5469 10.0562 62.7329 10.4713C62.9188 10.8864 63.0111 11.3503 63.0111 11.8631C63.0111 12.2624 62.9375 12.6488 62.7905 13.0251C62.6435 13.4014 62.4244 13.7361 62.1332 14.0291C61.8421 14.3221 61.4904 14.5404 61.0767 14.6826L63.1884 18.7517L63.1898 18.7503ZM57.1978 10.207V13.5206H59.7088C59.9971 13.5206 60.2061 13.4976 60.3343 13.4517C60.7509 13.3095 61.0579 13.0969 61.2525 12.8125C61.4471 12.5281 61.5451 12.2121 61.5451 11.8645C61.5451 11.5169 61.4457 11.1708 61.2453 10.8706C61.0464 10.5704 60.7423 10.3722 60.3343 10.2759C60.1643 10.23 59.9567 10.207 59.7088 10.207H57.1978Z" fill="black"/>
<path id="Vector_8" d="M71.0397 18.7503H64.7104V8.85254H71.0397V10.207H66.1475V12.9834H70.2138V14.3379H66.1475V17.3958H71.0397V18.7503Z" fill="black"/>
<path id="Vector_9" d="M80.5126 18.7503H79.0193L78.2827 16.5168H74.2164L73.4943 18.7503H72.001L75.2211 8.85254H77.2924L80.5126 18.7503ZM76.2402 10.2889L74.6575 15.1695H77.8431L76.2402 10.2889Z" fill="black"/>
<path id="Vector_10" d="M84.8333 18.7503H83.3962V10.207H80.1011V8.85254H88.1298V10.207H84.8347V18.7503H84.8333Z" fill="black"/>
<path id="Vector_11" d="M90.6867 18.7503H89.228V8.85254H90.6867L95.5645 16.2065V8.85254H97.0232V18.7503H95.5645L90.6867 11.3891V18.7503Z" fill="black"/>
<path id="Vector_12" d="M105.281 18.7503H98.9517V8.85254H105.281V10.207H100.389V12.9834H104.455V14.3379H100.389V17.3958H105.281V18.7503Z" fill="black"/>
<path id="Vector_13" d="M108.41 18.5898C107.837 18.3442 107.365 17.9923 106.996 17.5313C106.627 17.0702 106.389 16.5316 106.284 15.9125L107.785 15.6856C107.886 16.0849 108.061 16.4282 108.311 16.7169C108.56 17.0056 108.867 17.2253 109.229 17.3762C109.591 17.527 109.989 17.6031 110.42 17.6031C110.819 17.6031 111.188 17.5385 111.528 17.4106C111.867 17.2828 112.136 17.0989 112.337 16.8605C112.536 16.6221 112.637 16.3434 112.637 16.0217C112.637 15.6827 112.527 15.4113 112.309 15.2073C112.092 15.0033 111.786 14.8425 111.391 14.7232L108.853 13.9735C108.224 13.7896 107.704 13.511 107.292 13.1347C106.879 12.7584 106.673 12.2111 106.673 11.4915C106.673 10.8997 106.826 10.3913 107.135 9.96182C107.442 9.53379 107.863 9.20774 108.397 8.98655C108.932 8.76535 109.533 8.65332 110.203 8.65332C110.874 8.65332 111.469 8.76823 112.002 8.9966C112.537 9.22642 112.981 9.55821 113.337 9.99342C113.692 10.4286 113.937 10.9486 114.069 11.5533L112.528 11.8147C112.455 11.4441 112.305 11.1209 112.079 10.8495C111.851 10.5766 111.57 10.3697 111.235 10.2275C110.901 10.0853 110.538 10.015 110.149 10.015C109.791 10.015 109.463 10.0753 109.164 10.1931C108.866 10.3123 108.629 10.4789 108.455 10.6943C108.281 10.9098 108.194 11.1525 108.194 11.4226C108.194 11.7888 108.335 12.0675 108.618 12.2571C108.9 12.4467 109.272 12.6061 109.736 12.7354L111.567 13.251C112.017 13.3745 112.419 13.521 112.775 13.6905C113.129 13.86 113.447 14.1272 113.725 14.4906C114.003 14.8554 114.141 15.3323 114.141 15.924C114.141 16.5661 113.97 17.1147 113.628 17.5701C113.287 18.0268 112.828 18.3715 112.252 18.6042C111.677 18.8383 111.039 18.9547 110.343 18.9547C109.647 18.9547 108.99 18.8326 108.416 18.587L108.41 18.5898Z" fill="black"/>
<path id="Vector_14" d="M117.472 18.5898C116.898 18.3442 116.427 17.9923 116.058 17.5313C115.689 17.0702 115.451 16.5316 115.346 15.9125L116.846 15.6856C116.947 16.0849 117.123 16.4282 117.372 16.7169C117.622 17.0056 117.929 17.2253 118.291 17.3762C118.652 17.527 119.05 17.6031 119.481 17.6031C119.88 17.6031 120.249 17.5385 120.59 17.4106C120.928 17.2828 121.198 17.0989 121.398 16.8605C121.597 16.6221 121.698 16.3434 121.698 16.0217C121.698 15.6827 121.588 15.4113 121.371 15.2073C121.153 15.0033 120.848 14.8425 120.453 14.7232L117.914 13.9735C117.286 13.7896 116.766 13.511 116.353 13.1347C115.941 12.7584 115.735 12.2111 115.735 11.4915C115.735 10.8997 115.888 10.3913 116.196 9.96182C116.503 9.53379 116.924 9.20774 117.459 8.98655C117.994 8.76535 118.595 8.65332 119.265 8.65332C119.935 8.65332 120.53 8.76823 121.064 8.9966C121.599 9.22642 122.043 9.55821 122.399 9.99342C122.753 10.4286 122.998 10.9486 123.131 11.5533L121.59 11.8147C121.516 11.4441 121.367 11.1209 121.14 10.8495C120.912 10.5766 120.631 10.3697 120.297 10.2275C119.963 10.0853 119.599 10.015 119.21 10.015C118.853 10.015 118.524 10.0753 118.226 10.1931C117.927 10.3123 117.691 10.4789 117.516 10.6943C117.342 10.9098 117.256 11.1525 117.256 11.4226C117.256 11.7888 117.397 12.0675 117.679 12.2571C117.962 12.4467 118.334 12.6061 118.798 12.7354L120.629 13.251C121.078 13.3745 121.48 13.521 121.836 13.6905C122.191 13.86 122.508 14.1272 122.786 14.4906C123.065 14.8554 123.203 15.3323 123.203 15.924C123.203 16.5661 123.031 17.1147 122.69 17.5701C122.348 18.0268 121.89 18.3715 121.313 18.6042C120.738 18.8383 120.101 18.9547 119.405 18.9547C118.709 18.9547 118.051 18.8326 117.478 18.587L117.472 18.5898Z" fill="black"/>
</g>
</g>
<defs>
<clipPath id="clip0_3009_1972">
<rect width="123.746" height="25.4992" fill="white" transform="translate(0.751465 0.250488)"/>
</clipPath>
</defs>
</svg>
