<svg width="19" height="19" viewBox="0 0 19 19" fill="none" xmlns="http://www.w3.org/2000/svg">
<g id="Vector">
<path d="M15.5057 18.3394C16.7357 17.8642 17.7082 16.8917 18.1835 15.6616C18.4084 15.079 18.5659 14.4142 18.6087 13.4417C18.6188 13.2139 18.6267 13.0227 18.634 12.8309V6.33361C18.6289 6.19806 18.6233 6.05689 18.616 5.89828C18.5732 4.92582 18.4157 4.25765 18.1908 3.67833C17.9585 3.06359 17.6008 2.51296 17.1328 2.0557C16.675 1.59056 16.121 1.22948 15.513 1.00113C14.9303 0.776152 14.2655 0.61867 13.2931 0.575925C12.3133 0.529242 12.0023 0.518555 9.51796 0.518555C7.03367 0.518555 6.72208 0.529242 5.74625 0.571987C4.7738 0.614732 4.10562 0.772215 3.52631 0.99719C2.91156 1.22948 2.36094 1.58719 1.90311 2.0557C1.43854 2.51352 1.07745 3.06753 0.848538 3.67496C0.623563 4.25765 0.46608 4.92245 0.423335 5.8949C0.376653 6.87467 0.365967 7.1857 0.365967 9.67055C0.365967 12.1554 0.376652 12.4664 0.419397 13.4423C0.462143 14.4147 0.619626 15.0835 0.845164 15.6622C1.07745 16.277 1.43854 16.8276 1.90311 17.2854C2.36094 17.75 2.91494 18.1116 3.52293 18.34C4.10562 18.565 4.77042 18.7224 5.74288 18.7652C6.71871 18.8085 7.02974 18.8192 9.51459 18.8192C11.9994 18.8192 12.3099 18.8085 13.2863 18.7652C14.2588 18.7224 14.9264 18.5644 15.5057 18.3394ZM9.52134 17.174C7.07923 17.174 6.7862 17.1634 5.82443 17.1206C4.93072 17.0812 4.44814 16.9311 4.12643 16.8062C3.72991 16.6594 3.36882 16.4271 3.07523 16.1234C2.77152 15.8264 2.53867 15.4693 2.39243 15.0722C2.26757 14.7505 2.1174 14.264 2.07803 13.3742C2.03528 12.4091 2.0246 12.1194 2.0246 9.6773C2.0246 7.2352 2.03528 6.94217 2.07803 5.98096C2.1174 5.08724 2.26757 4.60467 2.39243 4.28296C2.53923 3.88587 2.77152 3.52479 3.07917 3.23176C3.37557 2.92804 3.73329 2.69575 4.1298 2.54896C4.45152 2.4241 4.93803 2.27393 5.82781 2.23455C6.79295 2.19181 7.08261 2.18112 9.52415 2.18112C11.9657 2.18112 12.2593 2.19181 13.2211 2.23455C14.1148 2.27393 14.5973 2.4241 14.9191 2.54896C15.3156 2.69575 15.6767 2.92804 15.9697 3.23176C16.2734 3.52873 16.5063 3.88587 16.6525 4.28296C16.7774 4.60467 16.9275 5.09062 16.9669 5.98096C17.0096 6.9461 17.0203 7.23576 17.0203 9.6773C17.0203 12.1188 17.0096 12.4051 16.9669 13.3703C16.9275 14.264 16.7774 14.7466 16.6525 15.0683C16.3448 15.8658 15.7121 16.4986 14.9151 16.8056C14.5934 16.9305 14.1075 17.0807 13.2171 17.1201C12.252 17.1628 11.9629 17.174 9.52134 17.174Z" fill="white"/>
<path d="M9.51816 4.96861C6.9225 4.96861 4.81673 7.07438 4.81673 9.67003C4.81673 12.2657 6.9225 14.3715 9.51816 14.3715C12.1138 14.3715 14.219 12.2657 14.219 9.67003C14.219 7.07438 12.1132 4.96861 9.51816 4.96861ZM9.51816 12.719C7.83422 12.719 6.46862 11.3534 6.46862 9.66947C6.46862 7.98553 7.83422 6.61993 9.51816 6.61993C11.2021 6.61993 12.5677 7.98553 12.5677 9.66947C12.5677 11.3534 11.2021 12.719 9.51816 12.719Z" fill="white"/>
<path d="M15.5013 4.78274C15.5013 4.17643 15.0097 3.68542 14.4034 3.68542C13.7971 3.68542 13.3061 4.17699 13.3061 4.78274C13.3061 5.38848 13.7977 5.88005 14.4034 5.88005C15.0092 5.88005 15.5013 5.38905 15.5013 4.78274Z" fill="white"/>
</g>
</svg>
