<svg width="166" height="46" viewBox="0 0 166 46" fill="none" xmlns="http://www.w3.org/2000/svg">
<g id="Vector">
<path d="M54.7318 29.6424V10.6984H51.6254V29.6424H54.7318Z" fill="#43505C"/>
<path d="M56.6331 23.3277C56.6331 27.198 59.2303 29.9479 63.1769 29.9479C67.1236 29.9479 69.7207 27.198 69.7207 23.3277C69.7207 19.4574 67.1236 16.7075 63.1769 16.7075C59.2303 16.7075 56.6331 19.4574 56.6331 23.3277ZM59.765 23.3277C59.765 21.0616 61.1145 19.4829 63.1769 19.4829C65.2394 19.4829 66.5889 21.0616 66.5889 23.3277C66.5889 25.5684 65.2394 27.1725 63.1769 27.1725C61.1145 27.1725 59.765 25.5684 59.765 23.3277Z" fill="#43505C"/>
<path d="M70.7656 23.0731C70.7656 26.7397 73.1336 29.3877 76.6728 29.3877C78.5061 29.3877 80.0848 28.6493 80.8741 27.4271V29.566C80.8741 31.6284 79.5755 33.0034 77.4112 33.0034C75.4761 33.0034 74.1521 32.0613 73.9738 30.4062H70.842C71.2494 33.6909 73.7701 35.8297 77.233 35.8297C81.307 35.8297 83.9041 33.1562 83.9041 29.0058V17.064H81.1542L80.976 18.7699C80.2121 17.4459 78.6334 16.6566 76.7747 16.6566C73.1845 16.6566 70.7656 19.381 70.7656 23.0731ZM73.9229 22.9967C73.9229 20.9088 75.2469 19.381 77.2075 19.381C79.3464 19.381 80.7723 20.9342 80.7723 22.9967C80.7723 25.0846 79.3464 26.6887 77.2075 26.6887C75.2724 26.6887 73.9229 25.1101 73.9229 22.9967Z" fill="#43505C"/>
<path d="M85.4414 23.3277C85.4414 27.198 88.0386 29.9479 91.9852 29.9479C95.9319 29.9479 98.529 27.198 98.529 23.3277C98.529 19.4574 95.9319 16.7075 91.9852 16.7075C88.0386 16.7075 85.4414 19.4574 85.4414 23.3277ZM88.5733 23.3277C88.5733 21.0616 89.9228 19.4829 91.9852 19.4829C94.0477 19.4829 95.3972 21.0616 95.3972 23.3277C95.3972 25.5684 94.0477 27.1725 91.9852 27.1725C89.9228 27.1725 88.5733 25.5684 88.5733 23.3277Z" fill="#43505C"/>
<path d="M101.891 14.4923C102.909 14.4923 103.75 13.6775 103.75 12.6335C103.75 11.615 102.909 10.8002 101.891 10.8002C100.847 10.8002 100.058 11.615 100.058 12.6335C100.058 13.6775 100.847 14.4923 101.891 14.4923ZM100.338 29.6424H103.444V17.064H100.338V29.6424Z" fill="#43505C"/>
<path d="M106.166 35.4732H109.196V27.9109C109.985 29.2095 111.691 29.9734 113.575 29.9734C117.293 29.9734 119.508 27.1216 119.457 23.2004C119.381 19.2537 117.115 16.682 113.55 16.682C111.64 16.682 109.909 17.5223 109.145 18.9736L108.967 17.064H106.166V35.4732ZM109.323 23.3532C109.323 21.087 110.698 19.5084 112.862 19.5084C115.027 19.5084 116.325 21.1125 116.325 23.3532C116.325 25.5938 115.027 27.1725 112.862 27.1725C110.698 27.1725 109.323 25.6193 109.323 23.3532Z" fill="#43505C"/>
<path d="M120.245 25.8739C120.347 28.3692 122.282 29.9734 125.287 29.9734C128.24 29.9734 130.252 28.3947 130.252 25.9503C130.252 24.1425 129.132 22.9203 127.069 22.4111L124.854 21.8763C123.912 21.6217 123.275 21.2907 123.275 20.4759C123.275 19.6102 123.963 18.9991 125.083 18.9991C126.254 18.9991 127.018 19.6611 127.018 20.756H129.845C129.743 18.2607 127.884 16.682 125.16 16.682C122.461 16.682 120.449 18.2607 120.449 20.6542C120.449 22.2837 121.391 23.6332 123.81 24.2698L126 24.83C126.815 25.0591 127.324 25.4411 127.324 26.154C127.324 27.1471 126.382 27.6054 125.236 27.6054C123.861 27.6054 123.072 26.9688 123.072 25.8739H120.245Z" fill="#43505C"/>
<path d="M136.696 29.9734C138.402 29.9734 140.032 29.184 140.77 28.0128L140.974 29.6424H143.877V17.064H140.77V23.6587C140.77 25.9249 139.904 27.198 137.867 27.198C136.289 27.198 135.194 26.4341 135.194 23.8369V17.064H132.087V24.9318C132.087 27.9364 133.717 29.9734 136.696 29.9734Z" fill="#43505C"/>
<path d="M149.724 29.6424V22.4111C149.724 20.3741 150.921 19.4065 152.398 19.4065C153.874 19.4065 154.842 20.3486 154.842 22.131V29.6424H157.872V22.4365C157.872 20.3741 159.043 19.4065 160.52 19.4065C162.022 19.4065 162.99 20.3486 162.99 22.131V29.6424H165.994V21.418C165.994 18.5153 164.39 16.682 161.335 16.682C159.425 16.682 157.923 17.5987 157.312 19.0755C156.624 17.5987 155.249 16.682 153.161 16.682C151.685 16.682 150.361 17.3695 149.622 18.4899L149.469 17.064H146.618V29.6424H149.724Z" fill="#43505C"/>
<path d="M142.277 40.8834C142.74 40.8834 143.141 40.4937 143.141 40.031C143.141 39.5561 142.74 39.1664 142.277 39.1664C141.802 39.1664 141.4 39.5561 141.4 40.031C141.4 40.4937 141.802 40.8834 142.277 40.8834Z" fill="#8E98A1"/>
<path d="M144.035 37.7416C144.035 39.6048 145.18 40.8591 146.848 40.8591C148.285 40.8591 149.381 39.9945 149.612 38.7036H148.516C148.309 39.4221 147.676 39.8483 146.921 39.8483C145.849 39.8483 145.167 39.0202 145.167 37.7294C145.167 36.4142 145.886 35.6105 146.945 35.6105C147.676 35.6105 148.309 36.0002 148.504 36.7674H149.6C149.405 35.4644 148.382 34.5876 146.958 34.5876C145.228 34.5876 144.035 35.8662 144.035 37.7416Z" fill="#8E98A1"/>
<path d="M150.044 37.7294C150.044 39.5195 151.262 40.8591 153.088 40.8591C154.915 40.8591 156.133 39.5195 156.133 37.7294C156.133 35.9393 154.915 34.5998 153.088 34.5998C151.262 34.5998 150.044 35.9393 150.044 37.7294ZM151.201 37.7294C151.201 36.5117 151.944 35.6227 153.088 35.6227C154.233 35.6227 154.976 36.5117 154.976 37.7294C154.976 38.9472 154.233 39.8361 153.088 39.8361C151.944 39.8361 151.201 38.9472 151.201 37.7294Z" fill="#8E98A1"/>
<path d="M158.255 40.7251V37.1449C158.255 36.2072 158.84 35.5983 159.692 35.5983C160.508 35.5983 161.019 36.122 161.019 37.0596V40.7251H162.14V37.1571C162.14 36.2072 162.712 35.5983 163.577 35.5983C164.38 35.5983 164.892 36.122 164.892 37.0596V40.7251H166V36.8161C166 35.44 165.196 34.5998 163.832 34.5998C162.907 34.5998 162.188 35.0503 161.896 35.781C161.592 35.0503 160.922 34.5998 159.948 34.5998C159.205 34.5998 158.547 34.9407 158.218 35.5253L158.133 34.7703H157.11V40.7251H158.255Z" fill="#8E98A1"/>
<path fill-rule="evenodd" clip-rule="evenodd" d="M0 23.4819L0.00213662 23.2601L0.00654262 23.0381L0.0132294 22.8161L0.0221855 22.5942L0.0334332 22.3722L0.0469502 22.1502L0.0627591 21.9284L0.0808373 21.7065L0.101207 21.4848L0.123858 21.263L0.148788 21.0416L0.175989 20.8202L0.205481 20.599L0.237253 20.3781L0.271296 20.1573L0.307618 19.9369L0.346221 19.7166L0.387083 19.4967L0.430225 19.2771L0.475636 19.0578L0.523317 18.8388L0.573246 18.6203L0.625454 18.4022L0.6799 18.1844L0.736614 17.9672L0.795565 17.7503L0.856774 17.534L0.92022 17.3183L0.985901 17.103L1.05381 16.8884L1.12395 16.6743L1.19632 16.4607L1.2709 16.2478L1.34769 16.0356L1.42669 15.8241L1.50788 15.6132L1.59127 15.403L1.67685 15.1936L1.76461 14.985L1.85453 14.7771L1.94663 14.57L2.04088 14.3637L2.13729 14.1584L2.23584 13.9538L2.33652 13.7501L2.43934 13.5474L2.54426 13.3456L2.6513 13.1447L2.76044 12.9448L2.87166 12.7459L2.98498 12.5479L3.10036 12.3511L3.21781 12.1553L3.3373 11.9605L3.45885 11.7669L3.58242 11.5744L3.70801 11.3831L3.83562 11.1928L3.96523 11.0038L4.09682 10.816L4.23039 10.6293L4.36591 10.444L4.5034 10.2598L4.64282 10.077L4.78418 9.89544L4.92745 9.71514L5.07262 9.53624L5.21968 9.35869L5.36861 9.18251L5.51941 9.00772L5.67207 8.83434L5.82655 8.66241L5.98285 8.49191L6.14097 8.32288L6.30087 8.15534L6.46256 7.9893L6.62601 7.82478L6.7912 7.6618L6.95813 7.50038L7.12678 7.34054L7.29714 7.18229L7.46918 7.02564L7.64288 6.87063L7.81825 6.71726L7.99526 6.56554L8.17388 6.41551L8.35411 6.26718L8.53594 6.12055L8.71933 5.97564L8.90429 5.83248L9.09072 5.69109L9.27881 5.55145L9.46833 5.41362L9.6593 5.2776L9.85171 5.14339L10.0457 5.01102L10.2409 4.88049L10.4377 4.75184L10.6358 4.62506L10.8354 4.50018L11.0363 4.37721L11.2385 4.25615L11.442 4.13704L11.6468 4.01988L11.8529 3.90468L12.0603 3.79146L12.2689 3.68023L12.4786 3.571L12.6896 3.46379L12.9019 3.3586L13.1152 3.25546L13.3298 3.15436L13.5453 3.05534L13.7621 2.95839L13.9798 2.86353L14.1987 2.77077L14.4185 2.68012L14.6394 2.59159L14.8613 2.50518L15.0841 2.42094L15.3078 2.33883L15.5326 2.2589L15.7582 2.18113L15.9847 2.10554L16.212 2.03215L16.4401 1.96095L16.6692 1.89197L16.899 1.82522L17.1295 1.76069L17.3609 1.69838L17.5929 1.63832L17.8256 1.58053L18.059 1.525L18.2931 1.47171L18.5278 1.42072L18.7631 1.372L18.999 1.32557L19.2355 1.28144L19.4725 1.23961L19.7101 1.20008L19.9481 1.16288L20.1865 1.12798L20.4254 1.09542L20.6648 1.06519L20.9046 1.03729L21.1447 1.01172L21.3851 0.988515L21.6259 0.967647L21.867 0.949126L22.1084 0.932974L23.4063 0.858856L23.4804 7.11226L23.5228 7.11177L23.702 7.11152L23.8812 7.11302L24.0605 7.11629L24.2399 7.12133L24.4193 7.12812L24.5987 7.13667L24.7782 7.147L24.9576 7.1591L25.137 7.17295L25.3164 7.18858L25.4957 7.20598L25.6749 7.22516L25.8539 7.24609L26.0329 7.2688L26.2117 7.29328L26.3904 7.31951L26.5688 7.34753L26.7472 7.37731L26.9252 7.40885L27.1031 7.44216L27.2807 7.47724L27.4579 7.51408L27.635 7.55267L27.8117 7.59302L27.9881 7.63512L28.1642 7.67899L28.3399 7.72461L28.5152 7.77197L28.6901 7.82108L28.8646 7.87192L29.0387 7.92451L29.2123 7.97883L29.3854 8.03489L29.5581 8.09268L29.7303 8.15219L29.9019 8.21342L30.073 8.27635L30.2435 8.34102L30.4134 8.40737L30.5828 8.47545L30.7515 8.54521L30.9196 8.61666L31.0871 8.68981L31.2539 8.76463L31.42 8.84113L31.5854 8.91929L31.7501 8.99912L31.914 9.08061L32.0772 9.16375L32.2396 9.24853L32.4013 9.33494L32.5621 9.423L32.7221 9.51267L32.8813 9.60396L33.0396 9.69685L33.197 9.79137L33.3535 9.88747L33.5092 9.98511L33.6639 10.0844L33.8176 10.1852L33.9704 10.2876L34.1223 10.3915L34.2731 10.4969L34.423 10.604L34.5718 10.7124L34.7194 10.8225L34.8662 10.9341L35.0118 11.0471L35.1564 11.1617L35.2998 11.2776L35.4421 11.3951L35.5833 11.5141L35.7233 11.6344L35.8623 11.7562L36 11.8794L36.1364 12.0041L36.2716 12.1301L36.4057 12.2576L36.5386 12.3863L36.6701 12.5165L36.8004 12.648L36.9293 12.781L37.0571 12.9152L37.1834 13.0507L37.3085 13.1875L37.4322 13.3257L37.5545 13.465L37.6755 13.6057L37.7951 13.7477L37.9133 13.8908L38.0301 14.0353L38.1454 14.1809L38.2594 14.3277L38.3718 14.4757L38.4829 14.6249L38.5924 14.7752L38.7004 14.9268L38.8069 15.0795L38.912 15.2331L39.0155 15.388L39.1174 15.544L39.2179 15.7011L39.3166 15.8592L39.4139 16.0182L39.5096 16.1784L39.6037 16.3396L39.6961 16.5018L39.787 16.665L39.8762 16.8292L39.9638 16.9942L40.0497 17.1603L40.1339 17.3272L40.2165 17.4951L40.2975 17.6639L40.3767 17.8335L40.4542 18.004L40.53 18.1753L40.6041 18.3475L40.6764 18.5205L40.747 18.6942L40.8159 18.8688L40.883 19.0441L40.9483 19.2202L41.0118 19.3969L41.0736 19.5744L41.1336 19.7526L41.1918 19.9315L41.2482 20.1109L41.3028 20.291L41.3555 20.4718L41.4064 20.6532L41.4554 20.8352L41.5027 21.0177L41.548 21.2007L41.5916 21.3844L41.6332 21.5685L41.673 21.7531L41.7109 21.9381L41.7469 22.1238L41.781 22.3098L41.8134 22.4962L41.8437 22.683L41.8721 22.8702L41.8987 23.0578L41.9233 23.2457L41.946 23.434L41.9668 23.6225L41.9856 23.8114L42.0025 24.0005L42.0176 24.1899L42.0307 24.3795L42.0417 24.5694L42.0509 24.7593L42.0582 24.9497L42.0634 25.14L42.0669 25.3305L42.0682 25.5211L42.0676 25.7119L42.0651 25.9027L42.0606 26.0937L42.0541 26.2845L42.0457 26.4755L42.0354 26.6665L42.023 26.8574L42.0087 27.0484L41.9925 27.2393L41.9742 27.4301L41.9541 27.6209L41.9318 27.8114L41.9077 28.0019L41.8817 28.1922L41.8535 28.3824L41.8235 28.5724L41.7915 28.7621L41.7576 28.9517L41.7217 29.141L41.6838 29.3301L41.644 29.5188L41.6021 29.7072L41.5584 29.8954L41.5128 30.0832L41.4651 30.2706L41.4155 30.4576L41.364 30.6442L41.3105 30.8305L41.2552 31.0162L41.1978 31.2017L41.1385 31.3864L41.0774 31.5709L41.0143 31.7546L40.9492 31.938L40.8823 32.1207L40.8135 32.3028L40.7427 32.4844L40.6701 32.6654L40.5956 32.8457L40.5192 33.0254L40.4409 33.2045L40.3608 33.3828L40.2787 33.5605L40.1948 33.7374L40.1091 33.9135L40.0215 34.089L39.9321 34.2636L39.8408 34.4375L39.7478 34.6104L39.6528 34.7826L39.5562 34.9539L39.4576 35.1244L39.3573 35.294L39.2553 35.4626L39.1514 35.6304L39.0457 35.7972L38.9383 35.963L38.8293 36.1278L38.7183 36.2917L38.6058 36.4545L38.4914 36.6164L38.3754 36.7771L38.2576 36.9369L38.1381 37.0955L38.017 37.253L37.8943 37.4094L37.7698 37.5647L37.6437 37.7188L37.516 37.8717L37.3866 38.0234L37.2556 38.174L37.123 38.3234L36.9888 38.4715L36.8531 38.6184L36.7158 38.764L36.5769 38.9083L36.4365 39.0512L36.2944 39.1929L36.151 39.3333L36.0061 39.4724L35.8596 39.6101L35.7117 39.7464L35.5622 39.8813L35.4113 40.0147L35.2591 40.1468L35.1054 40.2775L34.9503 40.4067L34.7937 40.5344L34.6359 40.6607L34.4766 40.7854L34.3159 40.9087L34.154 41.0303L33.9907 41.1506L33.8262 41.2692L33.6602 41.3862L33.493 41.5018L33.3247 41.6157L33.1551 41.728L32.9841 41.8387L32.8121 41.9479L32.6388 42.0552L32.4644 42.1611L32.2887 42.2651L32.1119 42.3677L31.9341 42.4684L31.755 42.5674L31.5749 42.6648L31.3937 42.7603L31.2115 42.8542L31.0282 42.9464L30.8438 43.0368L30.6585 43.1253L30.4722 43.2122L30.2849 43.2973L30.0967 43.3805L29.9075 43.4619L29.7174 43.5415L29.5265 43.6193L29.3346 43.6952L29.1419 43.7693L28.9482 43.8416L28.7538 43.9119L28.5585 43.9804L28.3626 44.047L28.1659 44.1117L27.9683 44.1745L27.77 44.2354L27.5711 44.2944L27.3715 44.3514L27.1711 44.4065L26.9701 44.4598L26.7684 44.5109L26.5663 44.5602L26.3635 44.6076L26.16 44.6528L25.9561 44.6962L25.7516 44.7376L25.5466 44.7771L25.3411 44.8145L25.1352 44.8498L24.9287 44.8832L24.7219 44.9147L24.5146 44.944L24.307 44.9713L24.099 44.9967L23.8905 45.0199L23.6818 45.0412L23.4728 45.0605L23.2636 45.0776L23.054 45.0928L22.8442 45.1059L22.6341 45.1169L22.4239 45.1259L22.2136 45.1328L22.0029 45.1376L21.7922 45.1404L21.5813 45.1412L21.3704 45.1398L21.1594 45.1364L20.9483 45.131L20.7372 45.1233L20.5261 45.1137L20.315 45.1021L20.1039 45.0883L19.8928 45.0724L19.6819 45.0545L19.471 45.0344L19.2603 45.0124L19.0497 44.9883L18.8392 44.962L18.6289 44.9337L18.4189 44.9033L18.209 44.8708L17.9994 44.8363L17.7901 44.7998L17.581 44.761L17.3723 44.7203L17.1638 44.6775L16.9558 44.6326L16.748 44.5856L16.5408 44.5367L16.3339 44.4857L16.1274 44.4325L15.9214 44.3774L15.7159 44.3203L15.5109 44.2611L15.3063 44.1998L15.1024 44.1365L14.899 44.0712L14.6962 44.0039L14.4939 43.9345L14.2923 43.8631L14.0914 43.7898L13.8911 43.7144L13.6915 43.637L13.4927 43.5576L13.2945 43.4763L13.0972 43.3929L12.9005 43.3077L12.7047 43.2204L12.5096 43.1312L12.3155 43.04L12.1222 42.9469L11.9298 42.8518L11.7381 42.7548L11.5475 42.6559L11.3579 42.5551L11.169 42.4525L10.9812 42.3478L10.7945 42.2413L10.6087 42.133L10.4239 42.0227L10.2403 41.9107L10.0576 41.7966L9.87606 41.681L9.69572 41.5633L9.51638 41.4439L9.33825 41.3226L9.16135 41.1996L8.98555 41.0748L8.81097 40.9482L8.63763 40.8199L8.46553 40.6897L8.2947 40.5578L8.12514 40.4243L7.95688 40.2889L7.78995 40.152L7.62434 40.0133L7.46009 39.8729L7.2972 39.7309L7.13572 39.5871L6.97564 39.4417L6.81699 39.2948L6.65976 39.1461L6.50401 38.996L6.34973 38.8441L6.19693 38.6908L6.04565 38.5359L5.8959 38.3794L5.74769 38.2214L5.60104 38.0619L5.45597 37.9008L5.31248 37.7383L5.1706 37.5743L5.03035 37.4088L4.89173 37.242L4.75478 37.0736L4.61949 36.9039L4.48589 36.7327L4.35398 36.5603L4.22379 36.3863L4.09533 36.2111L3.96861 36.0345L3.84365 35.8566L3.72047 35.6775L3.59907 35.497L3.47947 35.3153L3.36169 35.1324L3.24573 34.9482L3.13161 34.7627L3.01936 34.5762L2.90896 34.3883L2.80046 34.1995L2.69384 34.0094L2.58912 33.8182L2.48633 33.6258L2.38545 33.4324L2.28654 33.238L2.18956 33.0425L2.09456 32.846L2.00154 32.6484L1.91049 32.4499L1.82145 32.2503L1.73442 32.0499L1.64941 31.8484L1.56643 31.6461L1.48548 31.4429L1.40659 31.2387L1.32978 31.0338L1.25502 30.828L1.18234 30.6214L1.11174 30.4141L1.04325 30.2059L0.976868 29.9969L0.912592 29.7873L0.850453 29.5769L0.790439 29.3658L0.732562 29.154L0.676833 28.9417L0.623262 28.7287L0.571851 28.515L0.52262 28.3008L0.475559 28.0859L0.430679 27.8706L0.387991 27.6547L0.347494 27.4384L0.309201 27.2216L0.273122 27.0042L0.239246 26.7865L0.207596 26.5683L0.17817 26.3496L0.150981 26.1307L0.126016 25.9114L0.103289 25.6917L0.0828079 25.4719L0.0645747 25.2515L0.0485888 25.031L0.0348613 24.8103L0.0233922 24.5893L0.0141814 24.3681L0.00722914 24.1468L0.00254626 23.9253L0.000143849 23.7037L0 23.4819ZM21.4527 7.24325L21.4022 2.98085L21.3543 2.98548L21.1342 3.00891L20.9146 3.03446L20.6952 3.06218L20.4767 3.09196L20.2584 3.12391L20.0403 3.15799L19.8229 3.19417L19.6057 3.23251L19.3896 3.27284L19.1731 3.31543L18.9583 3.35993L18.743 3.40668L18.5289 3.45542L18.3151 3.50632L18.1022 3.55917L17.8898 3.61415L17.6781 3.67117L17.4669 3.73025L17.2568 3.79132L17.047 3.85449L16.8383 3.91962L16.6302 3.98681L16.4232 4.05587L16.2165 4.12711L16.0109 4.20026L15.8063 4.27534L15.6023 4.35246L15.3994 4.43148L15.1976 4.51239L14.9963 4.59539L14.796 4.68026L14.5968 4.76708L14.3986 4.85572L14.2014 4.94629L14.0054 5.03869L13.81 5.13312L13.616 5.22928L13.4231 5.32731L13.2312 5.42719L13.0405 5.52891L12.8511 5.63238L12.6624 5.73776L12.475 5.84497L12.2892 5.9537L12.104 6.06456L11.9206 6.1769L11.7384 6.29098L11.557 6.40693L11.3771 6.52458L11.1986 6.64394L11.0216 6.76471L10.8454 6.88762L10.6709 7.01184L10.4978 7.13778L10.3259 7.26544L10.1555 7.39463L9.98666 7.52536L9.81883 7.65793L9.65288 7.79176L9.48815 7.92735L9.32497 8.06442L9.16323 8.20308L9.00315 8.34307L8.84426 8.48482L8.68719 8.62784L8.53146 8.77251L8.37754 8.9184L8.22502 9.06587L8.07419 9.21467L7.92491 9.36495L7.77707 9.51677L7.63117 9.66963L7.48691 9.82381L7.34393 9.9798L7.20294 10.1368L7.06367 10.2949L6.92583 10.4546L6.79 10.6154L6.65566 10.7775L6.52314 10.9408L6.39235 11.1055L6.26327 11.2712L6.13609 11.438L6.01057 11.6061L5.88678 11.7754L5.76498 11.9456L5.64481 12.1172L5.52655 12.2897L5.41013 12.4633L5.29544 12.638L5.1827 12.8136L5.07181 12.9902L4.96277 13.1679L4.85569 13.3465L4.75036 13.5261L4.64693 13.7068L4.54554 13.8882L4.44595 14.0705L4.34828 14.2538L4.25259 14.4379L4.15877 14.6229L4.06698 14.8086L3.97709 14.9951L3.88919 15.1824L3.80321 15.3706L3.71926 15.5594L3.63722 15.749L3.55718 15.9393L3.47918 16.1302L3.40314 16.3218L3.32909 16.5141L3.25707 16.7069L3.18705 16.9005L3.1191 17.0944L3.05311 17.2891L2.98917 17.4843L2.92727 17.68L2.86742 17.8761L2.80957 18.0729L2.75381 18.27L2.70008 18.4676L2.64839 18.6655L2.59876 18.864L2.5512 19.0628L2.5057 19.2619L2.46226 19.4614L2.42089 19.6612L2.38159 19.8613L2.34435 20.0617L2.30919 20.2623L2.2761 20.4632L2.24509 20.6642L2.21615 20.8655L2.1893 21.067L2.16451 21.2686L2.1418 21.4703L2.12118 21.6722L2.10263 21.8741L2.08616 22.0761L2.07177 22.2782L2.05946 22.4804L2.04922 22.6824L2.04106 22.8845L2.03497 23.0866L2.03096 23.2886L2.02902 23.4905L2.02915 23.6925L2.03134 23.8942L2.0356 24.0959L2.04192 24.2974L2.0503 24.4986L2.06075 24.6998L2.07324 24.9006L2.08779 25.1013L2.10438 25.3017L2.12303 25.5019L2.1437 25.7018L2.16641 25.9013L2.19116 26.1005L2.21792 26.2994L2.24672 26.4979L2.27754 26.696L2.31035 26.8936L2.34519 27.0909L2.38202 27.2878L2.42085 27.484L2.46166 27.68L2.50446 27.8753L2.54924 28.0701L2.596 28.2644L2.64471 28.4581L2.69539 28.6513L2.74799 28.8437L2.80257 29.0357L2.85908 29.227L2.91751 29.4176L2.97786 29.6076L3.04011 29.7968L3.10428 29.9853L3.17035 30.1731L3.2383 30.3602L3.30811 30.5464L3.37984 30.7319L3.45338 30.9166L3.52878 31.1005L3.60604 31.2835L3.68512 31.4656L3.76603 31.6469L3.84875 31.8274L3.93328 32.0068L4.01958 32.1854L4.10768 32.363L4.19754 32.5396L4.28917 32.7153L4.38254 32.89L4.47766 33.0637L4.5745 33.2363L4.67305 33.4079L4.7733 33.5785L4.87526 33.7479L4.97885 33.9163L5.08417 34.0835L5.1911 34.2496L5.29971 34.4147L5.40994 34.5785L5.52176 34.7411L5.63519 34.9027L5.75025 35.063L5.86684 35.222L5.98504 35.3799L6.10474 35.5364L6.22604 35.6918L6.34879 35.8458L6.47309 35.9985L6.59892 36.1501L6.72615 36.3002L6.8549 36.449L6.98508 36.5965L7.11674 36.7426L7.24979 36.8873L7.38422 37.0306L7.52008 37.1726L7.6573 37.3132L7.79592 37.4523L7.93586 37.5899L8.07716 37.7262L8.21973 37.8609L8.36361 37.9943L8.50882 38.1262L8.65528 38.2565L8.8029 38.3852L8.95189 38.5126L9.10212 38.6383L9.25334 38.7625L9.40601 38.8853L9.55966 39.0063L9.71454 39.1259L9.87053 39.2439L10.0277 39.3602L10.1859 39.4749L10.3452 39.5881L10.5055 39.6995L10.6671 39.8095L10.8295 39.9176L10.9931 40.0242L11.1575 40.1292L11.323 40.2324L11.4895 40.334L11.6568 40.4338L11.8251 40.532L11.9943 40.6285L12.1645 40.7232L12.3354 40.8162L12.5073 40.9076L12.6799 40.9971L12.8534 41.085L13.0277 41.171L13.2029 41.2554L13.3787 41.338L13.5553 41.4188L13.7325 41.4977L13.9106 41.575L14.0893 41.6504L14.2688 41.7241L14.4488 41.796L14.6294 41.8659L14.8108 41.9342L14.9926 42.0007L15.175 42.0652L15.3581 42.128L15.5417 42.189L15.7258 42.2481L15.9102 42.3053L16.0954 42.3608L16.2808 42.4144L16.4668 42.4661L16.6532 42.516L16.84 42.564L17.0272 42.6102L17.2146 42.6545L17.4026 42.697L17.5908 42.7375L17.7792 42.7763L17.9681 42.8131L18.1572 42.8481L18.3465 42.8812L18.536 42.9124L18.7258 42.9418L18.9157 42.9692L19.1059 42.9948L19.2961 43.0186L19.4865 43.0404L19.6771 43.0603L19.8677 43.0785L20.0584 43.0947L20.2492 43.1091L20.4399 43.1214L20.6308 43.1321L20.8215 43.1407L21.0123 43.1476L21.203 43.1526L21.3938 43.1556L21.5843 43.1568L21.7748 43.1561L21.9652 43.1536L22.1554 43.1492L22.3455 43.1429L22.5355 43.1348L22.7252 43.1249L22.9147 43.113L23.104 43.0994L23.2931 43.0839L23.4818 43.0665L23.6702 43.0473L23.8584 43.0262L24.0462 43.0034L24.2337 42.9788L24.4208 42.9522L24.6076 42.9238L24.7939 42.8937L24.9799 42.8617L25.1654 42.828L25.3504 42.7924L25.535 42.7551L25.7191 42.7159L25.9026 42.6751L26.0856 42.6324L26.2682 42.5878L26.45 42.5417L26.6314 42.4936L26.8121 42.4439L26.9923 42.3925L27.1717 42.3392L27.3506 42.2843L27.5288 42.2277L27.7063 42.1693L27.8831 42.1093L28.059 42.0475L28.2345 41.984L28.4091 41.9189L28.5829 41.852L28.7559 41.7836L28.9281 41.7135L29.0995 41.6417L29.2701 41.5682L29.4398 41.4932L29.6085 41.4166L29.7765 41.3383L29.9436 41.2584L30.1096 41.177L30.2749 41.0939L30.4391 41.0093L30.6024 40.9232L30.7648 40.8354L30.926 40.7461L31.0863 40.6554L31.2455 40.5632L31.4039 40.4693L31.5609 40.3741L31.7172 40.2772L31.8721 40.179L32.026 40.0793L32.1788 39.9781L32.3306 39.8753L32.481 39.7715L32.6303 39.666L32.7785 39.5592L32.9256 39.451L33.0715 39.3413L33.2159 39.2305L33.3595 39.118L33.5016 39.0044L33.6424 38.8895L33.7822 38.7731L33.9206 38.6555L34.0575 38.5367L34.1934 38.4165L34.3278 38.2951L34.4609 38.1725L34.5928 38.0486L34.7231 37.9236L34.8523 37.7972L34.98 37.6696L35.1064 37.541L35.2313 37.4111L35.3548 37.2803L35.4768 37.1483L35.5977 37.0148L35.7168 36.8806L35.8347 36.7451L35.9509 36.6087L36.0658 36.4711L36.1792 36.3326L36.291 36.193L36.4015 36.0523L36.5103 35.9109L36.6178 35.7682L36.7235 35.6247L36.8279 35.4801L36.9309 35.3345L37.0319 35.1884L37.1316 35.041L37.2296 34.893L37.3261 34.7439L37.4212 34.5939L37.5144 34.4433L37.6061 34.2919L37.6963 34.1392L37.7847 33.9863L37.8716 33.8324L37.9569 33.6776L38.0404 33.5224L38.1224 33.3661L38.2028 33.2091L38.2813 33.052L38.3583 32.8936L38.4337 32.7346L38.5073 32.5752L38.5793 32.4151L38.6496 32.2544L38.7181 32.0932L38.7851 31.9311L38.8503 31.7686L38.9137 31.6059L38.9755 31.4421L39.0355 31.2783L39.094 31.1136L39.1507 30.9487L39.2056 30.7832L39.2586 30.6177L39.3102 30.451L39.3598 30.2845L39.4077 30.1174L39.454 29.9501L39.4985 29.7822L39.5411 29.6142L39.5822 29.4457L39.6214 29.2769L39.6589 29.108L39.6947 28.9386L39.7285 28.7693L39.7608 28.5993L39.7912 28.4297L39.8199 28.2594L39.8468 28.089L39.8719 27.9187L39.8954 27.748L39.917 27.5775L39.9369 27.4062L39.9549 27.2356L39.9713 27.0645L39.9858 26.8936L39.9987 26.7223L40.0097 26.5516L40.019 26.3803L40.0266 26.2089L40.0323 26.038L40.0364 25.8674L40.0386 25.6961L40.0392 25.5252L40.038 25.3545L40.035 25.1839L40.0302 25.0133L40.0237 24.8434L40.0155 24.6728L40.0055 24.503L39.9938 24.3331L39.9804 24.1639L39.9652 23.9943L39.9484 23.8254L39.9298 23.6565L39.9094 23.4881L39.8874 23.3198L39.8637 23.1521L39.8381 22.9843L39.811 22.8172L39.7822 22.6507L39.7517 22.4841L39.7194 22.3181L39.6855 22.1527L39.6498 21.9872L39.6127 21.8229L39.5737 21.6584L39.5333 21.495L39.4909 21.3313L39.447 21.1689L39.4015 21.0068L39.3544 20.8449L39.3056 20.684L39.2553 20.5237L39.2031 20.3636L39.1497 20.2046L39.0943 20.0457L39.0376 19.8879L38.9792 19.7303L38.9193 19.5739L38.8576 19.4177L38.7945 19.2624L38.73 19.108L38.6639 18.9544L38.5959 18.8009L38.5269 18.6489L38.456 18.4971L38.3838 18.3466L38.3101 18.1967L38.2347 18.0474L38.1581 17.8992L38.0798 17.7518L38 17.605L37.9192 17.4596L37.8365 17.3146L37.7526 17.1708L37.667 17.0277L37.5804 16.886L37.492 16.7446L37.4025 16.6045L37.3114 16.4652L37.2191 16.327L37.1255 16.1901L37.0303 16.0537L36.9339 15.9185L36.8362 15.7843L36.7372 15.6514L36.6369 15.5192L36.5352 15.3883L36.4324 15.2584L36.3282 15.1296L36.2228 15.002L36.1161 14.8753L36.0082 14.7499L35.8991 14.6256L35.789 14.5025L35.6775 14.3805L35.5646 14.2595L35.4511 14.1401L35.3357 14.0214L35.2198 13.9044L35.1026 13.7883L34.9844 13.6736L34.8646 13.5598L34.7443 13.4478L34.6226 13.3366L34.4998 13.2268L34.3764 13.1184L34.2517 13.0113L34.1256 12.9051L33.9989 12.8005L33.8712 12.6972L33.7425 12.5952L33.6127 12.4945L33.4823 12.3954L33.3504 12.2971L33.2182 12.2007L33.0848 12.1055L32.9504 12.0115L32.8154 11.919L32.679 11.8277L32.5426 11.7382L32.4047 11.6498L32.2663 11.5629L32.1268 11.4773L31.9868 11.3932L31.846 11.3106L31.7046 11.2296L31.5619 11.1495L31.4192 11.0714L31.2753 10.9944L31.1308 10.919L30.9858 10.8452L30.8399 10.7727L30.6934 10.7016L30.5464 10.6322L30.3986 10.5641L30.2505 10.4977L30.1016 10.4326L29.9474 10.367L29.8023 10.3072L29.6514 10.2465L29.5008 10.1877L29.3489 10.13L29.197 10.0742L29.0444 10.0198L28.8916 9.96695L28.738 9.91547L28.5843 9.86577L28.43 9.8175L28.2754 9.77078L28.1206 9.72573L27.9652 9.68206L27.8092 9.63991L27.6534 9.59947L27.4973 9.56056L27.3402 9.52309L27.1837 9.48734L27.0264 9.45302L26.8691 9.42037L26.7112 9.38919L26.5536 9.35965L26.3955 9.33165L26.2375 9.30526L26.0787 9.28036L25.9204 9.2571L25.7618 9.23538L25.6029 9.21522L25.4441 9.19664L25.2852 9.17966L25.1262 9.16423L24.9671 9.15036L24.8079 9.13807L24.6486 9.12733L24.4898 9.11818L24.3308 9.1106L24.1713 9.10457L24.0126 9.10012L23.8537 9.09722L23.6948 9.09589L23.5357 9.09611L23.5038 9.09647L23.554 13.3279L23.6442 13.3274L23.7603 13.3281L23.8765 13.3299L23.9927 13.3329L24.1091 13.3369L24.2254 13.3423L24.3418 13.3487L24.4582 13.3562L24.5747 13.365L24.6912 13.3748L24.8076 13.3859L24.924 13.3981L25.0404 13.4115L25.1568 13.426L25.273 13.4416L25.3893 13.4585L25.5054 13.4764L25.6214 13.4956L25.7374 13.516L25.8532 13.5374L25.9689 13.5601L26.0845 13.5839L26.2 13.6088L26.3152 13.635L26.4302 13.6623L26.5451 13.6908L26.6597 13.7203L26.7742 13.7511L26.8884 13.783L27.0025 13.8161L27.1163 13.8503L27.2297 13.8856L27.3429 13.9221L27.4558 13.9598L27.5685 13.9986L27.6808 14.0386L27.7928 14.0797L27.9044 14.1219L28.0158 14.1652L28.1267 14.2098L28.2373 14.2554L28.3474 14.3022L28.4573 14.35L28.5666 14.3991L28.6756 14.4491L28.7841 14.5004L28.8922 14.5527L28.9998 14.6062L29.107 14.6608L29.2137 14.7165L29.3199 14.7731L29.4256 14.831L29.5308 14.8899L29.6354 14.9499L29.7396 15.011L29.8432 15.0733L29.9461 15.1365L30.0485 15.2008L30.1504 15.2662L30.2517 15.3326L30.3523 15.4001L30.4524 15.4686L30.5518 15.5382L30.6506 15.6087L30.7486 15.6804L30.8461 15.7531L30.9429 15.8267L31.0389 15.9014L31.1343 15.9772L31.229 16.0538L31.323 16.1315L31.4162 16.2102L31.5087 16.2898L31.6005 16.3704L31.6915 16.452L31.7817 16.5346L31.8711 16.618L31.9598 16.7025L32.0476 16.7879L32.1346 16.8742L32.2208 16.9615L32.3062 17.0497L32.3907 17.1387L32.4743 17.2287L32.5571 17.3196L32.6391 17.4114L32.7201 17.5039L32.8002 17.5975L32.8795 17.6918L32.9579 17.787L33.0353 17.8831L33.1118 17.9799L33.1873 18.0777L33.2619 18.1762L33.3355 18.2756L33.4081 18.3757L33.4799 18.4767L33.5505 18.5784L33.6202 18.6809L33.6889 18.7842L33.7565 18.8882L33.8232 18.993L33.8888 19.0985L33.9535 19.2047L34.017 19.3116L34.0794 19.4193L34.1409 19.5276L34.2012 19.6367L34.2604 19.7464L34.3187 19.8567L34.3758 19.9678L34.4317 20.0795L34.4866 20.1918L34.5404 20.3048L34.593 20.4182L34.6445 20.5325L34.6949 20.6472L34.7441 20.7625L34.7922 20.8784L34.8391 20.9949L34.8848 21.1119L34.9293 21.2294L34.9727 21.3475L35.0149 21.4661L35.056 21.5852L35.0958 21.7048L35.1344 21.8249L35.1718 21.9453L35.208 22.0663L35.243 22.1878L35.2767 22.3097L35.3092 22.432L35.3405 22.5546L35.3705 22.6777L35.3993 22.8012L35.4268 22.9251L35.4531 23.0493L35.4781 23.1738L35.5018 23.2987L35.5243 23.424L35.5455 23.5496L35.5654 23.6753L35.584 23.8015L35.6014 23.9278L35.6175 24.0545L35.6323 24.1815L35.6457 24.3087L35.6579 24.436L35.6688 24.5636L35.6784 24.6914L35.6867 24.8194L35.6935 24.9474L35.6992 25.0757L35.7035 25.2043L35.7065 25.3328L35.7081 25.4616L35.7085 25.5904L35.7075 25.7193L35.7052 25.8482L35.7015 25.9773L35.6965 26.1065L35.6902 26.2356L35.6826 26.3648L35.6736 26.4941L35.6633 26.6233L35.6516 26.7525L35.6386 26.8817L35.6242 27.0108L35.6086 27.14L35.5916 27.2689L35.5732 27.3979L35.5535 27.5268L35.5325 27.6555L35.5101 27.7842L35.4863 27.9127L35.4613 28.0411L35.4348 28.1693L35.407 28.2974L35.378 28.4253L35.3476 28.5529L35.3158 28.6803L35.2827 28.8076L35.2483 28.9346L35.2125 29.0614L35.1754 29.1878L35.137 29.314L35.0973 29.44L35.0561 29.5656L35.0137 29.6908L34.97 29.8158L34.925 29.9405L34.8786 30.0647L34.8309 30.1886L34.782 30.3121L34.7317 30.4352L34.6801 30.558L34.6272 30.6802L34.5731 30.8021L34.5176 30.9236L34.4608 31.0444L34.4028 31.1649L34.3435 31.2849L34.2828 31.4044L34.2209 31.5234L34.1578 31.6417L34.0934 31.7596L34.0277 31.877L33.9609 31.9938L33.8927 32.1099L33.8233 32.2256L33.7526 32.3405L33.6808 32.455L33.6076 32.5686L33.5333 32.6818L33.4577 32.7942L33.381 32.906L33.3031 33.0171L33.2239 33.1275L33.1435 33.2372L33.0621 33.3462L32.9794 33.4545L32.8954 33.562L32.8104 33.6687L32.7242 33.7748L32.6368 33.88L32.5484 33.9845L32.4587 34.0881L32.3679 34.1909L32.2761 34.2929L32.1831 34.3941L32.089 34.4944L31.9939 34.5939L31.8975 34.6924L31.8002 34.7902L31.7017 34.8869L31.6023 34.9829L31.5017 35.0779L31.4001 35.1719L31.2975 35.2651L31.1938 35.3572L31.0892 35.4484L30.9834 35.5388L30.8768 35.628L30.7691 35.7163L30.6605 35.8036L30.5508 35.8898L30.4402 35.9751L30.3287 36.0593L30.2163 36.1424L30.1028 36.2246L29.9885 36.3057L29.8733 36.3857L29.7572 36.4646L29.64 36.5424L29.5221 36.6191L29.4033 36.6948L29.2838 36.7693L29.1632 36.8426L29.042 36.9148L28.9198 36.9859L28.7969 37.0558L28.6731 37.1245L28.5486 37.1922L28.4233 37.2586L28.2972 37.3238L28.1703 37.3878L28.0428 37.4506L27.9145 37.5122L27.7854 37.5725L27.6556 37.6317L27.5252 37.6896L27.3941 37.7462L27.2623 37.8016L27.1299 37.8557L26.9968 37.9086L26.8631 37.9602L26.7288 38.0106L26.5939 38.0597L26.4583 38.1074L26.3222 38.1538L26.1856 38.1989L26.0483 38.2426L25.9106 38.2852L25.7723 38.3263L25.6335 38.3661L25.4942 38.4046L25.3544 38.4417L25.2141 38.4775L25.0734 38.5119L24.9323 38.545L24.7906 38.5766L24.6486 38.607L24.5062 38.6359L24.3634 38.6634L24.2202 38.6897L24.0766 38.7145L23.9327 38.7378L23.7886 38.7598L23.644 38.7803L23.4991 38.7995L23.3539 38.8173L23.2086 38.8336L23.0629 38.8485L22.917 38.862L22.7709 38.8741L22.6245 38.8847L22.4779 38.8939L22.3311 38.9017L22.1842 38.908L22.0371 38.9129L21.8899 38.9163L21.7425 38.9183L21.5949 38.9188L21.4474 38.918L21.2998 38.9155L21.152 38.9118L21.0042 38.9064L20.8564 38.8997L20.7085 38.8915L20.5607 38.8819L20.4128 38.8708L20.265 38.8582L20.1172 38.8441L19.9694 38.8286L19.8218 38.8117L19.6742 38.7933L19.5266 38.7734L19.3793 38.752L19.232 38.7292L19.0849 38.705L18.9379 38.6792L18.7911 38.652L18.6445 38.6234L18.4982 38.5931L18.3519 38.5616L18.206 38.5286L18.0603 38.4941L17.9149 38.4581L17.7697 38.4207L17.6248 38.3818L17.4802 38.3415L17.3361 38.2998L17.1922 38.2566L17.0486 38.212L16.9054 38.1658L16.7627 38.1183L16.6203 38.0694L16.4783 38.019L16.3369 37.9672L16.1957 37.914L16.0551 37.8593L15.915 37.8033L15.7752 37.7457L15.6361 37.6868L15.4975 37.6266L15.3594 37.5648L15.2218 37.5017L15.0849 37.4373L14.9485 37.3714L14.8127 37.3041L14.6774 37.2354L14.5429 37.1655L14.4089 37.0941L14.2756 37.0213L14.143 36.9473L14.011 36.8718L13.8797 36.7951L13.7492 36.7169L13.6194 36.6374L13.4903 36.5567L13.362 36.4746L13.2344 36.3912L13.1077 36.3064L12.9817 36.2204L12.8565 36.1331L12.7322 36.0446L12.6086 35.9547L12.486 35.8636L12.3641 35.7711L12.2432 35.6775L12.1232 35.5826L12.004 35.4864L11.8858 35.3891L11.7685 35.2905L11.6521 35.1907L11.5368 35.0896L11.4223 34.9875L11.3088 34.8841L11.1965 34.7795L11.085 34.6738L10.9745 34.5669L10.8651 34.4588L10.7568 34.3497L10.6496 34.2393L10.5433 34.1279L10.4381 34.0153L10.3342 33.9018L10.2312 33.787L10.1294 33.6712L10.0287 33.5543L9.92909 33.4364L9.83078 33.3173L9.73347 33.1972L9.63749 33.0762L9.54262 32.9541L9.44896 32.831L9.35652 32.7069L9.26519 32.5819L9.17518 32.4558L9.08651 32.3289L8.99894 32.2009L8.9127 32.072L8.82775 31.9423L8.74406 31.8115L8.66166 31.6799L8.58058 31.5474L8.50081 31.414L8.42236 31.2798L8.34525 31.1446L8.26947 31.0088L8.19505 30.872L8.122 30.7345L8.0503 30.5961L7.97999 30.4569L7.91108 30.317L7.84356 30.1763L7.77745 30.0349L7.71275 29.8927L7.64947 29.7499L7.58763 29.6063L7.52723 29.4619L7.46827 29.317L7.41078 29.1714L7.35474 29.0251L7.30017 28.8782L7.24708 28.7307L7.19548 28.5825L7.14537 28.4338L7.09676 28.2844L7.04966 28.1345L7.00407 27.9842L6.96 27.8332L6.91745 27.6818L6.87643 27.5298L6.83697 27.3772L6.79904 27.2243L6.76265 27.0709L6.72783 26.917L6.69457 26.7627L6.66287 26.608L6.63275 26.4529L6.6042 26.2974L6.57723 26.1415L6.55186 25.9853L6.52807 25.8288L6.50587 25.6719L6.48528 25.5147L6.46629 25.3572L6.44891 25.1994L6.43314 25.0414L6.41898 24.8831L6.40644 24.7246L6.39553 24.5659L6.38623 24.407L6.37857 24.2479L6.37253 24.0887L6.36814 23.9293L6.36537 23.7697L6.36424 23.61L6.36476 23.4503L6.36691 23.2904L6.37072 23.1305L6.37615 22.9706L6.38325 22.8105L6.392 22.6505L6.40238 22.4904L6.41443 22.3305L6.42811 22.1704L6.44345 22.0105L6.46046 21.8506L6.4791 21.6908L6.4994 21.5311L6.52136 21.3714L6.54496 21.2119L6.57022 21.0526L6.59712 20.8934L6.62569 20.7344L6.6559 20.5756L6.68776 20.4169L6.72126 20.2586L6.75642 20.1004L6.79322 19.9425L6.83165 19.7849L6.87173 19.6276L6.91345 19.4706L6.95681 19.3138L7.0018 19.1575L7.04843 19.0015L7.09667 18.8459L7.14656 18.6906L7.19806 18.5358L7.25117 18.3814L7.30592 18.2274L7.36227 18.0738L7.42022 17.9207L7.47978 17.7682L7.54095 17.6161L7.6037 17.4645L7.66806 17.3135L7.73399 17.1629L7.80153 17.013L7.87062 16.8637L7.94129 16.7149L8.01353 16.5668L8.08733 16.4193L8.16269 16.2724L8.2396 16.1263L8.31804 15.9807L8.39804 15.8359L8.47956 15.6918L8.5626 15.5483L8.64717 15.4057L8.73326 15.2638L8.82084 15.1226L8.90993 14.9823L9.00049 14.8427L9.0926 14.7039L9.18603 14.566L9.28113 14.4289L9.37755 14.2927L9.47542 14.1573L9.57483 14.0229L9.67557 13.8893L9.77787 13.7566L9.88149 13.6249L9.98655 13.4941L10.0929 13.3644L10.2008 13.2355L10.31 13.1077L10.4206 12.9808L10.5325 12.855L10.6459 12.7303L10.7605 12.6065L10.8765 12.4838L10.9939 12.3622L11.1124 12.2417L11.2323 12.1223L11.3535 12.0039L11.4761 11.8868L11.5999 11.7707L11.7248 11.6559L11.8512 11.5421L11.9787 11.4296L12.1073 11.3182L12.2373 11.2081L12.3685 11.0991L12.5008 10.9914L12.6343 10.8849L12.769 10.7798L12.9049 10.6758L13.0418 10.5732L13.18 10.4718L13.3191 10.3717L13.4594 10.2729L13.6009 10.1755L13.7433 10.0794L13.8868 9.98478L14.0315 9.89134L14.1771 9.79934L14.3238 9.70872L14.4715 9.61948L14.6201 9.53165L14.7697 9.44523L14.9204 9.36023L15.0719 9.27666L15.2244 9.19455L15.3778 9.11389L15.5321 9.03469L15.6873 8.95696L15.8434 8.88072L16.0004 8.80597L16.1583 8.73273L16.3169 8.66099L16.4765 8.59077L16.6368 8.52209L16.7978 8.45494L16.9597 8.38934L17.1222 8.3253L17.2856 8.26281L17.4497 8.2019L17.6145 8.14258L17.78 8.08483L17.9462 8.02868L18.113 7.97414L18.2804 7.92121L18.4486 7.86989L18.6173 7.82019L18.7867 7.77213L18.9565 7.7257L19.127 7.68092L19.298 7.63779L19.4696 7.59632L19.6416 7.55652L19.8142 7.51837L19.9873 7.48191L20.1607 7.44712L20.3348 7.41403L20.5091 7.38263L20.6839 7.35291L20.8592 7.3249L21.0348 7.2986L21.2107 7.27401L21.3869 7.25113L21.4527 7.24325ZM21.5271 13.5193L21.4764 9.24138L21.3319 9.26157L21.1766 9.28485L21.0211 9.30968L20.8667 9.33593L20.7121 9.36378L20.5582 9.39307L20.4046 9.42385L20.2516 9.45608L20.099 9.48983L19.9466 9.52508L19.7947 9.56178L19.6435 9.59993L19.4924 9.63961L19.3473 9.67923L19.1926 9.72318L19.0433 9.76713L18.8946 9.81252L18.7467 9.85924L18.5991 9.9075L18.4521 9.95721L18.3058 10.0082L18.1602 10.0606L18.0152 10.1145L17.8708 10.1697L17.727 10.2263L17.5843 10.2842L17.4416 10.3437L17.3 10.4044L17.1591 10.4663L17.0191 10.5297L16.8795 10.5944L16.7407 10.6605L16.6031 10.7277L16.4657 10.7965L16.3298 10.8663L16.194 10.9377L16.0596 11.01L15.9255 11.0841L15.7926 11.1589L15.6607 11.2352L15.5294 11.3128L15.3991 11.3915L15.2694 11.4717L15.1411 11.5527L15.0134 11.6352L14.8868 11.7188L14.7612 11.8035L14.6364 11.8895L14.5124 11.9767L14.3899 12.0647L14.268 12.1543L14.1471 12.2448L14.0273 12.3365L13.9086 12.4292L13.7907 12.5231L13.6742 12.618L13.5586 12.714L13.4439 12.8113L13.3306 12.9093L13.2182 13.0086L13.1068 13.1089L12.9966 13.2101L12.8877 13.3123L12.7795 13.4157L12.6729 13.5197L12.5673 13.6249L12.4627 13.7312L12.3594 13.8382L12.2572 13.9464L12.1563 14.0553L12.0565 14.1651L11.9579 14.276L11.8604 14.3878L11.7645 14.5001L11.6695 14.6136L11.5757 14.728L11.4833 14.843L11.3922 14.9588L11.3021 15.0757L11.2134 15.1932L11.1259 15.3115L11.0398 15.4306L10.9549 15.5505L10.8714 15.671L10.7892 15.7923L10.7081 15.9144L10.6284 16.0372L10.5501 16.1605L10.4732 16.2846L10.3975 16.4096L10.3231 16.5349L10.2501 16.661L10.1784 16.7878L10.1082 16.9148L10.0392 17.0428L9.97149 17.1715L9.9054 17.3003L9.84053 17.4301L9.77709 17.5603L9.71499 17.6908L9.65432 17.8221L9.59498 17.9537L9.53708 18.0859L9.48051 18.2185L9.42549 18.3516L9.3718 18.4851L9.31943 18.6192L9.26851 18.7536L9.21913 18.8883L9.17098 19.0236L9.12448 19.159L9.0792 19.2949L9.03547 19.4312L8.99307 19.5678L8.95222 19.7046L8.9127 19.8418L8.87473 19.9792L8.8381 20.117L8.80294 20.255L8.76923 20.3932L8.73697 20.5317L8.70613 20.6703L8.67674 20.8093L8.64883 20.9483L8.62234 21.0875L8.5973 21.2269L8.57373 21.3664L8.55158 21.5061L8.53091 21.6457L8.51166 21.7857L8.49388 21.9256L8.47754 22.0657L8.46265 22.2057L8.44921 22.3459L8.43722 22.486L8.42668 22.626L8.41758 22.7663L8.40992 22.9065L8.40371 23.0465L8.39895 23.1866L8.39562 23.3265L8.39373 23.4664L8.39328 23.6063L8.39427 23.7461L8.39669 23.8857L8.40054 24.0251L8.40581 24.1644L8.41252 24.3037L8.42065 24.4427L8.43019 24.5814L8.44116 24.7202L8.45354 24.8585L8.46733 24.9967L8.48253 25.1346L8.49913 25.2724L8.51714 25.4099L8.53653 25.5469L8.55734 25.6839L8.57951 25.8202L8.60308 25.9565L8.62803 26.0925L8.65435 26.2279L8.68205 26.3631L8.71109 26.4979L8.74153 26.6324L8.77328 26.7662L8.80642 26.8998L8.8409 27.033L8.87672 27.1658L8.91381 27.2979L8.95233 27.4298L8.99208 27.5611L9.03326 27.6919L9.07566 27.8224L9.11939 27.9521L9.16445 28.0813L9.21072 28.21L9.25832 28.3382L9.30726 28.4659L9.35741 28.5929L9.40877 28.7193L9.46147 28.8452L9.51538 28.9704L9.57063 29.0949L9.62698 29.2189L9.68465 29.3421L9.74355 29.4648L9.80355 29.5868L9.86488 29.708L9.92732 29.8287L9.99098 29.9486L10.0558 30.0677L10.1218 30.1861L10.189 30.3038L10.2573 30.4207L10.3269 30.5369L10.3975 30.6523L10.4692 30.7669L10.5421 30.8807L10.6161 30.9939L10.6911 31.1059L10.7674 31.2174L10.8445 31.3279L10.9229 31.4376L11.0023 31.5464L11.0828 31.6543L11.1642 31.7614L11.2468 31.8677L11.3303 31.9729L11.4149 32.0773L11.5004 32.1808L11.587 32.2835L11.6746 32.385L11.7632 32.4858L11.8526 32.5855L11.9431 32.6843L12.0344 32.7821L12.1267 32.879L12.2199 32.9748L12.3141 33.0697L12.4091 33.1636L12.5051 33.2565L12.602 33.3483L12.6995 33.4391L12.7981 33.529L12.8974 33.6177L12.9976 33.7054L13.0987 33.7921L13.2006 33.8776L13.3032 33.9622L13.4066 34.0456L13.5108 34.1279L13.6157 34.2092L13.7214 34.2895L13.8279 34.3685L13.935 34.4464L14.0428 34.5233L14.1514 34.599L14.2607 34.6736L14.3707 34.7471L14.4813 34.8194L14.5926 34.8906L14.7045 34.9607L14.817 35.0295L14.9301 35.0973L15.0439 35.1638L15.1582 35.2291L15.2732 35.2933L15.3885 35.3563L15.5047 35.4182L15.6212 35.4789L15.7383 35.5382L15.8559 35.5966L15.9742 35.6536L16.0927 35.7095L16.2118 35.7641L16.3314 35.8175L16.4513 35.8697L16.5718 35.9206L16.6927 35.9704L16.814 36.0189L16.9355 36.0662L17.0577 36.1122L17.1801 36.1571L17.3029 36.2007L17.426 36.243L17.5495 36.2842L17.6733 36.3239L17.7974 36.3625L17.9218 36.3998L18.0465 36.4359L18.1714 36.4708L18.2966 36.5043L18.422 36.5368L18.5476 36.5678L18.6735 36.5976L18.7996 36.6261L18.9259 36.6535L19.0524 36.6795L19.1789 36.7042L19.3058 36.7276L19.4325 36.7499L19.5596 36.7709L19.6867 36.7905L19.8139 36.809L19.9412 36.8262L20.0685 36.8421L20.1959 36.8567L20.3234 36.8701L20.4509 36.8822L20.5784 36.893L20.706 36.9026L20.8335 36.911L20.9609 36.9179L21.0883 36.9238L21.2159 36.9284L21.3432 36.9317L21.4704 36.9337L21.5976 36.9344L21.7247 36.934L21.8517 36.9322L21.9785 36.9293L22.1052 36.9251L22.2318 36.9197L22.3581 36.913L22.4843 36.9051L22.6103 36.8959L22.7362 36.8855L22.8617 36.8739L22.9872 36.861L23.1124 36.847L23.2373 36.8317L23.3619 36.8152L23.4862 36.7976L23.6103 36.7787L23.7341 36.7585L23.8574 36.7373L23.9806 36.7147L24.1034 36.691L24.2259 36.6662L24.3481 36.6401L24.4696 36.6128L24.591 36.5845L24.7119 36.5548L24.8324 36.5242L24.9525 36.4923L25.0722 36.4592L25.1914 36.425L25.3102 36.3897L25.4285 36.3532L25.5462 36.3156L25.6637 36.2768L25.7805 36.237L25.8969 36.196L26.0126 36.154L26.1279 36.1108L26.2426 36.0665L26.3567 36.0211L26.4704 35.9746L26.5834 35.9271L26.6958 35.8785L26.8077 35.8289L26.9189 35.7782L27.0296 35.7264L27.1396 35.6736L27.2488 35.6199L27.3577 35.5649L27.4657 35.5091L27.5732 35.4521L27.6797 35.3943L27.7857 35.3354L27.8911 35.2755L27.9956 35.2146L28.0996 35.1527L28.2027 35.09L28.305 35.0262L28.4069 34.9614L28.5076 34.8959L28.6078 34.8293L28.7073 34.7616L28.8059 34.6932L28.9035 34.624L29.0007 34.5536L29.0968 34.4826L29.1922 34.4106L29.2869 34.3376L29.3803 34.264L29.4734 34.1893L29.5655 34.1138L29.6564 34.0376L29.747 33.9602L29.8363 33.8824L29.9248 33.8038L30.0127 33.724L30.0992 33.6438L30.1851 33.5627L30.2702 33.4808L30.3541 33.3982L30.4372 33.3147L30.5195 33.2306L30.6007 33.1456L30.6809 33.0601L30.7603 32.9737L30.8388 32.8867L30.916 32.7991L30.9926 32.7106L31.068 32.6216L31.1424 32.5319L31.216 32.4413L31.2884 32.3506L31.36 32.2588L31.4305 32.1666L31.5 32.0736L31.5684 31.9801L31.6357 31.8863L31.7023 31.7914L31.7676 31.6963L31.8319 31.6005L31.8953 31.5041L31.9573 31.4075L32.0187 31.31L32.0788 31.2121L32.1379 31.1137L32.1958 31.0149L32.2529 30.9154L32.3086 30.8158L32.3635 30.7153L32.4172 30.6147L32.4697 30.5136L32.5214 30.4118L32.5716 30.3101L32.6211 30.2074L32.6692 30.105L32.7165 30.0015L32.7624 29.8982L32.8074 29.794L32.8513 29.69L32.8939 29.5855L32.9355 29.4805L32.976 29.3752L33.0152 29.2699L33.0536 29.164L33.0906 29.0579L33.1266 28.9517L33.1615 28.8451L33.1952 28.7381L33.2279 28.6311L33.2593 28.5239L33.2897 28.4163L33.3188 28.3087L33.3469 28.2007L33.3738 28.0927L33.3996 27.9846L33.4243 27.876L33.4478 27.7676L33.4702 27.659L33.4914 27.5504L33.5115 27.4415L33.5305 27.3323L33.5483 27.2234L33.565 27.1143L33.5805 27.005L33.5949 26.896L33.6082 26.7867L33.6203 26.6771L33.6313 26.5683L33.6413 26.4586L33.65 26.3493L33.6575 26.2403L33.6641 26.1309L33.6694 26.0217L33.6736 25.9127L33.6767 25.8033L33.6786 25.6946L33.6795 25.5854L33.6791 25.4766L33.6778 25.3678L33.6753 25.2594L33.6716 25.1508L33.6668 25.0424L33.661 24.9345L33.654 24.8262L33.6459 24.7183L33.6368 24.6109L33.6265 24.5032L33.6151 24.3961L33.6026 24.2888L33.5891 24.1821L33.5745 24.0755L33.5588 23.969L33.542 23.863L33.5241 23.7572L33.5052 23.6517L33.4852 23.5466L33.464 23.4413L33.4419 23.3368L33.4188 23.2326L33.3945 23.1285L33.3692 23.0247L33.3429 22.9217L33.3155 22.8185L33.2871 22.7161L33.2577 22.6138L33.2272 22.5121L33.1958 22.4106L33.1632 22.3095L33.1298 22.2091L33.0954 22.1091L33.0597 22.0091L33.0234 21.91L32.9859 21.8111L32.9475 21.7129L32.9081 21.615L32.8677 21.5174L32.8264 21.4208L32.784 21.3243L32.7408 21.2285L32.6966 21.1333L32.6515 21.0383L32.6053 20.9439L32.5585 20.8503L32.5104 20.757L32.4617 20.6646L32.412 20.5727L32.3613 20.4809L32.3099 20.3902L32.2575 20.2999L32.2042 20.2103L32.15 20.1211L32.0952 20.0329L32.0391 19.9449L31.9826 19.8578L31.925 19.7714L31.8667 19.6856L31.8073 19.6002L31.7473 19.5158L31.6867 19.4321L31.6249 19.3487L31.5625 19.2663L31.4992 19.1845L31.4355 19.1036L31.3706 19.0231L31.305 18.9435L31.2387 18.8646L31.1718 18.7863L31.1041 18.7091L31.0355 18.6322L30.9664 18.5564L30.8964 18.4811L30.826 18.4069L30.7545 18.3331L30.6827 18.2604L30.6098 18.1881L30.5365 18.1169L30.4627 18.0465L30.3881 17.9767L30.3127 17.9078L30.2367 17.8398L30.1602 17.7726L30.0829 17.7059L30.0055 17.6406L29.927 17.5757L29.848 17.5118L29.7686 17.4488L29.6884 17.3863L29.6078 17.325L29.5269 17.2647L29.445 17.2049L29.3625 17.1459L29.28 17.0882L29.1964 17.031L29.113 16.9751L29.0287 16.9197L28.9439 16.8653L28.8586 16.8117L28.7731 16.7592L28.6867 16.7074L28.6003 16.6567L28.513 16.6066L28.4259 16.5578L28.338 16.5098L28.2497 16.4625L28.161 16.4162L28.0721 16.3711L27.9827 16.3266L27.8928 16.283L27.8028 16.2405L27.7125 16.199L27.6213 16.1582L27.5305 16.1185L27.4391 16.0798L27.3472 16.0418L27.2552 16.005L27.1631 15.9691L27.0706 15.9341L26.9774 15.8999L26.8846 15.8669L26.7911 15.8347L26.6975 15.8035L26.6039 15.7732L26.5099 15.744L26.416 15.7157L26.3212 15.6882L26.2268 15.6619L26.1321 15.6364L26.0372 15.612L25.9422 15.5884L25.8468 15.5658L25.7516 15.5442L25.6564 15.5236L25.5607 15.5039L25.4649 15.4851L25.3696 15.4675L25.2736 15.4507L25.1778 15.4348L25.0816 15.4199L24.986 15.406L24.8895 15.393L24.7938 15.3811L24.6977 15.3701L24.6016 15.36L24.5056 15.3509L24.4094 15.3427L24.3136 15.3355L24.2173 15.3293L24.1215 15.324L24.0258 15.3197L23.9295 15.3163L23.834 15.3138L23.7383 15.3124L23.6428 15.3118L23.5775 15.312L23.6269 19.4916L23.6565 19.4917L23.7114 19.4925L23.7664 19.4938L23.8216 19.4956L23.8767 19.4982L23.9319 19.5012L23.9872 19.5047L24.0425 19.5089L24.0979 19.5137L24.1533 19.519L24.2088 19.5248L24.2643 19.5313L24.3198 19.5384L24.3753 19.546L24.4309 19.5542L24.4865 19.563L24.542 19.5725L24.5975 19.5824L24.6531 19.593L24.7085 19.6041L24.764 19.616L24.8195 19.6282L24.8749 19.6412L24.9302 19.6547L24.9855 19.6688L25.0408 19.6835L25.0959 19.6988L25.151 19.7146L25.206 19.7311L25.261 19.7481L25.3158 19.7659L25.3706 19.7841L25.4251 19.8029L25.4797 19.8223L25.5341 19.8424L25.5883 19.8629L25.6424 19.8841L25.6965 19.9059L25.7503 19.9283L25.804 19.9512L25.8575 19.9748L25.9109 19.9989L25.9642 20.0236L26.0172 20.0489L26.07 20.0747L26.1227 20.1012L26.1751 20.1283L26.2273 20.1559L26.2793 20.1841L26.3311 20.2129L26.3827 20.2422L26.4341 20.2721L26.4851 20.3026L26.5361 20.3337L26.5867 20.3653L26.637 20.3975L26.6871 20.4302L26.7369 20.4635L26.7865 20.4975L26.8357 20.5319L26.8847 20.5669L26.9334 20.6025L26.9818 20.6385L27.0298 20.6752L27.0775 20.7124L27.125 20.7501L27.1721 20.7884L27.2188 20.8272L27.2653 20.8666L27.3113 20.9065L27.3571 20.9469L27.4024 20.9878L27.4474 21.0293L27.492 21.0713L27.5362 21.1138L27.5801 21.1569L27.6235 21.2004L27.6666 21.2444L27.7093 21.2889L27.7515 21.334L27.7934 21.3796L27.8348 21.4257L27.8758 21.4722L27.9163 21.5192L27.9564 21.5667L27.9962 21.6146L28.0354 21.6631L28.0741 21.7121L28.1124 21.7614L28.1503 21.8114L28.1877 21.8616L28.2246 21.9124L28.2609 21.9636L28.2968 22.0153L28.3323 22.0674L28.3671 22.12L28.4016 22.1729L28.4356 22.2264L28.4689 22.2802L28.5018 22.3344L28.5341 22.3891L28.5659 22.4442L28.5972 22.4996L28.6278 22.5555L28.6581 22.6118L28.6877 22.6684L28.7167 22.7255L28.7453 22.7828L28.7732 22.8406L28.8006 22.8988L28.8273 22.9573L28.8536 23.0162L28.8793 23.0754L28.9043 23.135L28.9287 23.1949L28.9526 23.2551L28.9758 23.3156L28.9985 23.3765L29.0205 23.4377L29.0419 23.4993L29.0627 23.5611L29.0829 23.6232L29.1023 23.6856L29.1213 23.7483L29.1395 23.8113L29.1571 23.8746L29.1742 23.938L29.1906 24.0018L29.2062 24.0659L29.2212 24.1302L29.2356 24.1946L29.2494 24.2595L29.2624 24.3245L29.2747 24.3896L29.2864 24.4551L29.2975 24.5208L29.3079 24.5865L29.3175 24.6526L29.3265 24.7188L29.3348 24.7853L29.3425 24.8519L29.3494 24.9187L29.3556 24.9855L29.3612 25.0526L29.366 25.1199L29.3701 25.1872L29.3736 25.2548L29.3762 25.3224L29.3783 25.3902L29.3795 25.458L29.3802 25.526L29.38 25.594L29.3792 25.6622L29.3777 25.7305L29.3753 25.7988L29.3723 25.8672L29.3686 25.9356L29.3642 26.0041L29.359 26.0727L29.353 26.1413L29.3463 26.2099L29.339 26.2786L29.3308 26.3472L29.322 26.416L29.3125 26.4847L29.3022 26.5533L29.2911 26.622L29.2792 26.6906L29.2667 26.7592L29.2534 26.8279L29.2395 26.8964L29.2247 26.9649L29.2092 27.0334L29.193 27.1018L29.176 27.1701L29.1582 27.2384L29.1399 27.3065L29.1206 27.3746L29.1007 27.4424L29.08 27.5103L29.0586 27.578L29.0365 27.6456L29.0135 27.7131L28.99 27.7804L28.9655 27.8475L28.9404 27.9146L28.9146 27.9813L28.888 28.0481L28.8607 28.1145L28.8327 28.1808L28.8039 28.2469L28.7743 28.3129L28.7441 28.3785L28.7131 28.444L28.6813 28.5093L28.649 28.5743L28.6158 28.639L28.5819 28.7036L28.5473 28.7678L28.5119 28.8318L28.476 28.8955L28.4392 28.959L28.4017 29.0222L28.3636 29.085L28.3246 29.1476L28.2851 29.2098L28.2448 29.2717L28.2037 29.3334L28.1621 29.3946L28.1197 29.4556L28.0766 29.5162L28.0328 29.5764L27.9884 29.6363L27.9432 29.6957L27.8974 29.7548L27.8509 29.8136L27.8038 29.872L27.7559 29.9299L27.7074 29.9874L27.6583 30.0446L27.6084 30.1012L27.5579 30.1575L27.5067 30.2134L27.4549 30.2687L27.4026 30.3236L27.3494 30.3782L27.2957 30.4322L27.2414 30.4857L27.1865 30.5389L27.1308 30.5914L27.0745 30.6435L27.0177 30.6951L26.9603 30.7462L26.9023 30.7968L26.8436 30.8468L26.7844 30.8963L26.7245 30.9454L26.664 30.9939L26.603 31.0417L26.5415 31.0891L26.4794 31.1359L26.4166 31.1822L26.3534 31.2278L26.2895 31.2728L26.2252 31.3174L26.1602 31.3613L26.0948 31.4047L26.0288 31.4473L25.9623 31.4895L25.8952 31.531L25.8277 31.5719L25.7596 31.612L25.691 31.6517L25.622 31.6906L25.5523 31.7289L25.4824 31.7667L25.4118 31.8037L25.3409 31.8401L25.2694 31.8757L25.1975 31.9108L25.1251 31.9451L25.0523 31.9788L24.9791 32.0118L24.9054 32.044L24.8313 32.0757L24.7568 32.1066L24.6819 32.1367L24.6065 32.1661L24.5307 32.1949L24.4546 32.2229L24.3781 32.2503L24.3012 32.2768L24.224 32.3026L24.1464 32.3277L24.0684 32.352L23.9902 32.3756L23.9115 32.3985L23.8325 32.4205L23.7533 32.4419L23.6737 32.4624L23.5937 32.4822L23.5135 32.5011L23.433 32.5194L23.3522 32.5368L23.2711 32.5535L23.1898 32.5693L23.1082 32.5844L23.0264 32.5986L22.9442 32.6122L22.862 32.6248L22.7794 32.6366L22.6967 32.6477L22.6136 32.658L22.5305 32.6674L22.4471 32.6759L22.3636 32.6838L22.2799 32.6906L22.196 32.6968L22.1118 32.702L22.0277 32.7066L21.9433 32.7102L21.8589 32.713L21.7742 32.7149L21.6895 32.716L21.6047 32.7163L21.5198 32.7158L21.4347 32.7143L21.3496 32.712L21.2645 32.7089L21.1792 32.7049L21.0939 32.7001L21.0085 32.6944L20.9232 32.6879L20.8378 32.6805L20.7524 32.6722L20.667 32.6631L20.5815 32.653L20.4962 32.6422L20.4107 32.6304L20.3254 32.6179L20.24 32.6044L20.1548 32.5901L20.0695 32.575L19.9844 32.5589L19.8993 32.5421L19.8142 32.5243L19.7293 32.5057L19.6445 32.4861L19.5598 32.4657L19.4751 32.4445L19.3907 32.4224L19.3064 32.3994L19.2222 32.3756L19.1383 32.3509L19.0543 32.3253L18.9707 32.2989L18.8872 32.2716L18.8038 32.2435L18.7208 32.2145L18.6379 32.1846L18.5552 32.1538L18.4728 32.1223L18.3906 32.0898L18.3086 32.0565L18.2269 32.0224L18.1456 31.9874L18.0644 31.9516L17.9835 31.9149L17.903 31.8774L17.8226 31.839L17.7427 31.7998L17.6631 31.7597L17.5838 31.7189L17.5049 31.6771L17.4263 31.6346L17.348 31.5912L17.2702 31.5471L17.1926 31.502L17.1156 31.4562L17.0388 31.4096L16.9626 31.3621L16.8866 31.3138L16.8111 31.2648L16.7361 31.2148L16.6614 31.1641L16.5874 31.1126L16.5136 31.0604L16.4404 31.0074L16.3676 30.9534L16.2953 30.8989L16.2236 30.8435L16.1523 30.7873L16.0816 30.7304L16.0113 30.6727L15.9415 30.6142L15.8723 30.555L15.8037 30.495L15.7356 30.4343L15.6681 30.3729L15.6011 30.3107L15.5347 30.2478L15.4689 30.1842L15.4036 30.1198L15.3391 30.0547L15.2751 29.989L15.2116 29.9224L15.1489 29.8554L15.0868 29.7874L15.0253 29.7189L14.9644 29.6497L14.9043 29.5797L14.8448 29.5092L14.7859 29.4379L14.7277 29.3659L14.6703 29.2934L14.6135 29.2202L14.5574 29.1464L14.502 29.0719L14.4474 28.9968L14.3935 28.9211L14.3403 28.8447L14.2878 28.7678L14.2361 28.6903L14.1852 28.6121L14.135 28.5334L14.0855 28.4542L14.0369 28.3743L13.989 28.2939L13.942 28.2129L13.8957 28.1313L13.8502 28.0493L13.8055 27.9667L13.7616 27.8836L13.7185 27.7999L13.6763 27.7157L13.6349 27.6312L13.5943 27.5459L13.5546 27.4603L13.5157 27.3742L13.4778 27.2876L13.4406 27.2005L13.4043 27.1131L13.3688 27.0251L13.3343 26.9367L13.3006 26.8478L13.268 26.7586L13.2361 26.6689L13.2051 26.5789L13.175 26.4885L13.1459 26.3976L13.1176 26.3064L13.0903 26.2148L13.0638 26.1228L13.0384 26.0305L13.0139 25.9378L12.9902 25.8448L12.9676 25.7515L12.9459 25.6579L12.9251 25.564L12.9053 25.4697L12.8865 25.3752L12.8686 25.2804L12.8516 25.1853L12.8357 25.09L12.8207 24.9945L12.8067 24.8986L12.7936 24.8026L12.7816 24.7063L12.7706 24.6099L12.7605 24.5131L12.7514 24.4163L12.7433 24.3192L12.7363 24.222L12.7302 24.1246L12.7251 24.027L12.721 23.9294L12.7179 23.8315L12.7159 23.7335L12.7149 23.6356L12.7148 23.5374L12.7158 23.4391L12.7179 23.3408L12.7209 23.2423L12.725 23.1438L12.7301 23.0453L12.7361 22.9468L12.7432 22.8481L12.7514 22.7495L12.7606 22.6508L12.7708 22.5522L12.7821 22.4536L12.7944 22.3549L12.8077 22.2564L12.8221 22.1579L12.8374 22.0593L12.8539 21.9609L12.8713 21.8625L12.8898 21.7642L12.9094 21.666L12.93 21.5679L12.9516 21.4699L12.9742 21.3721L12.9979 21.2744L13.0225 21.1768L13.0483 21.0794L13.0751 20.9822L13.1029 20.8851L13.1317 20.7881L13.1616 20.6915L13.1925 20.5949L13.2244 20.4986L13.2573 20.4026L13.2913 20.3068L13.3263 20.2112L13.3623 20.1159L13.3994 20.0209L13.4375 19.9262L13.4765 19.8316L13.5166 19.7375L13.5577 19.6436L13.5999 19.5501L13.6429 19.4569L13.6871 19.364L13.7322 19.2716L13.7783 19.1793L13.8254 19.0876L13.8735 18.9962L13.9226 18.9052L13.9727 18.8147L14.0238 18.7244L14.0758 18.6347L14.1288 18.5454L14.1828 18.4565L14.2378 18.3681L14.2938 18.2802L14.3507 18.1926L14.4085 18.1056L14.4673 18.0191L14.527 17.9331L14.5877 17.8477L14.6494 17.7627L14.7119 17.6783L14.7753 17.5944L14.8398 17.5111L14.9051 17.4283L14.9714 17.3462L15.0386 17.2645L15.1066 17.1835L15.1755 17.103L15.2454 17.0232L15.3161 16.9441L15.3878 16.8655L15.4603 16.7876L15.5337 16.7104L15.608 16.6338L15.683 16.5578L15.759 16.4825L15.8358 16.4079L15.9134 16.3341L15.9919 16.2609L16.0712 16.1884L16.1512 16.1167L16.2321 16.0456L16.3139 15.9754L16.3964 15.9058L16.4798 15.837L16.5638 15.769L16.6487 15.7017L16.7343 15.6353L16.8207 15.5697L16.9079 15.5048L16.9958 15.4407L17.0844 15.3775L17.1738 15.315L17.2639 15.2534L17.3548 15.1926L17.4462 15.1327L17.5385 15.0737L17.6314 15.0155L17.725 14.9581L17.8193 14.9017L17.9142 14.8461L18.0098 14.7914L18.106 14.7376L18.2029 14.6847L18.3004 14.6328L18.3985 14.5817L18.4973 14.5316L18.5966 14.4824L18.6965 14.4342L18.7971 14.3869L18.8981 14.3405L18.9998 14.2951L19.1019 14.2507L19.2048 14.2072L19.3081 14.1647L19.4118 14.1233L19.5162 14.0828L19.621 14.0433L19.7263 14.0047L19.8322 13.9673L19.9386 13.9308L20.0453 13.8953L20.1525 13.8609L20.2602 13.8275L20.3683 13.7952L20.4768 13.7638L20.5857 13.7336L20.6951 13.7044L20.8048 13.6762L20.915 13.649L21.0255 13.623L21.1364 13.5981L21.2475 13.5742L21.3591 13.5514L21.4709 13.5297L21.5271 13.5193ZM22.9019 21.5569L21.6259 21.8617L21.551 15.541L21.4909 15.5545L21.4003 15.5759L21.3099 15.5981L21.2201 15.6211L21.1304 15.6451L21.0413 15.6699L20.9522 15.6956L20.8639 15.722L20.7755 15.7494L20.6881 15.7775L20.6006 15.8066L20.5136 15.8365L20.427 15.8671L20.3407 15.8986L20.2553 15.9308L20.1699 15.964L20.085 15.9979L20.0007 16.0325L19.9164 16.0682L19.8333 16.1043L19.7501 16.1415L19.6678 16.1792L19.5855 16.218L19.504 16.2573L19.4228 16.2974L19.3424 16.3383L19.2624 16.3799L19.1829 16.4223L19.1039 16.4654L19.0255 16.5092L18.9475 16.5538L18.8705 16.599L18.7933 16.6452L18.7171 16.6918L18.6416 16.7392L18.5666 16.7872L18.492 16.836L18.4181 16.8855L18.3448 16.9357L18.2721 16.9864L18.2001 17.0377L18.1285 17.0899L18.0577 17.1427L17.9875 17.196L17.9178 17.2501L17.849 17.3045L17.7808 17.3598L17.713 17.4157L17.6459 17.4723L17.5797 17.5292L17.5141 17.5868L17.4491 17.645L17.3848 17.7037L17.3211 17.7632L17.2583 17.8231L17.196 17.8834L17.1344 17.9445L17.0736 18.006L17.0135 18.0681L16.9541 18.1305L16.8953 18.1938L16.8374 18.2573L16.7801 18.3214L16.7235 18.386L16.6679 18.4509L16.6127 18.5165L16.5586 18.5823L16.5049 18.6489L16.4522 18.7157L16.4001 18.7831L16.3488 18.851L16.2983 18.9191L16.2485 18.9876L16.1996 19.0566L16.1513 19.1261L16.1038 19.1958L16.0572 19.2661L16.0114 19.3365L15.9663 19.4074L15.9219 19.4788L15.8785 19.5503L15.8357 19.6225L15.7938 19.6946L15.7527 19.7673L15.7123 19.8402L15.6728 19.9134L15.6341 19.9869L15.5962 20.0608L15.559 20.1351L15.5228 20.2092L15.4873 20.2841L15.4526 20.3589L15.4189 20.4341L15.3858 20.5095L15.3536 20.5852L15.3222 20.6609L15.2917 20.7371L15.262 20.8134L15.233 20.8899L15.205 20.9663L15.1778 21.0433L15.1513 21.1203L15.1257 21.1975L15.1009 21.2748L15.077 21.3524L15.0539 21.43L15.0317 21.5076L15.0103 21.5855L14.9896 21.6636L14.9699 21.7416L14.9509 21.8198L14.9328 21.898L14.9155 21.9764L14.8991 22.0549L14.8835 22.1333L14.8687 22.2118L14.8547 22.2905L14.8417 22.369L14.8294 22.4476L14.8179 22.5264L14.8072 22.6049L14.7975 22.6837L14.7885 22.7622L14.7803 22.8409L14.773 22.9198L14.7665 22.9982L14.7608 23.0768L14.756 23.1554L14.7519 23.2338L14.7487 23.3122L14.7462 23.3905L14.7447 23.4689L14.7438 23.547L14.7439 23.6251L14.7447 23.703L14.7463 23.7809L14.7488 23.8586L14.752 23.9363L14.756 24.0137L14.7608 24.091L14.7665 24.1682L14.7729 24.2452L14.7801 24.3221L14.7881 24.3989L14.7968 24.4752L14.8063 24.5517L14.8166 24.6276L14.8278 24.7037L14.8397 24.7793L14.8523 24.8548L14.8657 24.9302L14.8799 25.0051L14.8948 25.08L14.9104 25.1543L14.9269 25.2287L14.9441 25.3027L14.962 25.3765L14.9806 25.4498L15.0001 25.5232L15.0201 25.596L15.0409 25.6687L15.0625 25.7409L15.0848 25.8129L15.1078 25.8846L15.1315 25.9557L15.156 26.0269L15.1811 26.0976L15.2069 26.1677L15.2333 26.2378L15.2606 26.3075L15.2885 26.3766L15.317 26.4455L15.3461 26.5139L15.3761 26.5821L15.4067 26.6499L15.4379 26.7172L15.4698 26.784L15.5022 26.8505L15.5356 26.9168L15.5692 26.9823L15.6036 27.0475L15.6387 27.1124L15.6745 27.1767L15.7108 27.2407L15.7477 27.3043L15.7852 27.3671L15.8234 27.4298L15.862 27.4919L15.9013 27.5535L15.9413 27.6147L15.9817 27.6753L16.0228 27.7357L16.0643 27.7951L16.1065 27.8545L16.1492 27.9131L16.1924 27.9713L16.2363 28.029L16.2806 28.0862L16.3254 28.1427L16.3708 28.1989L16.4168 28.2546L16.4631 28.3095L16.5101 28.364L16.5575 28.4181L16.6053 28.4714L16.6539 28.5243L16.7026 28.5765L16.752 28.6284L16.8018 28.6796L16.852 28.7301L16.9028 28.7802L16.9539 28.8297L17.0055 28.8786L17.0575 28.9269L17.11 28.9746L17.1629 29.0217L17.2162 29.0682L17.2699 29.1142L17.3239 29.1596L17.3784 29.2043L17.4333 29.2485L17.4886 29.292L17.5441 29.3348L17.6001 29.3771L17.6565 29.4188L17.7131 29.4599L17.7702 29.5003L17.8275 29.5402L17.8852 29.5794L17.9432 29.6179L18.0014 29.6558L18.06 29.6931L18.1191 29.7298L18.1782 29.7657L18.2377 29.8011L18.2976 29.8359L18.3575 29.8699L18.4177 29.9033L18.4785 29.9362L18.5392 29.9683L18.6002 29.9997L18.6615 30.0305L18.7231 30.0607L18.7847 30.0902L18.8468 30.1191L18.9089 30.1473L18.9711 30.1747L19.0338 30.2016L19.0965 30.2279L19.1593 30.2535L19.2224 30.2784L19.2856 30.3025L19.3492 30.3261L19.4125 30.349L19.4764 30.3712L19.54 30.3927L19.6039 30.4136L19.668 30.4339L19.7322 30.4535L19.7964 30.4723L19.8607 30.4906L19.9253 30.5081L19.9898 30.525L20.0544 30.5412L20.119 30.5568L20.1837 30.5716L20.2484 30.5858L20.3133 30.5994L20.3782 30.6123L20.443 30.6245L20.5079 30.6361L20.5729 30.647L20.6379 30.6572L20.7029 30.6668L20.7676 30.6757L20.8326 30.6839L20.8975 30.6915L20.9625 30.6985L21.0273 30.7047L21.0922 30.7103L21.157 30.7153L21.2216 30.7196L21.2864 30.7233L21.3509 30.7263L21.4154 30.7287L21.48 30.7304L21.5442 30.7315L21.6084 30.7319L21.6726 30.7317L21.7366 30.7309L21.8007 30.7294L21.8646 30.7273L21.9282 30.7246L21.9917 30.7212L22.0554 30.7172L22.1185 30.7126L22.1817 30.7073L22.2446 30.7015L22.3074 30.6951L22.3701 30.6879L22.4324 30.6802L22.4949 30.6719L22.5569 30.663L22.6186 30.6534L22.6805 30.6434L22.742 30.6326L22.8032 30.6213L22.8643 30.6094L22.9252 30.5969L22.9856 30.5838L23.0458 30.5702L23.1061 30.5559L23.166 30.5411L23.2255 30.5258L23.2849 30.5098L23.3439 30.4934L23.4029 30.4762L23.4613 30.4586L23.5193 30.4404L23.5776 30.4216L23.6351 30.4024L23.6925 30.3826L23.7495 30.3623L23.8062 30.3414L23.8627 30.3199L23.9189 30.298L23.9746 30.2755L24.03 30.2526L24.0851 30.229L24.1401 30.205L24.1943 30.1805L24.2486 30.1555L24.3022 30.13L24.3555 30.104L24.4086 30.0775L24.4611 30.0506L24.5135 30.0232L24.5654 29.9952L24.6169 29.9668L24.6679 29.9381L24.7187 29.9087L24.7691 29.8789L24.8189 29.8487L24.8684 29.8181L24.9175 29.7869L24.9663 29.7555L25.0146 29.7235L25.0625 29.6912L25.11 29.6583L25.157 29.6251L25.2035 29.5915L25.2497 29.5574L25.2954 29.523L25.3407 29.4881L25.3855 29.4529L25.43 29.4173L25.4738 29.3814L25.5173 29.3451L25.5603 29.3084L25.6028 29.2713L25.645 29.2339L25.6866 29.196L25.7278 29.1579L25.7683 29.1195L25.8086 29.0806L25.8484 29.0414L25.8877 29.002L25.9264 28.9623L25.9646 28.9221L26.0024 28.8818L26.0398 28.841L26.0764 28.8001L26.1128 28.7587L26.1486 28.7171L26.1838 28.6753L26.2188 28.6331L26.2529 28.5908L26.2868 28.548L26.3201 28.5052L26.3527 28.462L26.3851 28.4185L26.4167 28.375L26.4479 28.3309L26.4787 28.2868L26.5088 28.2426L26.5385 28.1979L26.5677 28.1531L26.5962 28.1082L26.6243 28.063L26.6519 28.0176L26.6789 27.972L26.7054 27.9263L26.7313 27.8804L26.7568 27.8343L26.7817 27.7879L26.8061 27.7417L26.8299 27.695L26.8532 27.6483L26.876 27.6015L26.8983 27.5543L26.92 27.5073L26.9411 27.46L26.9617 27.4127L26.9819 27.3651L27.0014 27.3176L27.0205 27.2697L27.0389 27.2222L27.0569 27.174L27.0742 27.1265L27.0911 27.0782L27.1075 27.0299L27.1232 26.9819L27.1385 26.9336L27.1532 26.8855L27.1675 26.8367L27.181 26.7887L27.1943 26.7399L27.2068 26.6918L27.2189 26.6431L27.2304 26.5944L27.2414 26.546L27.2518 26.4978L27.2617 26.4488L27.2712 26.4005L27.28 26.3516L27.2883 26.3034L27.2962 26.2549L27.3035 26.2063L27.3102 26.1577L27.3164 26.1092L27.3222 26.0609L27.3274 26.0128L27.332 25.9642L27.3362 25.916L27.3399 25.8677L27.343 25.8196L27.3457 25.7715L27.3478 25.7236L27.3493 25.6759L27.3504 25.6278L27.3511 25.5799L27.3512 25.5324L27.3507 25.4849L27.3499 25.4375L27.3484 25.3903L27.3465 25.3428L27.3441 25.2962L27.3412 25.2486L27.3379 25.2022L27.334 25.1556L27.3297 25.1086L27.3248 25.0622L27.3196 25.0163L27.3138 24.9697L27.3076 24.9241L27.3008 24.8781L27.2937 24.8329L27.286 24.7871L27.2779 24.7417L27.2694 24.6968L27.2604 24.652L27.2509 24.607L27.2409 24.5626L27.2306 24.5182L27.2198 24.4742L27.2086 24.4304L27.1968 24.3864L27.1848 24.3432L27.1722 24.2996L27.1592 24.2567L27.1458 24.2139L27.132 24.1714L27.1177 24.129L27.103 24.0867L27.088 24.0451L27.0725 24.0036L27.0566 23.9619L27.0403 23.921L27.0236 23.8798L27.0067 23.8396L26.9891 23.799L26.9714 23.759L26.9531 23.7194L26.9345 23.6797L26.9156 23.6406L26.8962 23.6016L26.8765 23.5628L26.8564 23.5245L26.836 23.4865L26.8153 23.4487L26.7941 23.4112L26.7725 23.374L26.7508 23.3371L26.7287 23.3006L26.7061 23.2642L26.6833 23.2284L26.6602 23.1928L26.6367 23.1574L26.6129 23.1223L26.5889 23.0878L26.5644 23.0534L26.5397 23.0194L26.5147 22.9857L26.4893 22.9524L26.4639 22.9194L26.4379 22.8867L26.4117 22.8544L26.3853 22.8224L26.3586 22.7908L26.3316 22.7594L26.3045 22.7286L26.2769 22.698L26.2491 22.6678L26.2211 22.6378L26.1929 22.6083L26.1643 22.5792L26.1355 22.5503L26.1066 22.522L26.0774 22.494L26.0481 22.4663L26.0182 22.4388L25.9885 22.4119L25.9584 22.3853L25.9282 22.3591L25.8976 22.3332L25.867 22.3079L25.8361 22.2827L25.8051 22.2581L25.7739 22.2337L25.7424 22.2097L25.7109 22.1862L25.6791 22.163L25.6471 22.1402L25.6151 22.1178L25.5829 22.0957L25.5506 22.0741L25.518 22.0528L25.4852 22.0319L25.4526 22.0114L25.4195 21.9913L25.3865 21.9716L25.3534 21.9523L25.3201 21.9334L25.2865 21.9148L25.2531 21.8966L25.2196 21.8788L25.1858 21.8614L25.1521 21.8445L25.118 21.8277L25.0842 21.8116L25.0501 21.7959L25.016 21.7804L24.9818 21.7653L24.9473 21.7506L24.9132 21.7364L24.8787 21.7226L24.8441 21.7091L24.8097 21.696L24.7752 21.6833L24.7406 21.671L24.706 21.659L24.6713 21.6474L24.6368 21.6363L24.602 21.6255L24.5673 21.6151L24.5327 21.6051L24.4978 21.5955L24.4632 21.5863L24.4284 21.5774L24.3937 21.5689L24.3589 21.5608L24.3243 21.5531L24.2895 21.5458L24.2549 21.5388L24.2203 21.5322L24.1858 21.526L24.151 21.5201L24.1167 21.5147L24.0819 21.5096L24.0477 21.5048L24.0132 21.5004L23.9789 21.4964L23.9448 21.4928L23.9105 21.4895L23.8764 21.4866L23.8423 21.484L23.8083 21.4818L23.7743 21.4799L23.7404 21.4785L23.7069 21.4774L23.6731 21.4765L23.6396 21.476L23.606 21.4759L23.5727 21.4763L23.5394 21.4768L23.5063 21.4777L23.4732 21.479L23.4404 21.4806L23.4074 21.4826L23.3749 21.4848L23.3423 21.4873L23.3099 21.4903L23.2777 21.4935L23.2453 21.4971L23.2135 21.5009L23.1816 21.5052L23.1499 21.5097L23.1182 21.5146L23.0869 21.5197L23.0556 21.5251L23.0247 21.5308L22.9936 21.5369L22.9629 21.5432L22.9323 21.5499L22.9019 21.5569Z" fill="#43505C"/>
</g>
</svg>
