<svg width="166" height="34" viewBox="0 0 166 34" fill="none" xmlns="http://www.w3.org/2000/svg">
<g id="Vector">
<path d="M47.8785 23.3211C47.8785 24.1454 47.7092 24.7788 47.3708 25.2212C47.0412 25.6638 46.4902 25.885 45.718 25.885C44.9891 25.885 44.4729 25.6638 44.1691 25.2212C43.8741 24.7788 43.7266 24.1454 43.7266 23.3211V9.56404C43.7266 8.73973 43.8741 8.10633 44.1691 7.66381C44.4729 7.22129 44.9891 7.00003 45.718 7.00003C46.4902 7.00003 47.0412 7.22129 47.3708 7.66381C47.7092 8.10633 47.8785 8.73973 47.8785 9.56404V23.3211Z" fill="#09355D"/>
<path d="M49.1388 19.3254C49.1388 18.4056 49.2863 17.538 49.5814 16.7223C49.8851 15.898 50.3362 15.1779 50.9349 14.5618C51.5423 13.9458 52.2972 13.4555 53.1996 13.0911C54.1107 12.7266 55.1779 12.5445 56.4013 12.5445C57.5727 12.5445 58.6096 12.7136 59.512 13.0521C60.4144 13.3905 61.1736 13.8634 61.7895 14.4708C62.4056 15.0694 62.8742 15.7852 63.1953 16.6182C63.5162 17.4425 63.6768 18.3449 63.6768 19.3254C63.6768 20.2365 63.5249 21.0998 63.2213 21.9154C62.9176 22.7223 62.462 23.4339 61.8546 24.0499C61.2473 24.6572 60.4881 25.1431 59.5771 25.5076C58.6659 25.8634 57.6074 26.0412 56.4013 26.0412C55.2126 26.0412 54.1628 25.872 53.2516 25.5336C52.3492 25.1865 51.5901 24.7136 50.974 24.1149C50.3666 23.5076 49.9067 22.7961 49.5944 21.9805C49.2907 21.1562 49.1388 20.2711 49.1388 19.3254ZM53.4729 19.3254C53.4729 19.8981 53.5249 20.4447 53.6291 20.9653C53.7332 21.4772 53.8981 21.9284 54.1237 22.3189C54.3579 22.7093 54.6616 23.0217 55.0347 23.2559C55.4079 23.4815 55.8633 23.5944 56.4013 23.5944C56.8959 23.5944 57.3254 23.4903 57.6898 23.2819C58.063 23.0738 58.3666 22.783 58.6009 22.41C58.8438 22.0369 59.0261 21.59 59.1475 21.0695C59.269 20.5401 59.3297 19.9588 59.3297 19.3254C59.3297 18.7527 59.2733 18.2104 59.1606 17.6985C59.0564 17.1779 58.8873 16.7223 58.6529 16.3318C58.4187 15.9328 58.115 15.6204 57.7419 15.3948C57.3775 15.1606 56.9305 15.0434 56.4013 15.0434C55.872 15.0434 55.4209 15.1561 55.0477 15.3818C54.6746 15.6074 54.371 15.9154 54.1367 16.3059C53.9024 16.6964 53.7332 17.1518 53.6291 17.6725C53.5249 18.193 53.4729 18.744 53.4729 19.3254Z" fill="#09355D"/>
<path d="M74.3602 23.3732C74.1259 23.807 73.8395 24.1757 73.5011 24.4795C73.1715 24.7831 72.8027 25.0348 72.3949 25.2343C71.9958 25.4252 71.5663 25.5683 71.1064 25.6638C70.6551 25.7506 70.191 25.794 69.7138 25.794C68.9155 25.794 68.1867 25.6508 67.5272 25.3644C66.8678 25.0781 66.2995 24.6659 65.8223 24.128C65.3537 23.5814 64.9893 22.9132 64.7289 22.1237C64.4686 21.334 64.3384 20.4317 64.3384 19.4165C64.3384 18.4621 64.46 17.5683 64.703 16.7354C64.9459 15.9024 65.2973 15.1779 65.7572 14.5619C66.2257 13.9458 66.7984 13.4599 67.4752 13.1042C68.1519 12.7484 68.9242 12.5705 69.7918 12.5705C70.781 12.5705 71.6574 12.7614 72.4209 13.1432C73.1932 13.525 73.857 14.1497 74.4123 15.0174V14.6791C74.4123 14.0543 74.5814 13.5858 74.9198 13.2733C75.2669 12.9524 75.7441 12.7918 76.3515 12.7918C76.716 12.7918 77.0239 12.8525 77.2756 12.974C77.5272 13.0869 77.7267 13.2603 77.8742 13.4947C78.0218 13.7202 78.1259 14.0022 78.1866 14.3406C78.2561 14.6703 78.2907 15.0478 78.2907 15.4729V24.1931C78.2907 25.2517 78.1563 26.1974 77.8873 27.0303C77.627 27.8633 77.2192 28.5662 76.6639 29.1389C76.1086 29.7115 75.3971 30.1453 74.5293 30.4404C73.6617 30.7441 72.6292 30.8959 71.4318 30.8959C70.5902 30.8959 69.8439 30.8569 69.1931 30.7787C68.5511 30.7094 67.9958 30.6009 67.5272 30.4534C67.0587 30.2885 66.703 30.1063 66.46 29.9068C66.2257 29.7072 66.1086 29.4468 66.1086 29.1259C66.1086 28.9436 66.1346 28.7701 66.1866 28.6052C66.2387 28.4404 66.3168 28.2929 66.4209 28.1627C66.5337 28.0412 66.6769 27.9415 66.8505 27.8633C67.0326 27.794 67.2538 27.7592 67.5142 27.7592C67.7918 27.7592 68.0695 27.7766 68.3472 27.8113C68.6335 27.846 68.9286 27.8808 69.2322 27.9154C69.5445 27.9588 69.8699 27.9978 70.2083 28.0326C70.5554 28.0672 70.9285 28.0847 71.3276 28.0847C71.8049 28.0847 72.23 28.0369 72.6032 27.9415C72.9762 27.846 73.2929 27.6768 73.5532 27.4338C73.8136 27.1909 74.0131 26.8655 74.152 26.4577C74.2908 26.0585 74.3602 25.5467 74.3602 24.9219V23.3732ZM74.3602 19.3255C74.3602 18.692 74.3124 18.115 74.217 17.5944C74.1303 17.0738 73.9784 16.6313 73.7615 16.2668C73.5446 15.8937 73.2539 15.6074 72.8895 15.4078C72.525 15.1996 72.0695 15.0955 71.5229 15.0955C70.9849 15.0955 70.5381 15.2039 70.1824 15.4208C69.8353 15.6377 69.5576 15.9372 69.3494 16.3189C69.1411 16.7007 68.9936 17.1475 68.9068 17.6595C68.8287 18.1714 68.7897 18.7181 68.7897 19.2994C68.7897 20.6269 69.024 21.6248 69.4925 22.2929C69.961 22.961 70.6422 23.2951 71.5359 23.2951C71.9524 23.2864 72.3299 23.2082 72.6682 23.0607C73.0152 22.9046 73.3147 22.666 73.5662 22.3449C73.8179 22.0239 74.0131 21.616 74.152 21.1215C74.2908 20.6269 74.3602 20.0283 74.3602 19.3255Z" fill="#09355D"/>
<path d="M79.4861 19.3254C79.4861 18.4056 79.6336 17.538 79.9285 16.7223C80.2323 15.898 80.6834 15.1779 81.2822 14.5618C81.8896 13.9458 82.6444 13.4555 83.5467 13.0911C84.4579 12.7266 85.5251 12.5445 86.7486 12.5445C87.9198 12.5445 88.9567 12.7136 89.8591 13.0521C90.7615 13.3905 91.5207 13.8634 92.1368 14.4708C92.7528 15.0694 93.2214 15.7852 93.5424 16.6182C93.8635 17.4425 94.024 18.3449 94.024 19.3254C94.024 20.2365 93.8721 21.0998 93.5685 21.9154C93.2647 22.7223 92.8093 23.4339 92.2019 24.0499C91.5945 24.6572 90.8352 25.1431 89.9242 25.5076C89.0131 25.8634 87.9546 26.0412 86.7486 26.0412C85.5598 26.0412 84.5099 25.872 83.5988 25.5336C82.6964 25.1865 81.9372 24.7136 81.3212 24.1149C80.7139 23.5076 80.254 22.7961 79.9415 21.9805C79.6379 21.1562 79.4861 20.2711 79.4861 19.3254ZM83.8201 19.3254C83.8201 19.8981 83.8722 20.4447 83.9763 20.9653C84.0804 21.4772 84.2452 21.9284 84.4709 22.3189C84.7051 22.7093 85.0088 23.0217 85.3819 23.2559C85.755 23.4815 86.2106 23.5944 86.7486 23.5944C87.2431 23.5944 87.6726 23.4903 88.037 23.2819C88.4101 23.0738 88.7138 22.783 88.9481 22.41C89.1911 22.0369 89.3732 21.59 89.4947 21.0695C89.6162 20.5401 89.677 19.9588 89.677 19.3254C89.677 18.7527 89.6205 18.2104 89.5077 17.6985C89.4036 17.1779 89.2344 16.7223 89.0002 16.3318C88.7659 15.9328 88.4622 15.6204 88.0891 15.3948C87.7247 15.1606 87.2778 15.0434 86.7486 15.0434C86.2192 15.0434 85.768 15.1561 85.3949 15.3818C85.0219 15.6074 84.7181 15.9154 84.4839 16.3059C84.2497 16.6964 84.0804 17.1518 83.9763 17.6725C83.8722 18.193 83.8201 18.744 83.8201 19.3254Z" fill="#09355D"/>
<path d="M99.6054 8.15838C99.6054 8.44472 99.5403 8.70068 99.4101 8.92628C99.28 9.1432 99.1108 9.32536 98.9026 9.47297C98.6944 9.62046 98.4513 9.73318 98.1737 9.81126C97.9048 9.88068 97.6271 9.91544 97.3407 9.91544C97.0371 9.91544 96.7464 9.87634 96.4688 9.79827C96.1998 9.72019 95.9612 9.60746 95.753 9.45986C95.5447 9.30371 95.3798 9.11716 95.2583 8.90025C95.1369 8.68333 95.0761 8.43604 95.0761 8.15838C95.0761 7.90676 95.1326 7.67682 95.2453 7.46858C95.3668 7.25166 95.5273 7.06511 95.7269 6.90893C95.9264 6.75275 96.1651 6.63127 96.4428 6.54451C96.7204 6.45773 97.0241 6.41435 97.3538 6.41435C97.6401 6.41435 97.9178 6.4534 98.1868 6.53149C98.4644 6.60958 98.7073 6.72237 98.9156 6.86989C99.1238 7.01739 99.2888 7.1996 99.4101 7.41652C99.5403 7.63344 99.6054 7.88072 99.6054 8.15838ZM99.4101 23.321C99.4101 24.1454 99.241 24.7787 98.9026 25.2212C98.5728 25.6638 98.0219 25.885 97.2496 25.885C96.5208 25.885 96.0045 25.6638 95.7009 25.2212C95.4059 24.7787 95.2583 24.1454 95.2583 23.321V15.3557C95.2583 14.5314 95.4059 13.898 95.7009 13.4556C96.0045 13.0131 96.5208 12.7917 97.2496 12.7917C98.0219 12.7917 98.5728 13.0131 98.9026 13.4556C99.241 13.898 99.4101 14.5314 99.4101 15.3557V23.321Z" fill="#09355D"/>
<path d="M105.395 19.2994C105.395 19.8808 105.438 20.423 105.525 20.9263C105.621 21.4296 105.777 21.872 105.994 22.2539C106.219 22.6269 106.514 22.9219 106.879 23.1388C107.252 23.3558 107.712 23.4642 108.258 23.4642C108.762 23.4642 109.182 23.3602 109.521 23.1519C109.868 22.935 110.145 22.6399 110.354 22.2669C110.562 21.885 110.71 21.4382 110.796 20.9263C110.892 20.4143 110.939 19.859 110.939 19.2604C110.939 18.7832 110.905 18.2973 110.835 17.8027C110.766 17.2994 110.636 16.8439 110.445 16.4361C110.254 16.0282 109.99 15.6942 109.651 15.4338C109.312 15.1736 108.87 15.0435 108.324 15.0435C107.777 15.0435 107.313 15.1302 106.931 15.3038C106.558 15.4773 106.254 15.7419 106.02 16.0977C105.794 16.4534 105.634 16.9003 105.538 17.4382C105.443 17.9675 105.395 18.5879 105.395 19.2994ZM105.382 15.3558C105.599 14.896 105.877 14.4925 106.215 14.1454C106.553 13.7983 106.927 13.5077 107.334 13.2733C107.742 13.0391 108.167 12.8655 108.61 12.7528C109.061 12.6313 109.508 12.5705 109.95 12.5705C110.748 12.5705 111.469 12.7484 112.111 13.1042C112.753 13.4599 113.3 13.9458 113.75 14.5619C114.21 15.1693 114.562 15.8894 114.806 16.7224C115.048 17.5467 115.17 18.4318 115.17 19.3775C115.17 20.3579 115.039 21.256 114.779 22.0716C114.528 22.8873 114.167 23.5901 113.698 24.18C113.239 24.7614 112.683 25.2169 112.032 25.5467C111.39 25.8764 110.675 26.0412 109.886 26.0412C108.914 26.0412 108.046 25.8157 107.282 25.3644C106.519 24.9133 105.885 24.2799 105.382 23.4642V28.1497C105.382 28.9739 105.213 29.6074 104.874 30.0499C104.545 30.4924 103.994 30.7137 103.222 30.7137C102.493 30.7137 101.976 30.4924 101.673 30.0499C101.378 29.6074 101.23 28.9739 101.23 28.1497V15.3558C101.23 14.5315 101.378 13.8981 101.673 13.4556C101.976 13.0131 102.493 12.7918 103.222 12.7918C103.994 12.7918 104.545 13.0131 104.874 13.4556C105.213 13.8981 105.382 14.5315 105.382 15.3558Z" fill="#09355D"/>
<path d="M119.749 16.2799C119.749 16.6182 119.897 16.8828 120.191 17.0737C120.486 17.256 120.894 17.4078 121.415 17.5293C121.909 17.6421 122.417 17.7506 122.938 17.8546C123.458 17.9588 123.966 18.0803 124.46 18.2191C124.954 18.3492 125.419 18.5055 125.853 18.6876C126.286 18.8699 126.668 19.0998 126.998 19.3774C127.328 19.6464 127.588 19.9762 127.779 20.3665C127.97 20.7484 128.065 21.2083 128.065 21.7462C128.065 22.423 127.927 23.026 127.649 23.5553C127.371 24.0759 126.977 24.5184 126.465 24.8829C125.962 25.2473 125.359 25.5293 124.656 25.7289C123.953 25.9284 123.176 26.0325 122.326 26.0412C121.519 26.0412 120.742 25.9892 119.996 25.885C119.25 25.7896 118.586 25.6377 118.004 25.4294C117.432 25.2212 116.972 24.9653 116.625 24.6616C116.278 24.3492 116.105 23.9848 116.105 23.5684C116.105 23.2039 116.222 22.9219 116.456 22.7223C116.69 22.5228 116.989 22.423 117.354 22.423C117.493 22.423 117.658 22.449 117.849 22.5011C118.04 22.5531 118.247 22.6182 118.473 22.6963C118.698 22.7744 118.937 22.8611 119.189 22.9566C119.449 23.0434 119.718 23.1214 119.996 23.1909C120.343 23.2864 120.699 23.3645 121.063 23.4252C121.436 23.4772 121.818 23.5033 122.209 23.5033C122.451 23.5033 122.69 23.4815 122.924 23.4382C123.159 23.3861 123.367 23.3124 123.55 23.217C123.741 23.1128 123.896 22.9826 124.018 22.8265C124.139 22.6703 124.213 22.4794 124.239 22.2538C124.265 22.2017 124.287 22.1496 124.304 22.0976C124.321 22.0456 124.33 21.9848 124.33 21.9154C124.33 21.6724 124.217 21.4555 123.992 21.2646C123.775 21.0738 123.466 20.9219 123.068 20.8091C122.399 20.653 121.761 20.5098 121.154 20.3796C120.548 20.2495 119.983 20.1106 119.462 19.9632C118.95 19.8157 118.482 19.6464 118.056 19.4555C117.64 19.2647 117.284 19.0303 116.989 18.7527C116.704 18.475 116.477 18.1409 116.313 17.7506C116.156 17.3601 116.078 16.8872 116.078 16.3318C116.078 15.7332 116.213 15.1996 116.482 14.731C116.759 14.2538 117.155 13.8547 117.667 13.5336C118.179 13.2125 118.798 12.9696 119.528 12.8048C120.257 12.6312 121.081 12.5445 122 12.5445C123.648 12.5445 124.902 12.7441 125.762 13.1431C126.629 13.5336 127.064 14.0455 127.064 14.679C127.064 15.0347 126.946 15.3081 126.711 15.4989C126.477 15.6811 126.195 15.7722 125.866 15.7722C125.692 15.7722 125.51 15.7419 125.319 15.6811C125.137 15.6117 124.916 15.538 124.656 15.4599C124.395 15.3732 124.083 15.2994 123.718 15.2387C123.363 15.1692 122.92 15.1345 122.391 15.1345C121.991 15.1345 121.627 15.1518 121.297 15.1866C120.976 15.2212 120.699 15.282 120.464 15.3687C120.239 15.4556 120.061 15.5726 119.931 15.7202C119.809 15.8677 119.749 16.0542 119.749 16.2799Z" fill="#09355D"/>
<path d="M133.348 21.0564C133.348 21.4642 133.4 21.82 133.504 22.1237C133.616 22.4274 133.768 22.6834 133.959 22.8916C134.151 23.0912 134.372 23.243 134.623 23.3471C134.884 23.4426 135.161 23.4903 135.456 23.4903C135.803 23.4903 136.137 23.4383 136.458 23.3341C136.779 23.23 137.061 23.0694 137.305 22.8525C137.556 22.6356 137.756 22.3623 137.903 22.0325C138.05 21.7029 138.124 21.3167 138.124 20.8743V15.3558C138.124 14.5315 138.272 13.8981 138.566 13.4556C138.871 13.0131 139.387 12.7918 140.116 12.7918C140.888 12.7918 141.438 13.0131 141.768 13.4556C142.107 13.8981 142.276 14.5315 142.276 15.3558V23.3211C142.276 24.1454 142.107 24.7788 141.768 25.2213C141.438 25.6638 140.888 25.8851 140.116 25.8851C139.387 25.8851 138.871 25.6638 138.566 25.2213C138.272 24.7788 138.124 24.1454 138.124 23.3211C137.942 23.7202 137.703 24.0846 137.408 24.4144C137.121 24.7441 136.784 25.0305 136.393 25.2734C136.011 25.5077 135.587 25.6898 135.118 25.82C134.658 25.9502 134.158 26.0152 133.621 26.0152C133.04 26.0152 132.48 25.9154 131.941 25.7159C131.413 25.5077 130.944 25.2039 130.537 24.8048C130.129 24.3971 129.804 23.8937 129.56 23.2951C129.317 22.6964 129.196 21.9979 129.196 21.1996V15.3558C129.196 14.5315 129.344 13.8981 129.638 13.4556C129.942 13.0131 130.458 12.7918 131.187 12.7918C131.959 12.7918 132.51 13.0131 132.84 13.4556C133.179 13.8981 133.348 14.5315 133.348 15.3558V21.0564Z" fill="#09355D"/>
<path d="M144.161 15.3558C144.161 14.5315 144.308 13.8981 144.604 13.4556C144.907 13.0131 145.423 12.7918 146.152 12.7918C146.925 12.7918 147.476 13.0131 147.806 13.4556C148.143 13.8981 148.313 14.5315 148.313 15.3558C148.486 14.9393 148.721 14.5619 149.016 14.2235C149.319 13.8764 149.663 13.5814 150.044 13.3384C150.435 13.0955 150.855 12.9089 151.306 12.7788C151.757 12.6399 152.226 12.5705 152.712 12.5705C153.163 12.5705 153.605 12.6313 154.04 12.7528C154.482 12.8655 154.89 13.0521 155.264 13.3124C155.645 13.564 155.979 13.8851 156.265 14.2756C156.552 14.6659 156.773 15.1345 156.93 15.6812C157.198 15.0999 157.515 14.6096 157.879 14.2105C158.243 13.8113 158.639 13.4902 159.063 13.2473C159.488 13.0043 159.932 12.8309 160.391 12.7267C160.86 12.6226 161.328 12.5705 161.796 12.5705C162.352 12.5705 162.881 12.6704 163.384 12.8698C163.896 13.0694 164.343 13.3732 164.725 13.781C165.116 14.18 165.424 14.6877 165.649 15.3038C165.883 15.9111 166 16.6227 166 17.4382V23.3211C166 24.1454 165.831 24.7788 165.492 25.2212C165.164 25.6638 164.612 25.8851 163.84 25.8851C163.111 25.8851 162.595 25.6638 162.292 25.2212C161.996 24.7788 161.848 24.1454 161.848 23.3211V17.6204C161.848 17.2299 161.796 16.8829 161.693 16.5792C161.589 16.2668 161.441 16.0066 161.25 15.7983C161.068 15.5814 160.851 15.4208 160.599 15.3168C160.348 15.2039 160.078 15.1475 159.793 15.1475C159.436 15.1475 159.099 15.2039 158.778 15.3168C158.457 15.4295 158.175 15.6031 157.931 15.8373C157.697 16.0717 157.506 16.371 157.358 16.7354C157.219 17.0998 157.151 17.538 157.151 18.0499V23.3211C157.151 24.1454 156.981 24.7788 156.643 25.2212C156.313 25.6638 155.762 25.8851 154.989 25.8851C154.261 25.8851 153.744 25.6638 153.441 25.2212C153.146 24.7788 152.998 24.1454 152.998 23.3211V17.8677C152.998 16.9741 152.811 16.2972 152.439 15.8373C152.074 15.3775 151.575 15.1475 150.942 15.1475C150.569 15.1475 150.221 15.2083 149.9 15.3298C149.579 15.4513 149.302 15.6291 149.067 15.8634C148.833 16.0977 148.646 16.3883 148.508 16.7354C148.378 17.0825 148.313 17.4816 148.313 17.9327V23.3211C148.313 24.1454 148.143 24.7788 147.806 25.2212C147.476 25.6638 146.925 25.8851 146.152 25.8851C145.423 25.8851 144.907 25.6638 144.604 25.2212C144.308 24.7788 144.161 24.1454 144.161 23.3211V15.3558Z" fill="#09355D"/>
<path d="M16.6594 23.6638C12.9791 23.6638 9.99565 20.6803 9.99565 17C9.99565 13.3197 12.9791 10.3363 16.6594 10.3363C20.3397 10.3363 23.3232 13.3197 23.3232 17C23.3232 20.6803 20.3397 23.6638 16.6594 23.6638Z" fill="#51A3EE"/>
<path d="M3.74973 19.2764C1.81863 19.6169 0.494961 21.4823 1.23625 23.2977C2.27118 25.8322 3.92227 28.0903 6.06279 29.8549C9.12358 32.3779 12.9841 33.7261 16.9502 33.6569C20.9162 33.5877 24.7275 32.1056 27.6984 29.4771C29.7759 27.6391 31.3472 25.3246 32.2932 22.7556C32.9706 20.9154 31.5826 19.0973 29.6408 18.8245C27.6991 18.5516 25.9556 19.965 24.9965 21.6753C24.4766 22.6024 23.8016 23.4434 22.9931 24.1588C21.2885 25.6669 19.1018 26.5172 16.8263 26.557C14.5508 26.5966 12.3357 25.8232 10.5796 24.3755C9.74653 23.6888 9.04273 22.8718 8.49077 21.9634C7.47256 20.2876 5.68084 18.9358 3.74973 19.2764Z" fill="#51A3EE"/>
<path d="M33.19 19.0819C33.2751 18.3999 33.3188 17.705 33.3188 17C33.3188 7.79928 25.8602 0.340607 16.6594 0.340607C7.45867 0.340607 0 7.79928 0 17C0 17.9049 0.0721353 18.7928 0.210975 19.6585C0.976175 18.611 2.17045 17.8632 3.46045 17.6357C4.85616 17.3896 6.12465 17.7281 7.19717 18.3609C7.13381 17.9164 7.10102 17.462 7.10102 17C7.10102 11.7211 11.3805 7.44163 16.6594 7.44163C21.9383 7.44163 26.2178 11.7211 26.2178 17C26.2178 17.3481 26.1992 17.6918 26.1629 18.0302C27.2128 17.3602 28.4689 16.9774 29.8727 17.1747C31.1694 17.357 32.3887 18.0622 33.19 19.0819Z" fill="#0E4F8B"/>
</g>
</svg>
