<svg xmlns="http://www.w3.org/2000/svg" width="166" height="30" fill="none"><path fill="#726BEA" d="M40.012 1.444h4.144v21.789h6.82v3.632H40.012zM58.807 27.228q-3.052 0-4.672-1.67-1.62-1.671-1.62-4.722V7.472q0-3.05 1.62-4.72 1.62-1.671 4.672-1.671t4.672 1.67q1.62 1.671 1.62 4.721v13.364q0 3.051-1.62 4.721t-4.672 1.67m0-3.632q2.147 0 2.147-2.506V7.218q0-2.506-2.147-2.506-2.148 0-2.148 2.506V21.09q0 2.505 2.148 2.506M73.78 27.228q-3.015 0-4.597-1.635-1.583-1.67-1.583-4.757V7.472q0-3.087 1.583-4.72 1.583-1.671 4.596-1.671 3.015 0 4.597 1.67 1.582 1.635 1.582 4.721v2.18H76.04V7.217q0-2.505-2.148-2.506-2.147 0-2.147 2.506v13.909q0 2.47 2.147 2.47 2.148 0 2.148-2.47v-4.975h-2.072V12.52h5.99v8.316q0 3.087-1.582 4.758-1.582 1.634-4.597 1.634M88.61 27.228q-3.052 0-4.672-1.67-1.62-1.671-1.62-4.722V7.472q0-3.05 1.62-4.72 1.62-1.671 4.672-1.671t4.672 1.67q1.62 1.671 1.62 4.721v13.364q0 3.051-1.62 4.721t-4.672 1.67m0-3.632q2.147 0 2.147-2.506V7.218q0-2.506-2.147-2.506-2.148 0-2.148 2.506V21.09q0 2.505 2.148 2.506"/><path fill="#4F46E5" d="M97.713 1.444h4.144v25.42h-4.144zM104.961 1.444h6.103q3.09 0 4.635 1.598t1.545 4.684v2.506q0 3.087-1.545 4.685t-4.635 1.598h-1.958v10.35h-4.145zm6.103 11.44q1.018 0 1.508-.546.528-.544.527-1.852V7.472q0-1.307-.527-1.852-.49-.545-1.508-.545h-1.958v7.808zM125.029 27.228q-3.012 0-4.559-1.635-1.544-1.67-1.544-4.757v-1.452h3.918v1.743q0 2.47 2.148 2.47 1.054 0 1.582-.582.565-.617.565-1.96 0-1.599-.753-2.797-.753-1.235-2.789-2.942-2.56-2.178-3.579-3.922-1.016-1.78-1.017-3.994 0-3.015 1.582-4.649 1.583-1.67 4.598-1.67 2.975 0 4.483 1.67 1.545 1.635 1.544 4.721v1.053h-3.918V7.218q0-1.307-.527-1.888-.528-.618-1.545-.618-2.073 0-2.072 2.433 0 1.38.753 2.579.79 1.198 2.826 2.905 2.6 2.18 3.58 3.958.978 1.78.979 4.177 0 3.123-1.62 4.793-1.582 1.67-4.635 1.67M139.689 27.228q-3.015 0-4.597-1.635-1.582-1.67-1.582-4.757V1.444h4.144v19.683q0 1.306.528 1.888.564.58 1.582.581 1.017 0 1.545-.58.564-.582.565-1.89V1.445h3.993v19.392q0 3.087-1.582 4.758-1.582 1.634-4.596 1.634M148.819 1.444h5.916l2.637 18.194h.075l2.638-18.194H166v25.42h-3.919V7.619h-.074l-3.015 19.247h-3.467l-3.014-19.247h-.074v19.247h-3.618z"/><path fill="#726BEA" d="M0 26.865c5.099 0 9.232-3.984 9.232-8.899S5.1 9.068 0 9.068v6.229c1.53 0 2.77 1.195 2.77 2.67S1.53 20.635 0 20.635z"/><path fill="#A5B4FC" d="M30.774 12.034a17.1 17.1 0 0 0-5.001-.742c-9.135 0-16.54 7.138-16.54 15.943q.001 1.327.217 2.596h10.278a6.2 6.2 0 0 1-.571-2.596c0-3.522 2.962-6.377 6.616-6.377 1.997 0 3.788.853 5 2.201z"/><path fill="#4F46E5" d="M1.623.17C2.39 6.842 8.26 12.033 15.387 12.033S28.385 6.843 29.15.169h-9.903c-.611 1.478-2.11 2.522-3.86 2.522s-3.249-1.044-3.86-2.522z"/></svg>