<svg xmlns="http://www.w3.org/2000/svg" width="166" height="38" fill="none"><path fill="#3C2979" d="M57.37 25.656h9.984v-2.718h-6.686V10.06H57.37zM74.12 25.885c3.548 0 5.756-2.43 5.756-6.032 0-3.625-2.208-6.047-5.757-6.047s-5.757 2.422-5.757 6.047c0 3.602 2.208 6.032 5.757 6.032m.014-2.513c-1.637 0-2.475-1.5-2.475-3.542 0-2.04.838-3.548 2.475-3.548 1.607 0 2.445 1.507 2.445 3.548s-.838 3.542-2.445 3.542M86.613 30.287c3.343 0 5.719-1.524 5.719-4.516V13.959H89.11v1.965h-.122c-.434-.952-1.386-2.117-3.344-2.117-2.566 0-4.736 1.995-4.736 5.978 0 3.891 2.11 5.704 4.744 5.704 1.866 0 2.91-.937 3.336-1.904h.137v2.14c0 1.607-1.028 2.231-2.437 2.231-1.432 0-2.155-.624-2.422-1.332l-3 .403c.388 1.843 2.193 3.26 5.346 3.26m.068-7.235c-1.591 0-2.46-1.264-2.46-3.282 0-1.988.853-3.382 2.46-3.382 1.577 0 2.46 1.333 2.46 3.381 0 2.064-.899 3.283-2.46 3.283M99.555 25.885c3.549 0 5.758-2.43 5.758-6.032 0-3.625-2.209-6.047-5.758-6.047s-5.757 2.422-5.757 6.047c0 3.602 2.209 6.032 5.757 6.032m.016-2.513c-1.638 0-2.475-1.5-2.475-3.542 0-2.04.837-3.548 2.475-3.548 1.606 0 2.444 1.507 2.444 3.548s-.838 3.542-2.444 3.542M106.779 25.656h3.244V13.96h-3.244zm1.63-13.205c.967 0 1.759-.739 1.759-1.645 0-.899-.792-1.637-1.759-1.637-.96 0-1.752.738-1.752 1.637 0 .906.792 1.645 1.752 1.645M111.979 30.043h3.244v-6.26h.099c.449.975 1.431 2.064 3.32 2.064 2.666 0 4.745-2.11 4.745-6.024 0-4.021-2.171-6.017-4.737-6.017-1.958 0-2.894 1.166-3.328 2.118h-.145v-1.965h-3.198zm3.175-10.235c0-2.087.883-3.42 2.46-3.42 1.607 0 2.46 1.394 2.46 3.42 0 2.04-.868 3.457-2.46 3.457-1.561 0-2.46-1.37-2.46-3.457M134.639 17.294c-.29-2.155-2.026-3.488-4.981-3.488-2.993 0-4.965 1.387-4.958 3.64-.007 1.752 1.097 2.887 3.382 3.344l2.026.404c1.02.205 1.485.578 1.5 1.165-.015.693-.769 1.188-1.904 1.188-1.158 0-1.927-.495-2.124-1.447l-3.191.167c.304 2.24 2.208 3.618 5.307 3.618 3.031 0 5.201-1.546 5.209-3.854-.008-1.69-1.112-2.703-3.38-3.168l-2.118-.426c-1.089-.236-1.493-.61-1.485-1.173-.008-.7.785-1.158 1.789-1.158 1.128 0 1.798.617 1.957 1.371zM143.806 20.676c.008 1.569-1.066 2.391-2.231 2.391-1.226 0-2.018-.86-2.026-2.239v-6.87h-3.244v7.449c.007 2.734 1.607 4.402 3.96 4.402 1.759 0 3.023-.907 3.549-2.277h.121v2.124h3.115V13.96h-3.244zM149.002 25.656h3.244v-7.021c0-1.295.823-2.155 1.904-2.155 1.066 0 1.782.73 1.782 1.88v7.296h3.146v-7.143c0-1.211.693-2.033 1.873-2.033 1.036 0 1.812.647 1.812 1.95v7.226H166V17.79c0-2.536-1.508-3.983-3.686-3.983-1.714 0-3.046.876-3.526 2.217h-.122c-.373-1.356-1.569-2.216-3.176-2.216-1.576 0-2.772.837-3.259 2.216h-.137v-2.064h-3.092z"/><path fill="#341492" d="M16.992.065h10.11l-4.058 11.342C15.9 12.662 10.437 19.573 10.437 27.91c0 3.76 1.112 7.232 2.988 10.024H0L12.273 3.636c.772-2.157 2.64-3.57 4.719-3.57"/><path fill="#000" fill-opacity=".3" d="M27.102.065 24.25 8.036l-.86-7.97z"/><path fill="#4C28B5" d="M33.501.065h-10.11l4.04 11.294C34.718 12.475 40.33 19.46 40.33 27.91c0 3.76-1.111 7.232-2.988 10.024h13.152L38.219 3.636c-.771-2.157-2.64-3.57-4.718-3.57"/><path fill="#4C28B5" d="M15.188 36.843c-1.727-2.46-2.758-5.562-2.758-8.933 0-7.997 5.8-14.48 12.954-14.48s12.953 6.483 12.953 14.48c0 3.371-1.03 6.473-2.758 8.933a17 17 0 0 0-10.195-3.364 17 17 0 0 0-10.196 3.364"/></svg>