<svg xmlns="http://www.w3.org/2000/svg" width="166" height="36" fill="none"><path fill="#3A724F" fill-rule="evenodd" d="m17.66 4.283 2.345-4.06 6.645 3.838-2.343 4.058a.96.96 0 0 0 1.011 1.422l4.49-.867 1.454 7.535-4.49.866c-7.264 1.4-12.81-6.385-9.111-12.792" clip-rule="evenodd"/><path fill="#DC8E43" fill-rule="evenodd" d="m13.6 31.717-2.343 4.06L4.61 31.94l2.344-4.059a.96.96 0 0 0-1.012-1.422l-4.49.866L0 19.79l4.49-.866c7.264-1.4 12.808 6.386 9.11 12.792" clip-rule="evenodd"/><path fill="#14424C" fill-rule="evenodd" d="M13.803 4.283 11.46.223 4.816 4.062l2.344 4.058a.96.96 0 0 1-1.013 1.422l-4.49-.867L.204 16.21l4.49.866c7.264 1.4 12.81-6.385 9.11-12.792" clip-rule="evenodd"/><path fill="#C85D1B" fill-rule="evenodd" d="m17.465 31.717 2.342 4.06 6.646-3.837-2.344-4.059a.96.96 0 0 1 1.013-1.422l4.49.866 1.452-7.534-4.49-.866c-7.263-1.4-12.808 6.386-9.11 12.792z" clip-rule="evenodd"/><path fill="#14424C" d="M144.979 27.024V19.47q0-1.57.723-2.817.748-1.272 2.12-1.996 1.371-.723 3.266-.722c.59-.006 1.177.07 1.746.224a5.6 5.6 0 0 1 1.446.573q.673.349 1.147.848h.05a4.9 4.9 0 0 1 1.147-.848 6 6 0 0 1 1.472-.573 6.7 6.7 0 0 1 1.77-.224q1.895 0 3.267.722 1.37.723 2.119 1.996.748 1.246.748 2.817v7.555h-3.89v-7.43q0-.623-.324-1.122a2.36 2.36 0 0 0-.823-.848 2.23 2.23 0 0 0-1.197-.324q-.673 0-1.221.324c-.342.208-.626.5-.824.848a2.14 2.14 0 0 0-.299 1.122v7.43h-3.865v-7.43q0-.623-.324-1.122a2.3 2.3 0 0 0-.848-.848 2.23 2.23 0 0 0-1.197-.324q-.673 0-1.221.324c-.342.208-.626.5-.824.848-.201.34-.304.727-.299 1.122v7.43zm-8.453.3q-1.97 0-3.416-.749-1.421-.773-2.194-2.069a5.67 5.67 0 0 1-.774-2.918v-7.356h3.866v7.257q0 .672.323 1.247.325.548.873.897a2.6 2.6 0 0 0 1.297.325q.699 0 1.247-.325.574-.349.898-.897.324-.575.324-1.247v-7.257h3.865v7.356q0 1.596-.749 2.918-.747 1.297-2.168 2.07-1.398.748-3.392.748m-18.833-.3v-3.066h6.159a1 1 0 0 0 .449-.1 1 1 0 0 0 .323-.324.82.82 0 0 0 0-.873.8.8 0 0 0-.323-.3.83.83 0 0 0-.449-.124h-2.244q-1.248 0-2.269-.4a3.6 3.6 0 0 1-1.597-1.296q-.573-.897-.573-2.319 0-1.097.524-1.994a4.2 4.2 0 0 1 1.471-1.447 4.06 4.06 0 0 1 2.07-.549h6.158v3.093h-5.56a.86.86 0 0 0-.598.224.75.75 0 0 0-.225.549q0 .35.225.598a.86.86 0 0 0 .598.225h2.194q1.396 0 2.394.423a3.1 3.1 0 0 1 1.571 1.298q.574.896.574 2.318 0 1.122-.574 2.044a4.1 4.1 0 0 1-1.496 1.472q-.923.549-2.095.548zm-8.421-13.09q1.621 0 2.867.523c.816.311 1.55.806 2.145 1.446a6.2 6.2 0 0 1 1.371 2.195q.474 1.245.474 2.768 0 1.894-.798 3.366a5.76 5.76 0 0 1-2.144 2.269q-1.372.822-3.192.823a5.4 5.4 0 0 1-1.472-.2 4.7 4.7 0 0 1-1.246-.573 3.5 3.5 0 0 1-.922-.923h-.076v6.808h-3.864V20.865q0-2.12.847-3.666a5.93 5.93 0 0 1 2.394-2.394q1.546-.873 3.616-.872m0 3.34q-.897 0-1.571.45-.649.423-.998 1.197-.348.748-.348 1.695t.348 1.696q.349.747.998 1.197.674.424 1.571.424t1.545-.424c.435-.302.78-.715.999-1.197q.373-.748.373-1.696 0-.947-.373-1.695-.35-.775-.999-1.197-.648-.45-1.545-.45m-12.73 9.75V14.232h3.89v12.792zm1.944-14.238q-.922 0-1.596-.673-.672-.672-.673-1.596 0-.923.674-1.595.672-.699 1.595-.699t1.596.699q.673.672.673 1.595t-.673 1.596a2.18 2.18 0 0 1-1.596.673m-10.4 14.538q-1.968 0-3.54-.873a6.63 6.63 0 0 1-2.494-2.394q-.897-1.52-.897-3.416 0-1.92.897-3.416a6.63 6.63 0 0 1 2.494-2.394q1.572-.898 3.54-.897 1.97 0 3.517.897a6.44 6.44 0 0 1 2.468 2.394q.923 1.496.923 3.416 0 1.896-.923 3.416a6.44 6.44 0 0 1-2.468 2.394q-1.571.873-3.516.873m0-3.366q.924 0 1.597-.45c.449-.298.81-.711 1.047-1.196q.374-.748.374-1.696 0-.922-.374-1.671a3.04 3.04 0 0 0-1.047-1.197q-.673-.449-1.596-.448-.923 0-1.62.448c-.45.3-.811.713-1.049 1.198a3.7 3.7 0 0 0-.373 1.67q0 .948.373 1.696c.238.485.6.898 1.048 1.197q.698.449 1.62.449m-19.492 8.129V28.77h6.383q.374 0 .623-.249a.74.74 0 0 0 .25-.574v-2.818h-.075a5.9 5.9 0 0 1-1.072.973 4 4 0 0 1-1.247.599 5.4 5.4 0 0 1-1.521.199q-1.696 0-3.042-.798-1.322-.823-2.095-2.27-.748-1.445-.748-3.29 0-1.821.773-3.317.798-1.496 2.32-2.394 1.52-.898 3.715-.897 2.094 0 3.615.873a5.9 5.9 0 0 1 2.394 2.417q.848 1.547.848 3.642v7.48q0 1.72-1.022 2.718-.998 1.022-2.768 1.022zm4.288-8.429q.898 0 1.547-.399c.427-.277.771-.665.996-1.122a3.4 3.4 0 0 0 .35-1.546 3.84 3.84 0 0 0-.349-1.645 2.76 2.76 0 0 0-.998-1.173q-.648-.449-1.546-.448-.873-.001-1.546.424a2.8 2.8 0 0 0-.997 1.146 3.7 3.7 0 0 0-.349 1.621q0 .873.349 1.597.349.698.998 1.121.672.424 1.545.424m-14.688 3.666q-1.97 0-3.54-.873a6.63 6.63 0 0 1-2.494-2.394q-.897-1.52-.898-3.416 0-1.92.898-3.416a6.63 6.63 0 0 1 2.494-2.394q1.57-.898 3.54-.897 1.97 0 3.516.897a6.45 6.45 0 0 1 2.468 2.394q.923 1.496.923 3.416 0 1.896-.923 3.416a6.45 6.45 0 0 1-2.468 2.394q-1.571.873-3.516.873m0-3.366q.922 0 1.596-.45c.449-.299.81-.712 1.047-1.196q.374-.748.373-1.696 0-.922-.373-1.671a3.05 3.05 0 0 0-1.047-1.197q-.674-.449-1.596-.448-.923 0-1.62.448c-.45.3-.811.713-1.048 1.198a3.7 3.7 0 0 0-.374 1.67q0 .948.374 1.696c.237.485.598.898 1.047 1.197q.698.449 1.62.449m-12.378 3.066q-1.62 0-2.842-.722a5.1 5.1 0 0 1-1.895-1.92 5.3 5.3 0 0 1-.674-2.644V9.57h4.189v12.467q0 .599.424 1.048t1.047.449h4.613v3.49z"/></svg>