<svg xmlns="http://www.w3.org/2000/svg" width="166" height="40" fill="none"><path fill="#340E0E" d="M50.224 27.851h11.73v-3.533h-7.56V11.01h-4.17zM68.903 25.496c-1.672 0-2.544-1.46-2.544-3.651s.872-3.674 2.544-3.674 2.568 1.483 2.568 3.674-.895 3.65-2.568 3.65m.024 2.732c3.886 0 6.43-2.756 6.43-6.383s-2.544-6.383-6.43-6.383c-3.863 0-6.454 2.756-6.454 6.383s2.591 6.383 6.454 6.383M82.084 32.02c1.79 0 3.368-.4 4.428-1.342.966-.872 1.602-2.19 1.602-4.004V15.792h-3.675v1.295h-.047c-.706-1.013-1.79-1.649-3.391-1.649-2.992 0-5.065 2.497-5.065 6.03 0 3.698 2.52 5.724 5.23 5.724 1.46 0 2.378-.59 3.085-1.39h.094v1.201c0 1.46-.683 2.308-2.308 2.308-1.272 0-1.908-.541-2.12-1.177h-3.721c.377 2.52 2.567 3.886 5.888 3.886m-.023-7.678c-1.437 0-2.38-1.178-2.38-2.992 0-1.837.943-3.015 2.38-3.015 1.601 0 2.449 1.367 2.449 2.992 0 1.696-.777 3.015-2.45 3.015M95.669 25.496c-1.672 0-2.544-1.46-2.544-3.651s.872-3.674 2.544-3.674 2.567 1.483 2.567 3.674-.895 3.65-2.567 3.65m.023 2.732c3.887 0 6.431-2.756 6.431-6.383s-2.544-6.383-6.43-6.383c-3.863 0-6.454 2.756-6.454 6.383s2.59 6.383 6.453 6.383M103.243 27.851h3.84v-12.06h-3.84zm0-13.732h3.84V11.01h-3.84zM108.749 31.832h3.839v-5.23h.047c.754 1.014 1.861 1.626 3.416 1.626 3.156 0 5.252-2.497 5.252-6.407 0-3.627-1.955-6.383-5.158-6.383-1.649 0-2.827.73-3.651 1.814h-.071v-1.46h-3.674zm6.312-6.572c-1.648 0-2.591-1.342-2.591-3.297s.848-3.439 2.521-3.439c1.648 0 2.426 1.366 2.426 3.439 0 2.049-.895 3.297-2.356 3.297M127.554 28.228c3.156 0 5.488-1.366 5.488-4.004 0-3.086-2.497-3.627-4.617-3.98-1.531-.283-2.897-.401-2.897-1.249 0-.754.73-1.107 1.672-1.107 1.06 0 1.79.33 1.932 1.413h3.533c-.189-2.379-2.026-3.863-5.441-3.863-2.85 0-5.205 1.32-5.205 3.863 0 2.827 2.237 3.392 4.333 3.745 1.602.283 3.062.4 3.062 1.484 0 .777-.73 1.201-1.884 1.201-1.272 0-2.073-.589-2.214-1.79h-3.627c.118 2.662 2.332 4.287 5.865 4.287M138.257 28.205c1.672 0 2.732-.66 3.603-1.838h.071v1.484h3.674v-12.06h-3.839v6.737c0 1.437-.801 2.426-2.12 2.426-1.224 0-1.813-.73-1.813-2.05v-7.112h-3.816v7.914c0 2.685 1.46 4.499 4.24 4.499M147.275 27.851h3.839v-6.76c0-1.437.707-2.45 1.908-2.45 1.154 0 1.696.755 1.696 2.05v7.16h3.839v-6.76c0-1.437.683-2.45 1.908-2.45 1.154 0 1.696.755 1.696 2.05v7.16H166v-7.843c0-2.709-1.366-4.57-4.098-4.57-1.555 0-2.85.66-3.792 2.12h-.048c-.612-1.295-1.813-2.12-3.391-2.12-1.743 0-2.897.825-3.651 2.073h-.071v-1.72h-3.674z"/><path fill="#F15757" fill-rule="evenodd" d="M19.628 39.628c10.84 0 19.628-8.788 19.628-19.628S30.468.372 19.628.372 0 9.16 0 20s8.788 19.628 19.628 19.628m6.123-30.112c.298-1.06-.73-1.685-1.667-1.017l-13.1 9.332c-1.017.725-.857 2.169.241 2.169h3.45v-.027h6.722l-5.477 1.933-2.415 8.579c-.298 1.058.73 1.684 1.667 1.016l13.1-9.332c1.017-.725.857-2.169-.241-2.169H22.8z" clip-rule="evenodd"/></svg>