<svg xmlns="http://www.w3.org/2000/svg" width="166" height="34" fill="none"><path fill="#09355D" d="M47.879 23.321q0 1.236-.508 1.9-.494.664-1.653.664-1.093 0-1.549-.664-.442-.664-.442-1.9V9.564q0-1.236.442-1.9Q44.625 7 45.718 7q1.158 0 1.653.664.508.664.508 1.9zM49.139 19.325q0-1.38.442-2.603a6.1 6.1 0 0 1 1.354-2.16q.91-.924 2.265-1.47 1.366-.548 3.201-.548 1.758 0 3.111.508 1.354.507 2.277 1.419a5.9 5.9 0 0 1 1.406 2.147q.482 1.237.482 2.707 0 1.368-.456 2.59a6 6 0 0 1-1.366 2.135q-.912.91-2.278 1.458-1.367.533-3.176.533-1.782 0-3.15-.507-1.352-.521-2.277-1.42a6 6 0 0 1-1.38-2.134 7.6 7.6 0 0 1-.455-2.655m4.334 0q0 .86.156 1.64.157.768.495 1.354.352.585.91.937.561.338 1.367.338.742 0 1.289-.312.56-.312.91-.872.366-.56.547-1.34a7.8 7.8 0 0 0 .183-1.745q0-.859-.17-1.626a4.3 4.3 0 0 0-.507-1.367 2.6 2.6 0 0 0-.911-.937q-.546-.352-1.34-.352-.795 0-1.354.339a2.66 2.66 0 0 0-.911.924q-.352.586-.508 1.366a8.4 8.4 0 0 0-.156 1.653M74.36 23.373q-.35.651-.859 1.107a4.6 4.6 0 0 1-1.106.754q-.6.286-1.289.43-.676.13-1.392.13-1.198 0-2.187-.43a4.8 4.8 0 0 1-1.705-1.236q-.703-.82-1.093-2.004t-.39-2.707q0-1.432.364-2.682t1.054-2.173a5.1 5.1 0 0 1 1.718-1.458q1.016-.534 2.317-.534 1.483 0 2.629.573 1.158.573 1.991 1.874v-.338q0-.937.508-1.406.52-.48 1.431-.481.547 0 .925.182.376.17.598.52.222.339.313.847.105.495.104 1.132v8.72q0 1.588-.404 2.837-.39 1.25-1.223 2.109t-2.135 1.301q-1.301.456-3.097.456-1.263 0-2.239-.117a8.7 8.7 0 0 1-1.666-.326q-.702-.247-1.067-.546a.98.98 0 0 1-.351-.781q0-.274.078-.52.078-.248.234-.443.17-.182.43-.3.273-.104.663-.104.417 0 .833.052.43.053.885.104.47.066.976.118.52.052 1.12.052.716 0 1.275-.143.56-.144.95-.508.39-.365.599-.976.208-.6.208-1.536zm0-4.047q0-.95-.143-1.732-.13-.78-.456-1.327a2.24 2.24 0 0 0-.871-.86q-.547-.311-1.367-.312-.807 0-1.34.326a2.4 2.4 0 0 0-.834.898 4.3 4.3 0 0 0-.442 1.34 11 11 0 0 0-.117 1.64q0 1.992.703 2.994t2.043 1.002a3 3 0 0 0 1.132-.234q.521-.234.898-.716.378-.482.586-1.223.208-.743.208-1.796M79.486 19.325q0-1.38.442-2.603a6.1 6.1 0 0 1 1.354-2.16q.911-.924 2.265-1.47 1.365-.548 3.202-.548 1.756 0 3.11.508 1.354.507 2.278 1.419a5.9 5.9 0 0 1 1.405 2.147q.483 1.237.482 2.707 0 1.368-.456 2.59a6 6 0 0 1-1.366 2.135q-.912.91-2.278 1.458-1.366.533-3.175.533-1.785 0-3.15-.507-1.354-.521-2.278-1.42a6 6 0 0 1-1.38-2.134 7.6 7.6 0 0 1-.455-2.655m4.334 0q0 .86.156 1.64.157.768.495 1.354.351.585.91.937.561.338 1.368.338.742 0 1.288-.312.56-.312.911-.872.364-.56.547-1.34.182-.795.182-1.745 0-.859-.17-1.626A4.3 4.3 0 0 0 89 16.331a2.6 2.6 0 0 0-.91-.937q-.548-.352-1.341-.352-.795 0-1.354.339a2.66 2.66 0 0 0-.911.924 4.3 4.3 0 0 0-.508 1.366 8.4 8.4 0 0 0-.156 1.653M99.605 8.158q0 .43-.195.768-.196.326-.507.547a2.4 2.4 0 0 1-.73.338 3.3 3.3 0 0 1-1.704-.013 2.4 2.4 0 0 1-.716-.338 1.8 1.8 0 0 1-.495-.56 1.5 1.5 0 0 1-.182-.742q0-.377.17-.69.18-.324.48-.56.3-.233.717-.363a3 3 0 0 1 .91-.13q.43 0 .834.116.416.118.729.339.312.221.494.547.195.325.195.741m-.195 15.163q0 1.236-.507 1.9-.495.664-1.653.664-1.094 0-1.55-.664-.442-.664-.442-1.9v-7.965q0-1.237.443-1.9.455-.664 1.549-.664 1.158 0 1.653.664.507.663.507 1.9zM105.395 19.3q0 .87.13 1.626.144.756.469 1.328.337.56.885.885.56.325 1.379.325.755 0 1.263-.312.52-.325.833-.885.313-.573.442-1.34a9 9 0 0 0 .143-1.667q0-.716-.104-1.457a4.7 4.7 0 0 0-.39-1.367 2.66 2.66 0 0 0-.794-1.002q-.508-.39-1.327-.39-.82 0-1.393.26a2.17 2.17 0 0 0-.911.794q-.338.533-.482 1.34-.143.795-.143 1.861m-.013-3.944a4.4 4.4 0 0 1 .833-1.21 5.13 5.13 0 0 1 2.395-1.393 5.1 5.1 0 0 1 1.34-.183q1.198 0 2.161.534a5 5 0 0 1 1.639 1.458q.69.91 1.056 2.16.364 1.237.364 2.656 0 1.47-.391 2.694-.377 1.223-1.081 2.108a4.95 4.95 0 0 1-1.666 1.367q-.963.494-2.146.494-1.458 0-2.604-.677-1.145-.675-1.9-1.9v4.686q0 1.236-.508 1.9-.494.664-1.652.664-1.094 0-1.549-.664-.443-.664-.443-1.9V15.356q0-1.237.443-1.9.455-.664 1.549-.664 1.158 0 1.652.664.508.664.508 1.9M119.749 16.28q0 .507.442.794.442.273 1.224.455.741.17 1.523.326.78.156 1.522.364.742.195 1.393.469.65.273 1.145.69.495.402.781.988.286.573.286 1.38 0 1.015-.416 1.81-.416.78-1.184 1.327-.755.546-1.809.846-1.055.3-2.33.312a17 17 0 0 1-2.33-.156 9.5 9.5 0 0 1-1.992-.456q-.858-.312-1.379-.767-.52-.469-.52-1.094 0-.546.351-.846.35-.3.898-.299.209 0 .495.078t.624.195.716.26q.39.13.807.235.52.143 1.067.234.56.078 1.146.078.363 0 .715-.065.352-.078.626-.221.286-.156.468-.39t.221-.573q.04-.078.065-.156a.6.6 0 0 0 .026-.183q0-.365-.338-.65-.326-.286-.924-.456-1.003-.235-1.914-.43a27 27 0 0 1-1.692-.416q-.767-.221-1.406-.508a4 4 0 0 1-1.067-.702 3 3 0 0 1-.676-1.002q-.235-.586-.235-1.42 0-.897.404-1.6a3.47 3.47 0 0 1 1.185-1.197q.767-.482 1.861-.73 1.093-.26 2.472-.26 2.472 0 3.762.6 1.301.585 1.302 1.535 0 .535-.353.82a1.34 1.34 0 0 1-.845.273q-.26 0-.547-.09a10 10 0 0 0-.663-.222 6 6 0 0 0-.938-.221 7 7 0 0 0-1.327-.105q-.6 0-1.094.053a3.5 3.5 0 0 0-.833.182 1.34 1.34 0 0 0-.533.351.85.85 0 0 0-.182.56M133.348 21.056q0 .612.156 1.068.168.455.455.768.288.3.664.455.391.144.833.143.52 0 1.002-.156a2.35 2.35 0 0 0 .847-.482q.377-.325.598-.82t.221-1.158v-5.518q0-1.237.442-1.9.457-.664 1.55-.664 1.157 0 1.652.664.508.664.508 1.9v7.965q0 1.236-.508 1.9-.495.664-1.652.664-1.093 0-1.55-.664-.442-.663-.442-1.9-.273.6-.716 1.093a4.4 4.4 0 0 1-1.015.86 5 5 0 0 1-1.275.546q-.69.195-1.497.195-.871 0-1.68-.3a4.2 4.2 0 0 1-1.404-.91 4.5 4.5 0 0 1-.977-1.51q-.364-.898-.364-2.095v-5.844q0-1.237.442-1.9.456-.664 1.549-.664 1.158 0 1.653.664.508.664.508 1.9zM144.161 15.356q0-1.237.443-1.9.454-.664 1.548-.664 1.16 0 1.654.664.506.664.507 1.9.26-.625.703-1.133a4.8 4.8 0 0 1 1.028-.885q.586-.364 1.262-.56.677-.207 1.406-.208.676 0 1.328.183.663.17 1.224.56.572.377 1.001.963.43.585.665 1.405a5.7 5.7 0 0 1 .949-1.47q.547-.599 1.184-.964a4.8 4.8 0 0 1 1.328-.52 6.5 6.5 0 0 1 1.405-.157q.834 0 1.588.3.768.3 1.341.911.587.599.924 1.523.351.911.351 2.134v5.883q0 1.236-.508 1.9-.493.664-1.652.664-1.094 0-1.548-.664-.444-.664-.444-1.9v-5.7q0-.586-.155-1.042a2.1 2.1 0 0 0-.443-.78 1.7 1.7 0 0 0-.651-.482 1.95 1.95 0 0 0-.806-.17q-.535 0-1.015.17a2.3 2.3 0 0 0-.847.52 2.7 2.7 0 0 0-.573.898q-.208.547-.207 1.315v5.271q0 1.236-.508 1.9-.495.664-1.654.664-1.093 0-1.548-.664-.443-.664-.443-1.9v-5.453q0-1.34-.559-2.03-.547-.69-1.497-.69-.56 0-1.042.182-.481.183-.833.533a2.55 2.55 0 0 0-.559.872 3.4 3.4 0 0 0-.195 1.198v5.388q0 1.236-.507 1.9-.495.664-1.654.664-1.094 0-1.548-.664-.444-.664-.443-1.9z"/><path fill="#51A3EE" d="M16.66 23.664a6.664 6.664 0 1 1 0-13.328 6.664 6.664 0 0 1 0 13.328"/><path fill="#51A3EE" d="M3.75 19.276c-1.931.34-3.255 2.206-2.514 4.022a16.66 16.66 0 0 0 31.057-.542c.678-1.84-.71-3.659-2.652-3.931s-3.685 1.14-4.644 2.85a9.56 9.56 0 0 1-16.506.288c-1.018-1.675-2.81-3.027-4.741-2.687"/><path fill="#0E4F8B" d="M33.19 19.082A17 17 0 0 0 33.319 17c0-9.2-7.459-16.66-16.66-16.66C7.46.34 0 7.8 0 17q.001 1.359.211 2.659a5.2 5.2 0 0 1 3.25-2.023c1.395-.246 2.664.092 3.736.725a9.558 9.558 0 1 1 18.966-.33c1.05-.67 2.306-1.054 3.71-.856a5.2 5.2 0 0 1 3.317 1.907"/></svg>