<svg xmlns="http://www.w3.org/2000/svg" width="166" height="38" fill="none"><g fill="#394149"><path d="M17.154 5.75V.31H0v37.38h17.154v-5.44a13.25 13.25 0 0 1 0-26.5M17.154 5.75v26.5a13.25 13.25 0 0 0 0-26.5M40.031 9.079h3.84v18.498h-3.84zM46.022 21.24a6.72 6.72 0 1 1 6.683 6.721 6.63 6.63 0 0 1-6.683-6.72m9.627 0a2.919 2.919 0 1 0-2.919 2.996 2.84 2.84 0 0 0 2.894-2.996z"/><path d="M74.583 14.904V26.95c0 4.25-3.329 6.055-6.695 6.055a6.4 6.4 0 0 1-6.005-3.072l3.24-1.87a2.905 2.905 0 0 0 2.893 1.6 2.562 2.562 0 0 0 2.867-2.713v-1.165a4.52 4.52 0 0 1-3.7 1.639 6.4 6.4 0 1 1 0-12.802 4.52 4.52 0 0 1 3.7 1.638v-1.28zm-3.7 6.08a3.074 3.074 0 1 0-3.072 2.945 2.87 2.87 0 0 0 3.072-2.945M76.746 21.24a6.721 6.721 0 1 1 6.709 6.721 6.643 6.643 0 0 1-6.709-6.72m9.627 0a2.92 2.92 0 0 0-5.013-1.955 2.917 2.917 0 0 0 .49 4.47 2.9 2.9 0 0 0 1.617.48 2.84 2.84 0 0 0 2.719-1.848c.136-.366.196-.756.174-1.147zM91.942 11.511a2.279 2.279 0 1 1 2.279 2.279 2.304 2.304 0 0 1-2.279-2.279m.371 3.393h3.84v12.673h-3.84zM112.591 21.24a6.4 6.4 0 0 1-6.106 6.721 4.76 4.76 0 0 1-3.841-1.549v6.26h-3.84V14.904h3.84v1.19a4.75 4.75 0 0 1 3.841-1.536 6.4 6.4 0 0 1 5.73 4.213c.286.79.414 1.63.376 2.47m-3.84 0a3.02 3.02 0 0 0-1.921-2.737 3.02 3.02 0 0 0-4.07 2.26 3.02 3.02 0 0 0 2.982 3.575 2.893 2.893 0 0 0 3.009-3.098M124.279 23.775c0 2.919-2.56 4.16-5.274 4.16a5.56 5.56 0 0 1-5.454-3.02l3.303-1.87a2.076 2.076 0 0 0 2.138 1.498c.909 0 1.37-.281 1.37-.793 0-1.396-6.235-.653-6.235-5.044 0-2.766 2.33-4.148 4.967-4.148a5.55 5.55 0 0 1 5.019 2.701L120.81 19a1.87 1.87 0 0 0-1.703-1.114c-.665 0-1.062.256-1.062.704 0 1.46 6.234.5 6.234 5.185M138.195 14.904v12.673h-3.841v-1.19a4.37 4.37 0 0 1-3.61 1.574c-2.56 0-4.749-1.83-4.749-5.248v-7.81h3.84v7.233c-.031.303.005.608.105.895s.26.55.47.769a2.1 2.1 0 0 0 1.64.64c1.382 0 2.355-.819 2.355-2.56v-6.976zM159.958 19.794v7.783h-3.841v-7.45c0-1.28-.602-2.074-1.818-2.074s-1.984.883-1.984 2.38v7.144h-3.841v-7.45c0-1.28-.601-2.074-1.817-2.074-1.217 0-1.985.883-1.985 2.38v7.144h-3.84V14.903h3.84v1.165a3.92 3.92 0 0 1 3.406-1.51 3.75 3.75 0 0 1 3.315 1.664 4.172 4.172 0 0 1 3.674-1.664c2.996 0 4.891 2.074 4.891 5.236M163.184 14.827a2.816 2.816 0 1 0 0-5.633 2.816 2.816 0 0 0 0 5.633"/></g></svg>