<svg xmlns="http://www.w3.org/2000/svg" width="166" height="32" fill="none"><g fill="#0E1534"><path d="M15.09 31.09c8.336 0 15.092-6.755 15.092-15.09V5.436A4.527 4.527 0 0 0 25.655.91h-9.81v6.62c0 1.511.092 3.076.885 4.362a7.55 7.55 0 0 0 5.21 3.491l.288.047a.603.603 0 0 1 0 1.142l-.289.047a7.55 7.55 0 0 0-6.23 6.23l-.047.29a.604.604 0 0 1-1.142 0l-.047-.29a7.55 7.55 0 0 0-3.491-5.21c-1.286-.791-2.851-.883-4.362-.883H.018C.413 24.738 7.01 31.09 15.091 31.09"/><path d="M0 15.245h6.62c1.511 0 3.076-.092 4.362-.884a7.56 7.56 0 0 0 2.47-2.47c.792-1.286.884-2.851.884-4.362V.91H4.527A4.527 4.527 0 0 0 0 5.436zM35.052 2.418a1.51 1.51 0 1 1-3.018 0 1.51 1.51 0 0 1 3.018 0m124.694 7.624c4.218 0 6.254 2.947 6.254 6.36v6.41h-4.415v-5.65c0-1.547-.564-2.823-2.183-2.823s-2.158 1.276-2.158 2.823v5.649h-4.415v-5.649c0-1.547-.539-2.823-2.158-2.823s-2.183 1.276-2.183 2.823v5.649h-4.414V16.4c0-3.413 2.035-6.36 6.253-6.36 2.306 0 3.974.909 4.734 2.407.809-1.498 2.576-2.407 4.685-2.407zm-23.606 8.84c1.423 0 2.036-1.301 2.036-2.849v-5.5h4.414v6.04c0 3.61-2.109 6.607-6.45 6.607s-6.45-2.996-6.45-6.607v-6.04h4.415v5.5c0 1.547.612 2.85 2.035 2.85m-12.942 4.322c-2.771 0-4.562-.958-5.616-2.824l3.188-1.793c.442.786 1.103 1.179 2.207 1.179.908 0 1.325-.32 1.325-.712 0-1.498-6.475.024-6.475-4.739 0-2.309 1.962-4.175 5.297-4.175 2.919 0 4.513 1.424 5.225 2.8l-3.189 1.817c-.269-.737-1.104-1.18-1.937-1.18-.638 0-.981.271-.981.64 0 1.522 6.474.122 6.474 4.739 0 2.578-2.526 4.248-5.518 4.248m-15.424 5.255h-4.415V16.647c0-3.757 2.821-6.483 6.745-6.483 3.826 0 6.745 2.923 6.745 6.483 0 3.93-2.6 6.533-6.5 6.533-.907 0-1.814-.27-2.575-.689zm2.33-9.43c1.398 0 2.33-1.08 2.33-2.357 0-1.301-.932-2.358-2.33-2.358s-2.33 1.057-2.33 2.358c0 1.277.932 2.357 2.33 2.357M98.937 9.232c-1.447 0-2.649-1.204-2.649-2.653 0-1.448 1.202-2.652 2.649-2.652s2.649 1.204 2.649 2.652c0 1.45-1.202 2.653-2.65 2.653m-2.207 1.3h4.415v12.28H96.73zM88.26 23.18c-3.827 0-6.746-2.947-6.746-6.533 0-3.56 2.919-6.507 6.745-6.507s6.745 2.947 6.745 6.507c0 3.586-2.919 6.533-6.745 6.533m0-4.15c1.397 0 2.33-1.081 2.33-2.358 0-1.301-.933-2.382-2.33-2.382-1.399 0-2.33 1.08-2.33 2.382 0 1.277.931 2.357 2.33 2.357m-15.082 9.797c-3.04 0-5.248-1.35-6.377-3.757l3.655-1.965c.392.836 1.128 1.695 2.648 1.695 1.595 0 2.65-1.007 2.772-2.775-.588.516-1.52.909-2.918.909-3.41 0-6.157-2.628-6.157-6.312 0-3.56 2.919-6.458 6.745-6.458 3.925 0 6.745 2.726 6.745 6.483v4.863c0 4.42-3.066 7.317-7.113 7.317m.294-10.043c1.325 0 2.33-.909 2.33-2.26 0-1.325-1.005-2.21-2.33-2.21-1.3 0-2.33.885-2.33 2.211 0 1.35 1.03 2.26 2.33 2.26m-14.16 4.396c-3.826 0-6.745-2.947-6.745-6.533 0-3.56 2.92-6.507 6.746-6.507 3.825 0 6.744 2.947 6.744 6.507 0 3.586-2.918 6.533-6.744 6.533m0-4.15c1.399 0 2.33-1.081 2.33-2.358 0-1.301-.931-2.382-2.33-2.382-1.398 0-2.33 1.08-2.33 2.382 0 1.277.932 2.357 2.33 2.357M44.529 6.235v12.4h7.31v4.175h-7.924c-2.795 0-3.923-1.473-3.923-3.806V6.236z"/></g></svg>