<svg xmlns="http://www.w3.org/2000/svg" width="166" height="46" fill="none"><path fill="#43505C" d="M54.732 29.642V10.698h-3.107v18.944zM56.633 23.328c0 3.87 2.597 6.62 6.544 6.62s6.544-2.75 6.544-6.62-2.597-6.62-6.544-6.62-6.544 2.75-6.544 6.62m3.132 0c0-2.266 1.35-3.845 3.412-3.845s3.412 1.579 3.412 3.845c0 2.24-1.35 3.845-3.412 3.845s-3.412-1.605-3.412-3.845M70.766 23.073c0 3.667 2.368 6.315 5.907 6.315 1.833 0 3.412-.739 4.201-1.96v2.138c0 2.062-1.298 3.437-3.463 3.437-1.935 0-3.259-.942-3.437-2.597h-3.132c.407 3.285 2.928 5.424 6.391 5.424 4.074 0 6.671-2.674 6.671-6.824V17.064h-2.75l-.178 1.706c-.764-1.324-2.343-2.113-4.201-2.113-3.59 0-6.01 2.724-6.01 6.416m3.157-.076c0-2.088 1.324-3.616 3.284-3.616 2.14 0 3.565 1.553 3.565 3.616 0 2.088-1.426 3.692-3.565 3.692-1.935 0-3.284-1.579-3.284-3.692M85.441 23.328c0 3.87 2.598 6.62 6.544 6.62 3.947 0 6.544-2.75 6.544-6.62s-2.597-6.62-6.544-6.62-6.544 2.75-6.544 6.62m3.132 0c0-2.266 1.35-3.845 3.412-3.845 2.063 0 3.412 1.579 3.412 3.845 0 2.24-1.35 3.845-3.412 3.845s-3.412-1.605-3.412-3.845M101.891 14.492a1.853 1.853 0 0 0 1.859-1.859c0-1.018-.841-1.833-1.859-1.833a1.81 1.81 0 0 0-1.833 1.833c0 1.045.789 1.86 1.833 1.86m-1.553 15.15h3.106V17.064h-3.106zM106.166 35.473h3.03v-7.562c.789 1.298 2.495 2.062 4.379 2.062 3.718 0 5.933-2.851 5.882-6.773-.076-3.946-2.342-6.518-5.907-6.518-1.91 0-3.641.84-4.405 2.292l-.178-1.91h-2.801zm3.157-12.12c0-2.266 1.375-3.845 3.539-3.845s3.463 1.605 3.463 3.845-1.298 3.82-3.463 3.82-3.539-1.554-3.539-3.82M120.245 25.874c.102 2.495 2.037 4.1 5.042 4.1 2.953 0 4.965-1.58 4.965-4.024 0-1.808-1.12-3.03-3.183-3.539l-2.215-.535c-.942-.254-1.579-.585-1.579-1.4 0-.866.688-1.477 1.808-1.477 1.171 0 1.935.662 1.935 1.757h2.827c-.102-2.495-1.961-4.074-4.685-4.074-2.699 0-4.711 1.579-4.711 3.972 0 1.63.942 2.98 3.361 3.616l2.19.56c.815.23 1.324.611 1.324 1.324 0 .993-.942 1.451-2.088 1.451-1.375 0-2.164-.636-2.164-1.731zM136.696 29.973c1.706 0 3.336-.789 4.074-1.96l.204 1.63h2.903V17.063h-3.107v6.595c0 2.266-.866 3.539-2.903 3.539-1.578 0-2.673-.764-2.673-3.361v-6.773h-3.107v7.868c0 3.004 1.63 5.041 4.609 5.041M149.724 29.642v-7.23c0-2.038 1.197-3.005 2.674-3.005s2.444.942 2.444 2.724v7.511h3.03v-7.206c0-2.062 1.171-3.03 2.648-3.03 1.502 0 2.47.943 2.47 2.725v7.511h3.004v-8.224c0-2.903-1.604-4.736-4.659-4.736-1.91 0-3.412.917-4.023 2.394-.688-1.477-2.063-2.394-4.151-2.394-1.476 0-2.8.688-3.539 1.808l-.153-1.426h-2.851v12.578z"/><path fill="#8E98A1" d="M142.277 40.883c.463 0 .864-.39.864-.852a.875.875 0 0 0-.864-.865.88.88 0 0 0-.877.865c0 .463.402.852.877.852M144.035 37.742c0 1.863 1.145 3.117 2.813 3.117 1.437 0 2.533-.864 2.764-2.155h-1.096c-.207.718-.84 1.144-1.595 1.144-1.072 0-1.754-.828-1.754-2.119 0-1.315.719-2.118 1.778-2.118.731 0 1.364.39 1.559 1.156h1.096c-.195-1.303-1.218-2.18-2.642-2.18-1.73 0-2.923 1.28-2.923 3.155M150.044 37.73c0 1.79 1.218 3.13 3.044 3.13s3.045-1.34 3.045-3.13-1.218-3.13-3.045-3.13-3.044 1.34-3.044 3.13m1.157 0c0-1.218.743-2.107 1.887-2.107s1.888.889 1.888 2.106c0 1.218-.743 2.107-1.888 2.107-1.144 0-1.887-.889-1.887-2.107M158.255 40.725v-3.58c0-.938.585-1.547 1.437-1.547.816 0 1.327.524 1.327 1.462v3.665h1.121v-3.568c0-.95.572-1.559 1.437-1.559.803 0 1.315.524 1.315 1.462v3.665H166v-3.909c0-1.376-.804-2.216-2.168-2.216-.925 0-1.644.45-1.936 1.181-.304-.73-.974-1.181-1.948-1.181-.743 0-1.401.34-1.73.925l-.085-.755h-1.023v5.955z"/><path fill="#43505C" fill-rule="evenodd" d="m0 23.482.002-.222.005-.222.006-.222.01-.222.01-.222.014-.222.016-.222.018-.222.02-.221.023-.222.025-.221.027-.222.03-.221.031-.22.034-.222.037-.22.038-.22.041-.22.043-.22.046-.22.047-.218.05-.219.052-.218.055-.218.057-.217.059-.217.06-.216.064-.216.066-.215.068-.215.07-.214.072-.213.075-.213.077-.212.079-.212.08-.21.084-.211.086-.21.088-.208.09-.208.092-.207.094-.206.096-.206.099-.204.1-.204.103-.203.105-.201.107-.201.11-.2.11-.2.114-.197.115-.197.118-.196.12-.194.12-.194.124-.193.126-.19.128-.191.13-.19.13-.187.134-.187.136-.185.137-.184.14-.183.141-.182.143-.18.146-.179.147-.177.149-.176.15-.175.153-.174.155-.172.156-.17.158-.17.16-.167.162-.166.163-.164.165-.163.167-.162.169-.16.17-.158.172-.156.174-.155.175-.154.177-.151.179-.15.18-.149.182-.146.183-.145.185-.144.187-.14.188-.14.19-.138.19-.136.193-.135.194-.132.195-.13.197-.13.198-.126.2-.125.2-.123.203-.12.203-.12.205-.117.206-.115.207-.114.209-.11.21-.11.21-.107.213-.105.213-.104.215-.1.215-.1.217-.097.218-.094.219-.093.22-.09.22-.09.222-.086.223-.084.224-.082.225-.08.225-.078.227-.075.227-.074.228-.071.23-.069.229-.067.23-.064.232-.063.232-.06.233-.057.233-.056.234-.053.235-.051.235-.049.236-.046.236-.045.238-.041.237-.04.238-.037.238-.035.24-.033.239-.03.24-.028.24-.025.24-.023.24-.021.242-.019.241-.016 1.298-.074.074 6.253h.222l.18.001.178.003.18.005.18.007.179.009.18.01.179.012.179.014.18.016.179.017.179.02.179.02.179.023.179.024.178.027.179.028.178.03.178.03.178.034.178.035.177.037.177.039.177.04.176.042.176.044.176.046.175.047.175.05.175.05.174.053.173.054.173.056.173.058.172.06.172.06.171.063.17.065.17.066.17.068.169.07.168.072.167.073.167.075.166.076.165.078.165.08.164.082.163.083.163.085.161.086.161.088.16.09.16.091.158.093.157.094.156.096.156.098.155.1.154.1.152.103.152.104.151.105.15.107.149.108.147.11.147.112.146.113.144.115.144.116.142.117.141.12.14.12.14.121.137.123.136.125.136.126.134.128.133.128.131.13.13.132.13.133.127.134.126.136.126.136.123.139.122.139.121.14.12.143.118.143.117.144.115.146.114.147.113.148.11.149.11.15.108.152.107.152.105.154.104.155.101.156.1.157.1.158.097.16.096.16.094.16.092.163.091.163.09.164.087.165.086.166.084.167.083.168.08.169.08.17.077.17.076.171.074.172.072.173.071.174.069.175.067.175.065.176.064.177.062.177.06.179.058.178.056.18.055.18.053.18.05.182.05.182.047.183.045.183.044.183.041.184.04.185.038.185.036.186.034.186.032.186.03.187.03.187.026.188.024.188.023.188.02.188.02.19.017.188.015.19.013.19.01.19.01.19.007.19.005.19.004.19.001.191v.19l-.003.192-.004.19-.007.192-.008.19-.01.191-.013.191-.014.191-.017.191-.018.191-.02.19-.022.191-.024.19-.026.191-.029.19-.03.19-.032.19-.033.19-.036.189-.038.19-.04.188-.042.188-.044.188-.045.188-.048.188-.05.187-.051.186-.053.187-.056.185-.057.186-.06.184-.06.185-.064.184-.065.183-.067.183-.069.182-.07.181-.073.181-.074.18-.077.18-.078.18-.08.178-.082.177-.084.177-.086.176-.087.176-.09.175-.091.173-.093.173-.095.173-.097.17-.098.171-.1.17-.103.169-.104.167-.105.167-.108.166-.109.165-.11.164-.113.163-.115.161-.116.161-.117.16-.12.159-.121.157-.123.156-.124.156-.126.154-.128.153-.13.151-.13.151-.133.15-.134.148-.136.146-.137.146-.14.144-.14.143-.142.142-.143.14-.145.14-.146.137-.148.136-.15.135-.15.134-.153.132-.154.13-.155.13-.156.127-.158.127-.16.124-.16.124-.162.121-.163.12-.165.12-.166.116-.167.116-.168.114-.17.112-.17.11-.173.11-.173.107-.175.106-.175.104-.177.103-.178.1-.179.1-.18.097-.181.095-.182.094-.184.092-.184.09-.186.09-.186.086-.187.085-.188.084-.19.08-.19.08-.19.078-.192.076-.193.074-.194.073-.194.07-.196.068-.195.067-.197.065-.198.063-.198.06-.199.06-.2.056-.2.056-.2.053-.203.05-.202.05-.203.048-.203.045-.204.043-.204.042-.205.04-.206.037-.206.035-.206.033-.207.032-.207.029-.208.027-.208.026-.209.023-.208.021-.21.02-.208.017-.21.015-.21.013-.21.01-.21.01-.21.007-.211.005-.21.002-.212.001-.21-.001-.212-.004-.21-.005-.212-.008-.21-.01-.212-.01-.211-.015-.211-.016-.211-.018-.211-.02-.21-.022-.211-.024-.21-.026-.211-.028-.21-.03-.21-.033-.21-.035-.209-.036-.209-.039-.209-.04-.208-.043-.208-.045-.208-.047-.207-.05-.207-.05-.207-.053-.206-.056-.205-.057-.205-.059-.205-.061-.204-.064-.203-.065-.203-.067-.202-.07-.202-.07-.2-.074-.2-.076-.2-.077-.2-.08-.198-.08-.197-.084-.197-.085-.195-.088-.195-.089-.194-.091-.194-.093-.192-.095-.192-.097-.19-.1-.19-.1-.189-.102-.188-.105-.187-.107-.185-.108-.185-.11-.184-.112-.182-.114-.182-.116-.18-.118-.18-.12-.178-.12-.177-.123-.175-.125-.175-.127-.173-.128-.172-.13-.171-.132-.17-.134-.168-.135-.167-.137-.166-.139-.164-.14-.163-.142-.161-.144-.16-.145-.159-.147-.157-.149-.156-.15-.154-.152-.153-.153-.151-.155-.15-.157-.148-.158-.147-.16-.145-.16-.144-.163-.141-.164-.14-.165-.14-.167-.136-.168-.136-.17-.133-.171-.132-.173-.13-.174-.129-.175-.126-.176-.125-.178-.124-.18-.12-.18-.12-.182-.118-.183-.116-.184-.114-.185-.113-.187-.11-.188L2.8 34.2l-.106-.19-.105-.192-.103-.192-.1-.194-.1-.194-.096-.196-.095-.196-.093-.198-.092-.198-.089-.2-.087-.2-.085-.202-.083-.202-.08-.203-.08-.204-.076-.205-.075-.206-.073-.207-.07-.207-.069-.208-.066-.21-.064-.209-.063-.21-.06-.211-.057-.212-.056-.212-.054-.213-.051-.214-.05-.214-.046-.215-.045-.215-.043-.216-.04-.217-.039-.216-.036-.218-.034-.218-.031-.218-.03-.218-.027-.22-.025-.219-.023-.22-.02-.22-.018-.22-.016-.22-.014-.22-.012-.222-.009-.22-.007-.222-.004-.222L0 23.704zM21.453 7.243l-.05-4.262-.049.004-.22.024-.22.025-.219.028-.218.03-.219.032-.218.034-.217.036-.217.039-.216.04-.217.042-.215.045-.215.047-.214.048-.214.051-.213.053-.212.055-.212.057-.211.06-.21.06-.21.063-.209.066-.208.067-.207.069-.206.071-.206.073-.205.075-.204.077-.203.08-.201.08-.202.083-.2.085-.2.087-.197.089-.198.09-.196.093-.195.094-.194.096-.193.098-.192.1-.19.102-.19.103-.189.106-.187.107-.186.109-.185.11-.183.113-.183.114-.181.116-.18.118-.178.119-.177.12-.177.124-.174.124-.173.126-.172.127-.17.13-.17.13-.167.133-.166.134-.165.135-.163.137-.162.14-.16.14-.159.14-.157.144-.156.145-.153.145-.153.148-.15.149-.15.15-.148.152-.146.153-.144.154-.143.156-.141.157-.14.158-.137.16-.136.16-.134.162-.133.164-.13.164-.13.166-.127.167-.125.168-.124.17-.122.17-.12.171-.118.173-.117.173-.115.175-.112.176-.111.176-.11.178-.106.179-.106.18-.103.18-.101.181-.1.182-.098.184-.095.184-.094.185-.092.186-.09.186-.088.187-.086.189-.084.188-.082.19-.08.19-.078.191-.076.192-.074.192-.072.193-.07.194-.068.193-.066.195-.064.195-.062.196-.06.196-.057.197-.056.197-.054.198-.052.198-.05.198-.047.199-.045.199-.044.2-.041.2-.04.2-.037.2-.035.2-.033.201-.03.201-.03.201-.027.202-.024.202-.023.201-.02.202-.02.202-.016.202-.014.202-.013.202-.01.202-.008.203-.006.202-.004.202-.002.201v.203l.002.201.005.202.006.201.008.202.01.2.013.202.015.2.016.2.019.2.02.2.023.2.025.2.027.198.029.199.03.198.033.198.035.197.037.197.039.196.04.196.043.195.045.195.047.194.049.194.05.193.053.193.055.192.056.191.059.19.06.19.062.19.064.188.066.188.068.187.07.186.072.186.073.185.076.183.077.183.08.183.08.18.083.181.084.18.087.178.088.178.09.177.091.175.094.175.095.174.096.172.1.172.1.17.101.17.104.168.105.168.107.166.109.165.11.163.112.163.113.162.115.16.117.159.118.158.12.156.121.156.123.154.124.153.126.151.127.15.129.149.13.148.132.146.133.144.134.144.136.142.137.14.139.14.14.137.141.136.143.135.144.133.145.132.146.13.148.13.149.127.15.125.151.125.153.122.154.121.155.12.156.118.157.116.158.115.16.113.16.111.161.11.162.109.164.106.165.105.165.103.166.102.168.1.168.098.17.097.17.094.17.093.172.092.173.09.173.087.175.086.175.084.176.083.176.08.178.08.178.077.178.075.18.074.18.072.18.07.182.068.182.067.182.064.183.063.184.061.184.06.184.056.185.056.186.053.186.052.186.05.187.048.187.046.188.044.188.043.188.04.188.04.19.036.188.035.19.033.189.031.19.03.19.027.19.026.19.024.19.021.191.02.19.018.191.017.191.014.19.012.192.011.19.009.191.007.191.005.19.003h.381l.191-.002.19-.005.19-.006.19-.008.19-.01.19-.012.189-.014.19-.015.188-.018.188-.019.188-.02.188-.024.188-.024.187-.027.187-.028.186-.03.186-.032.185-.034.185-.036.185-.037.184-.04.184-.04.183-.043.182-.044.182-.046.181-.048.181-.05.18-.052.18-.053.179-.055.178-.056.177-.059.177-.06.176-.062.175-.063.175-.065.174-.067.173-.068.172-.07.171-.072.171-.074.17-.075.168-.076.168-.079.168-.08.166-.081.165-.083.164-.085.163-.086.163-.088.161-.089.16-.09.16-.093.158-.094.157-.095.156-.097.155-.098.154-.1.153-.1.152-.104.15-.103.15-.106.148-.107.147-.108.145-.11.145-.11.143-.113.143-.114.14-.114.14-.117.139-.117.136-.12.136-.12.135-.12.133-.123.132-.124.13-.125.13-.127.127-.127.126-.129.125-.13.124-.13.122-.133.12-.133.12-.134.118-.136.116-.136.115-.138.113-.138.112-.14.11-.14.11-.142.107-.143.105-.143.105-.145.103-.145.1-.147.1-.147.099-.148.096-.15.095-.15.093-.15.092-.151.09-.153.089-.153.087-.154.085-.154.083-.156.082-.156.08-.157.08-.157.076-.158.076-.16.073-.159.072-.16.07-.16.07-.162.066-.162.065-.162.064-.163.061-.164.06-.164.059-.164.057-.165.055-.166.053-.165.051-.167.05-.166.048-.168.046-.167.044-.168.043-.168.041-.168.04-.17.037-.168.036-.17.033-.169.033-.17.03-.17.029-.17.027-.17.025-.17.023-.171.022-.17.02-.172.018-.17.016-.172.015-.17.013-.172.01-.17.01-.172.008-.171.005-.171.004-.17.003-.172v-.17l-.001-.171-.003-.171-.005-.17-.006-.17-.008-.171-.01-.17-.012-.17-.014-.17-.015-.169-.017-.169-.018-.168-.02-.169-.023-.168-.023-.168-.026-.168-.027-.167-.029-.166-.03-.167-.033-.166-.034-.165-.035-.166-.037-.164-.04-.165-.04-.163-.042-.164-.044-.162-.046-.162-.047-.162-.048-.161-.05-.16-.053-.16-.053-.16-.056-.158-.056-.158-.059-.158-.06-.156-.061-.156-.063-.156-.065-.154-.066-.154-.068-.153-.07-.152-.07-.152-.072-.15-.074-.15-.075-.15-.077-.148-.078-.147-.08-.147-.08-.145-.084-.145-.083-.144-.086-.143-.087-.142-.088-.141-.09-.14-.09-.14-.093-.138-.093-.137-.096-.136-.096-.135-.098-.135-.099-.133-.1-.132-.102-.13-.103-.13-.104-.13-.105-.127-.107-.127-.108-.125-.109-.124-.11-.123-.111-.123-.113-.12-.114-.12-.115-.119-.116-.117-.117-.116-.119-.114-.12-.114-.12-.112-.121-.111-.123-.11-.124-.109-.124-.107-.126-.106-.127-.104-.128-.104-.129-.102-.13-.1-.13-.1-.132-.098-.132-.096-.133-.096-.135-.094-.135-.092-.136-.091-.136-.09-.138-.088-.139-.087-.14-.086-.14-.084-.14-.082-.141-.081-.143-.08-.143-.079-.144-.077-.144-.075-.145-.074-.146-.072-.147-.071-.147-.07-.147-.068-.149-.066-.148-.065-.155-.066-.145-.06-.15-.06-.151-.06-.152-.057-.152-.056-.153-.054-.152-.053-.154-.052-.154-.05-.154-.047-.155-.047-.154-.045-.156-.044-.156-.042-.156-.04-.156-.04-.157-.037-.156-.036-.158-.034-.157-.033-.158-.03-.157-.03-.159-.028-.157-.027-.16-.025-.158-.023-.158-.022-.16-.02-.158-.018-.159-.017-.159-.016-.159-.014-.16-.012-.158-.01-.16-.01-.158-.007-.16-.006-.158-.005-.16-.003-.158-.001h-.191l.05 4.232h.206l.116.002.117.003.116.004.116.005.117.007.116.007.117.009.116.01.117.01.116.013.116.014.117.014.116.016.116.017.116.017.116.02.116.02.116.021.116.023.115.024.116.025.115.026.115.027.115.029.115.03.114.03.114.032.114.033.114.034.114.036.113.036.113.038.113.039.112.04.112.04.111.043.112.043.11.045.111.045.11.047.11.048.11.05.109.05.108.05.108.053.108.053.107.055.107.056.106.056.106.058.105.059.104.06.105.061.103.062.103.063.102.065.102.065.102.067.1.067.1.069.1.07.099.07.098.071.097.073.097.074.096.074.095.076.095.077.094.078.093.078.093.08.091.08.091.082.09.083.09.083.089.085.088.085.087.086.086.088.085.088.085.089.083.09.083.09.082.092.081.093.08.093.08.095.078.095.077.096.077.097.075.098.075.098.074.1.072.1.072.1.07.102.07.103.069.103.068.104.066.105.066.106.064.106.064.107.062.107.062.109.06.109.06.11.058.11.057.11.056.113.055.112.053.113.053.113.051.114.05.115.05.116.048.115.047.117.046.117.044.117.044.119.042.118.041.12.04.119.038.12.038.12.036.121.035.122.034.122.032.122.032.123.03.123.028.123.028.124.026.124.025.125.024.125.022.125.021.126.02.125.019.127.017.126.017.127.014.127.014.127.012.127.01.128.01.127.009.128.007.128.005.129.005.128.002.129.002.129v.258l-.003.128-.003.13-.005.128-.007.13-.007.129-.01.13-.01.128-.011.13-.013.129-.015.129-.015.129-.017.129-.019.129-.02.129-.02.128-.023.13-.024.128-.025.128-.026.128-.028.128-.029.128-.03.128-.032.127-.033.128-.035.127-.035.126-.038.127-.038.126-.04.126-.04.126-.043.125-.044.125-.045.125-.046.124-.048.124-.049.123-.05.123-.052.123-.053.122-.054.122-.055.122-.057.12-.058.12-.06.12-.06.12-.062.12-.063.118-.065.118-.065.117-.067.117-.068.116-.07.116-.07.114-.072.115-.073.114-.075.113-.075.112-.077.112-.078.111-.08.11-.08.11-.08.11-.084.108-.084.107-.085.107-.086.106-.087.105-.089.104-.09.104-.09.103-.092.102-.093.101-.094.1-.095.1-.096.098-.098.098-.098.097-.1.096-.1.095-.102.094-.102.093-.104.092-.105.091-.106.09-.106.09-.108.088-.108.088-.11.086-.11.085-.112.084-.113.083-.113.083-.115.08-.115.08-.116.08-.117.077-.118.077-.119.076-.12.074-.12.074-.121.072-.122.07-.123.07-.124.07-.124.067-.126.067-.126.065-.127.064-.127.063-.128.061-.13.06-.13.06-.13.058-.13.056-.133.056-.132.054-.133.053-.134.051-.134.05-.135.05-.136.047-.136.047-.136.045-.138.044-.137.042-.139.041-.138.04-.14.039-.14.037-.14.035-.14.035-.142.033-.141.032-.142.03-.143.029-.143.027-.143.027-.143.025-.144.023-.144.022-.145.02-.145.02-.145.017-.145.017-.146.014-.146.014-.146.012-.146.01-.147.01-.147.008-.147.006-.147.005-.147.003-.148.002h-.295l-.147-.002-.148-.004-.148-.006-.148-.006-.148-.008-.147-.01-.148-.011-.148-.013-.148-.014-.148-.015-.147-.017-.148-.019-.147-.02-.148-.021-.147-.023-.147-.024-.147-.026-.147-.027-.146-.029-.147-.03-.146-.031-.146-.033-.146-.035-.145-.036-.145-.037-.145-.04-.145-.04-.144-.041-.144-.043-.143-.045-.144-.046-.142-.048-.143-.049-.142-.05-.141-.052-.141-.053-.14-.055-.141-.056-.14-.057-.139-.06-.138-.06-.139-.061-.137-.063-.137-.065-.137-.066-.135-.067-.136-.069-.134-.07-.134-.07-.133-.074-.133-.074-.132-.075-.131-.077-.13-.078-.13-.08-.13-.08-.128-.082-.128-.084-.126-.085-.126-.086-.125-.087-.125-.088-.123-.09-.123-.091-.122-.093-.12-.093-.12-.095-.12-.097-.118-.097-.117-.099-.117-.1-.115-.1-.115-.103-.113-.103-.112-.105-.112-.105-.11-.107-.11-.108-.108-.11-.107-.11-.107-.111-.105-.113-.104-.113-.103-.115-.102-.116-.1-.117-.1-.118-.098-.119-.098-.12-.096-.12-.094-.123-.094-.123-.092-.124-.092-.125-.09-.126-.088-.127-.088-.128-.086-.129-.085-.13-.084-.13-.082-.132-.081-.133-.08-.133-.079-.134-.077-.135-.076-.136-.074-.137-.073-.137-.072-.139-.07-.14-.069-.139-.067-.14-.067-.142-.064-.142-.064-.143-.061-.144-.06-.144-.06-.145-.057-.146-.056-.146-.055-.147-.053-.147-.052-.149-.05-.148-.048-.15-.047-.15-.046-.15-.044-.15-.043-.152-.04-.152-.04-.153-.038-.153-.036-.153-.035-.154-.033-.154-.032-.155-.03-.155-.029-.156-.027-.155-.025-.157-.024-.156-.022-.157-.02-.157-.02-.158-.017-.158-.016-.158-.014-.158-.013-.158-.01-.16-.01-.158-.007-.16-.006-.158-.005-.16-.003-.16v-.319l.002-.16.004-.16.005-.16.007-.16.009-.16.01-.16.012-.16.014-.16.015-.16.017-.16.02-.16.02-.159.021-.16.024-.16.025-.158.027-.16.029-.159.03-.158.032-.16.033-.157.035-.159.037-.158.039-.157.04-.157.041-.157.044-.157.045-.157.046-.155.049-.156.05-.155.051-.155.053-.155.055-.154.056-.153.058-.153.06-.153.06-.152.064-.151.064-.151.066-.151.068-.15.069-.15.07-.148.073-.148.073-.148.076-.147.077-.146.078-.145.08-.145.082-.144.083-.144.084-.142.086-.142.088-.141.089-.14.09-.14.093-.14.093-.137.095-.137.097-.136.097-.136.1-.134.1-.134.103-.132.103-.132.106-.13.106-.13.108-.13.109-.127.11-.127.113-.126.113-.125.114-.123.117-.123.117-.122.118-.12.12-.12.122-.118.122-.117.124-.116.125-.115.126-.114.128-.112.128-.112.13-.11.131-.109.133-.108.133-.106.135-.105.136-.104.137-.103.138-.101.14-.1.14-.1.14-.097.143-.096.144-.094.144-.094.146-.092.147-.09.148-.09.148-.087.15-.087.15-.085.152-.083.152-.082.154-.081.154-.08.155-.077.156-.076.157-.075.158-.073.159-.072.16-.07.16-.069.16-.067.163-.066.162-.064.164-.062.164-.061.165-.06.165-.057.166-.056.167-.055.167-.053.169-.051.168-.05.17-.048.17-.046.17-.045.171-.043.172-.042.172-.04.172-.038.173-.036.174-.035.174-.033.174-.031.175-.03.175-.028.176-.026.176-.025.176-.023zm.074 6.276-.05-4.278-.145.02-.155.024-.156.025-.154.026-.155.028-.154.03-.153.03-.153.032-.153.034-.152.035-.152.037-.152.038-.15.04-.146.04-.154.043-.15.044-.148.046-.148.046-.148.049-.147.05-.146.05-.146.053-.145.053-.144.056-.144.056-.143.058-.142.06-.142.06-.14.062-.14.064-.14.064-.14.067-.137.067-.137.069-.136.07-.136.07-.134.073-.134.074-.133.075-.132.076-.132.078-.13.079-.13.08-.128.08-.128.083-.126.084-.126.085-.125.085-.124.088-.122.088-.122.09-.12.09-.12.091-.12.093-.117.094-.117.095-.115.096-.115.097-.113.098-.113.1-.111.1-.11.101-.11.102-.107.104-.107.104-.106.105-.104.106-.104.107-.102.108-.1.11-.1.11-.1.11-.097.112-.095.112-.096.114-.093.114-.093.115-.09.116-.09.117-.09.117-.087.119-.086.119-.085.12-.084.12-.082.121-.08.122-.08.123-.079.123-.077.125-.075.125-.075.125-.073.126-.072.127-.07.127-.069.128-.068.129-.066.128-.064.13-.064.13-.062.13-.06.132-.06.132-.058.132-.056.133-.056.133-.053.133-.053.134-.05.135-.05.134-.048.136-.047.135-.045.136-.044.136-.042.137-.04.137-.04.137-.038.137-.037.138-.035.138-.034.138-.032.139-.03.138-.03.14-.028.138-.027.14-.025.139-.023.14-.022.14-.021.139-.02.14-.017.14-.016.14-.015.14-.014.14-.012.14-.01.14-.01.14-.007.14-.006.14-.005.14-.003.14-.002.14v.28l.003.14.004.14.005.138.007.14.008.139.01.138.01.14.013.137.013.139.016.138.016.137.018.138.02.137.02.137.023.136.023.136.025.137.026.135.028.135.03.135.03.134.031.134.033.134.035.133.036.133.037.132.038.132.04.131.041.13.043.131.043.13.045.13.047.128.047.128.05.128.05.127.05.126.053.126.054.125.056.125.056.124.058.123.059.123.06.122.06.121.063.12.064.12.065.12.066.118.067.118.068.117.07.116.07.115.072.115.073.114.074.113.075.112.076.111.078.11.078.11.08.11.08.107.081.107.083.107.083.105.085.104.085.104.087.102.088.102.088.1.09.1.09.1.091.097.093.097.093.096.094.095.095.094.096.093.097.091.098.091.098.09.1.089.1.087.1.087.103.086.102.084.104.084.104.082.105.081.105.08.107.08.107.077.108.077.108.076.11.075.11.073.11.072.112.072.111.07.113.069.113.067.114.067.114.065.115.064.116.063.116.062.116.06.117.06.118.059.118.057.119.055.119.055.12.053.12.053.12.05.12.05.122.049.122.047.122.046.122.045.123.044.123.042.123.041.124.04.124.038.125.038.125.036.124.035.126.033.125.033.126.03.126.03.126.03.126.026.126.026.127.025.127.024.127.022.127.02.127.02.127.019.127.017.128.016.127.015.127.013.128.012.127.011.128.01.128.008.127.007.127.006.128.004.127.004.127.002h.255l.127-.002.127-.003.126-.004.127-.005.126-.007.126-.008.126-.01.126-.01.126-.011.125-.013.125-.014.125-.015.125-.017.124-.017.124-.02.124-.02.123-.02.124-.023.122-.024.123-.025.122-.026.122-.027.121-.029.12-.03.121-.03.12-.032.12-.033.12-.034.118-.035.119-.037.117-.037.118-.04.116-.039.117-.041.116-.042.115-.043.115-.044.114-.046.113-.046.113-.048.113-.048.112-.05.11-.05.112-.053.11-.052.109-.054.109-.055.108-.056.107-.057.107-.058.106-.059.105-.06.105-.06.104-.062.103-.063.102-.064.102-.065.1-.065.1-.067.1-.067.099-.069.098-.069.097-.07.096-.071.095-.072.095-.073.093-.074.093-.075.093-.075.09-.076.091-.078.09-.078.088-.078.088-.08.086-.08.086-.081.085-.082.084-.083.083-.083.082-.084.082-.085.08-.086.08-.086.078-.087.077-.088.077-.088.075-.09.074-.09.074-.09.072-.09.072-.092.07-.092.07-.093.068-.094.068-.094.066-.095.066-.095.064-.096.063-.096.062-.097.062-.097.06-.098.059-.098.058-.1.057-.099.056-.1.055-.1.053-.1.053-.101.051-.102.05-.102.05-.103.048-.102.048-.104.045-.103.045-.104.044-.104.043-.105.041-.105.041-.105.04-.105.038-.106.037-.106.036-.106.034-.107.034-.107.033-.107.031-.107.03-.108.03-.107.028-.108.027-.108.026-.108.024-.109.024-.108.022-.109.021-.109.02-.108.02-.11.017-.109.017-.109.016-.109.014-.109.013-.11.012-.109.011-.109.01-.11.009-.109.008-.109.006-.11.005-.108.005-.11.003-.109.002-.108v-.218l-.001-.11-.003-.108-.003-.108-.005-.109-.006-.108-.007-.108-.008-.108-.01-.107-.01-.108-.01-.107-.013-.107-.014-.107-.014-.106-.016-.107-.017-.106-.018-.106-.019-.105-.02-.105-.021-.106-.022-.104-.023-.104-.024-.105-.026-.103-.026-.103-.028-.104-.028-.102-.03-.102-.03-.102-.031-.101-.033-.102-.033-.1-.035-.1-.035-.1-.037-.099-.037-.099-.038-.098-.04-.098-.04-.098-.042-.096-.042-.097-.043-.096-.044-.095-.046-.095-.046-.094-.046-.094-.049-.093-.048-.092-.05-.092-.05-.092-.052-.09-.053-.091-.053-.09-.054-.089-.055-.088-.056-.088-.056-.087-.058-.087-.058-.085-.06-.086-.06-.084-.06-.084-.062-.083-.062-.083-.064-.081-.063-.081-.065-.08-.066-.08-.066-.08-.067-.078-.068-.077-.069-.077-.069-.076-.07-.075-.07-.074-.072-.074-.071-.073-.073-.072-.073-.071-.074-.07-.075-.07-.075-.07-.076-.067-.077-.067-.077-.067-.077-.065-.079-.065-.079-.064-.08-.063-.08-.063-.08-.061-.081-.06-.082-.06-.082-.06-.083-.057-.084-.057-.083-.056-.084-.055-.085-.055-.085-.053-.086-.053-.086-.052-.087-.05-.087-.05-.087-.05-.088-.047-.088-.048-.089-.046-.089-.045-.09-.044-.09-.044-.09-.043-.09-.041-.09-.04-.091-.04-.092-.04-.092-.037-.092-.037-.092-.036-.092-.035-.094-.034-.092-.033-.094-.032-.093-.032-.094-.03-.094-.029-.094-.028-.095-.028-.094-.026-.095-.026-.095-.024-.095-.024-.095-.022-.095-.022-.096-.02-.095-.02-.096-.019-.095-.018-.096-.016-.096-.016-.096-.015-.096-.014-.096-.013-.096-.012-.096-.01-.096-.011-.096-.01-.097-.007-.095-.008-.097-.006-.095-.005-.096-.004-.096-.004-.096-.002-.096-.002h-.161l.05 4.18h.084l.055.002.056.002.055.002.055.003.055.004.056.004.055.005.055.005.056.006.055.006.056.007.055.008.056.008.055.009.056.01.055.01.056.01.056.011.055.012.056.012.055.013.055.014.055.014.056.014.055.016.055.016.055.016.055.017.055.018.055.018.054.019.055.02.054.02.054.02.054.021.055.022.053.022.054.023.054.024.053.024.053.025.053.025.053.026.053.026.052.027.052.028.052.028.052.029.052.03.051.03.051.03.051.03.05.032.051.033.05.032.05.034.05.034.049.034.049.035.048.035.049.037.048.036.047.037.048.038.047.038.047.04.046.039.046.04.046.04.045.04.045.042.045.042.044.043.044.043.044.043.043.044.042.045.043.045.041.046.042.046.04.046.041.047.04.048.04.048.04.048.038.05.038.048.038.05.038.05.037.051.036.052.036.051.035.052.035.053.035.053.034.053.033.054.033.054.032.055.032.055.031.056.03.055.031.057.03.056.029.058.028.057.028.058.028.058.026.058.027.06.025.058.025.06.025.06.024.06.023.06.023.061.021.062.022.061.02.062.02.062.02.063.02.062.018.063.017.064.017.063.017.064.015.064.015.064.015.065.013.064.013.066.013.065.011.065.011.066.01.066.01.066.01.066.008.066.008.067.006.067.007.066.005.068.005.067.004.067.004.068.002.067.002.068.002.068v.204l-.002.069-.003.068-.003.068-.003.069-.005.068-.005.069-.006.068-.007.069-.007.069-.008.068-.009.069-.01.069-.01.068-.01.069-.013.069-.012.068-.014.069-.014.068-.014.069-.016.068-.016.069-.017.068-.018.068-.018.069-.02.068-.02.067-.02.068-.021.068-.023.068-.023.067-.023.067-.024.067-.026.068-.025.066-.027.067-.027.067-.028.066-.03.066-.029.066-.03.066-.03.065-.033.065-.032.065-.033.065-.034.065-.035.064-.035.064-.036.063-.037.064-.037.063-.038.063-.04.063-.039.062-.04.062-.041.061-.042.062-.042.06-.043.061-.044.06-.045.06-.045.06-.046.059-.046.059-.047.058-.048.058-.049.057-.049.058-.05.056-.05.056-.051.056-.052.056-.052.055-.054.054-.053.054-.055.054-.055.053-.055.052-.056.052-.057.052-.058.051-.058.05-.058.05-.06.05-.06.05-.06.048-.061.048-.062.047-.062.047-.062.046-.064.046-.064.045-.064.044-.065.044-.065.044-.066.042-.067.043-.067.041-.067.04-.068.041-.069.04-.069.039-.07.038-.07.038-.07.037-.071.036-.072.036-.071.035-.073.034-.073.034-.073.033-.074.032-.074.032-.074.03-.075.03-.075.03-.076.029-.076.028-.077.027-.077.027-.077.026-.078.025-.078.024-.078.024-.078.023-.08.021-.079.022-.08.02-.08.02-.08.02-.08.017-.08.018-.082.017-.081.015-.082.015-.082.015-.082.013-.082.013-.083.012-.082.01-.083.011-.084.01-.083.008-.083.008-.084.007-.084.006-.084.005-.084.005-.085.003-.084.003-.085.002-.085.001h-.169l-.085-.002-.085-.002-.085-.003-.086-.004-.085-.005-.085-.006-.086-.006-.085-.008-.086-.008-.085-.009-.086-.01-.085-.01-.085-.013-.086-.012-.085-.014-.085-.014-.085-.015-.086-.016-.085-.017-.085-.018-.085-.018-.084-.02-.085-.02-.085-.022-.084-.022-.085-.023-.084-.023-.084-.025-.084-.026-.083-.026-.084-.027-.083-.029-.083-.029-.083-.03-.083-.03-.082-.032-.082-.032-.082-.034-.082-.034-.081-.035-.082-.035-.08-.037-.081-.038-.08-.038-.08-.04-.08-.04-.08-.04-.078-.042-.079-.042-.078-.044-.078-.044-.077-.045-.077-.046-.077-.046-.076-.048-.076-.048-.076-.05-.075-.05-.075-.05-.074-.051-.073-.053-.074-.053-.072-.054-.073-.054-.071-.056-.072-.056-.07-.057-.07-.057-.07-.059-.07-.059-.068-.06-.068-.06-.068-.062-.067-.062-.066-.063-.066-.064-.065-.064-.065-.065-.064-.066-.063-.067-.063-.067-.062-.068-.062-.068-.06-.07-.06-.07-.06-.07-.06-.071-.057-.072-.058-.073-.056-.073-.057-.074-.055-.074-.055-.075-.053-.076-.054-.076-.052-.077-.052-.078-.05-.078-.051-.079-.05-.079-.048-.08-.048-.08-.047-.081-.046-.082-.046-.082-.044-.082-.044-.083-.043-.084-.043-.084-.041-.085-.04-.085-.04-.086-.04-.086-.037-.086-.037-.087-.037-.088-.035-.088-.035-.088-.033-.09-.033-.088-.032-.09-.03-.09-.031-.09-.03-.091-.027-.092-.028-.091-.026-.092-.026-.093-.024-.092-.024-.093-.022-.093-.022-.094-.02-.094-.02-.094-.02-.095-.017-.095-.017-.095-.016-.095-.015-.096-.014-.095-.013-.096-.012-.097-.011-.096-.01-.097-.01-.097-.008-.097-.007-.097-.006-.097-.005-.098-.004-.098-.003-.098-.002-.098-.001-.097v-.197l.003-.098.003-.099.004-.098.005-.099.006-.098.007-.099.008-.098.01-.1.01-.098.011-.098.012-.1.014-.098.014-.098.015-.099.017-.098.017-.098.019-.099.02-.098.02-.098.022-.098.022-.098.024-.098.025-.097.025-.098.027-.097.028-.097.029-.097.03-.096.03-.097.032-.096.033-.096.034-.096.035-.096.036-.095.037-.095.039-.095.038-.094.04-.095.042-.093.042-.094.043-.093.044-.093.045-.092.046-.093.047-.091.049-.092.049-.09.05-.091.05-.09.053-.09.053-.09.054-.089.055-.088.056-.088.057-.087.057-.087.06-.087.059-.086.06-.085.062-.085.063-.085.063-.084.065-.083.065-.083.066-.082.068-.081.068-.082.069-.08.07-.08.07-.079.072-.078.072-.078.074-.078.074-.076.075-.076.076-.075.077-.075.077-.074.079-.073.08-.073.08-.071.08-.071.082-.07.082-.07.084-.069.084-.068.085-.067.085-.067.087-.065.087-.065.088-.064.088-.064.09-.062.09-.062.09-.06.092-.06.092-.06.093-.058.094-.057.094-.056.095-.056.096-.055.096-.053.097-.053.097-.052.098-.051.1-.05.099-.05.1-.048.1-.047.101-.046.102-.046.102-.044.103-.044.103-.042.104-.042.104-.04.105-.04.105-.038.106-.038.107-.036.106-.036.107-.034.108-.034.108-.032.109-.031.109-.03.11-.03.109-.028.11-.027.11-.026.111-.025.111-.024.112-.023.112-.021zm1.375 8.038-1.276.305-.075-6.321-.06.014-.09.02-.091.023-.09.023-.09.024-.089.025-.089.026-.088.026-.088.027-.088.028-.087.03-.087.03-.087.03-.086.032-.086.032-.085.033-.085.034-.084.034-.085.036-.083.036-.083.038-.082.037-.082.039-.082.04-.081.04-.08.04-.08.042-.08.042-.08.043-.078.044-.077.045-.078.045-.077.046-.076.047-.075.047-.075.048-.075.049-.074.05-.073.05-.073.05-.072.052-.072.052-.07.053-.07.053-.07.054-.069.055-.068.055-.068.056-.067.056-.066.057-.066.058-.065.058-.064.059-.064.06-.063.06-.062.06-.062.06-.06.062-.06.062-.06.063-.059.063-.058.063-.057.064-.056.065-.056.065-.055.066-.054.065-.054.067-.053.067-.052.067-.051.068-.05.068-.05.069-.05.069-.048.07-.047.069-.047.07-.046.07-.045.071-.044.072-.043.071-.043.072-.042.073-.041.072-.04.073-.04.073-.039.074-.038.074-.037.074-.036.074-.036.075-.034.075-.034.075-.033.075-.032.076-.032.076-.03.076-.03.076-.029.077-.028.076-.027.077-.027.077-.025.078-.025.077-.024.077-.023.078-.022.078-.022.078-.02.078-.02.078-.02.078-.017.078-.018.078-.016.079-.015.078-.015.079-.014.079-.013.078-.013.079-.011.078-.01.079-.01.079-.01.078-.008.079-.007.079-.006.078-.006.079-.005.078-.004.079-.003.078-.003.078-.001.079-.001.078v.156l.002.078.003.078.003.077.004.078.005.077.006.077.006.077.007.077.008.077.009.076.01.077.01.076.01.076.013.075.012.076.014.075.014.075.015.075.015.074.017.075.017.074.018.073.019.074.02.073.02.073.02.073.021.072.023.072.023.072.024.07.024.072.025.07.026.07.026.07.028.07.028.07.028.069.03.068.03.068.03.068.03.067.033.067.032.067.034.066.033.065.035.066.035.064.036.065.036.064.037.063.037.063.038.063.039.062.04.061.04.062.04.06.04.06.042.06.043.06.042.058.043.058.044.058.045.057.044.057.046.056.046.056.046.055.047.054.047.054.048.053.049.053.049.052.049.052.05.052.05.05.05.05.052.05.052.049.052.048.052.048.053.047.053.046.054.046.054.046.054.044.055.044.056.044.055.043.056.042.056.042.057.04.057.041.058.04.057.04.058.038.058.038.059.037.06.037.058.036.06.035.06.035.06.034.06.033.06.033.061.032.061.032.061.03.062.03.062.03.062.03.062.027.062.028.063.027.063.026.062.025.063.025.064.024.063.024.064.023.063.022.064.022.064.02.064.02.064.02.064.02.065.018.064.017.065.017.064.016.065.016.065.015.064.014.065.013.065.013.065.013.065.011.065.011.065.01.065.01.065.009.065.008.065.008.064.006.065.007.065.005.065.005.065.005.064.003.065.003.064.003.065.001.064.002h.129l.064-.001.064-.002.064-.002.063-.002.064-.004.063-.004.064-.004.063-.006.063-.006.062-.006.063-.007.062-.008.063-.008.062-.009.062-.01.061-.01.062-.01.061-.012.061-.012.061-.012.06-.013.06-.014.061-.014.06-.015.06-.015.059-.016.059-.017.059-.017.058-.017.058-.019.059-.018.057-.02.057-.02.058-.02.056-.02.057-.022.056-.022.056-.022.055-.023.055-.024.055-.024.054-.024.055-.026.053-.025.053-.026.054-.026.052-.027.053-.028.051-.028.052-.028.05-.029.052-.03.05-.03.05-.03.05-.03.049-.031.048-.031.049-.032.047-.033.048-.033.047-.033.046-.034.047-.034.045-.034.046-.035.044-.035.045-.036.044-.036.043-.036.043-.037.043-.037.042-.037.042-.038.04-.038.041-.039.04-.038.04-.04.04-.039.038-.04.039-.04.037-.04.038-.041.036-.04.037-.042.036-.042.035-.042.035-.042.034-.042.034-.043.033-.043.033-.043.032-.043.032-.044.03-.044.032-.044.03-.044.03-.045.029-.045.028-.045.028-.045.028-.045.027-.046.026-.046.026-.046.026-.046.025-.046.024-.046.024-.047.023-.047.023-.046.022-.048.022-.047.021-.047.02-.047.02-.048.02-.047.02-.048.018-.048.018-.048.017-.047.017-.049.017-.048.015-.048.015-.048.015-.049.015-.048.013-.048.013-.05.013-.047.012-.049.011-.049.011-.048.01-.048.01-.05.01-.047.009-.05.008-.048.008-.048.008-.049.006-.048.006-.049.006-.048.005-.048.005-.049.004-.048.004-.048.003-.048.003-.049.002-.047.001-.048.001-.048.001-.048v-.095l-.001-.047-.002-.048-.002-.047-.002-.047-.003-.047-.003-.047-.004-.046-.004-.047-.005-.047-.005-.046-.006-.046-.006-.046-.007-.046-.007-.045-.008-.046-.008-.045-.009-.045-.009-.045-.01-.045-.01-.044-.01-.045-.01-.044-.011-.044-.012-.044-.012-.043-.013-.043-.013-.043-.013-.043-.014-.043-.014-.042-.015-.042-.015-.042-.015-.041-.016-.042-.017-.041-.016-.041-.017-.04-.018-.041-.018-.04-.018-.04-.018-.04-.02-.038-.019-.04-.02-.038-.02-.038-.02-.038-.02-.038-.022-.038-.021-.037-.022-.037-.022-.036-.023-.037-.023-.036-.023-.035-.023-.036-.024-.035-.024-.034-.025-.035-.024-.034-.025-.033-.026-.034-.025-.033-.026-.032-.026-.033-.027-.032-.026-.031-.027-.032-.027-.03-.028-.031-.028-.03-.028-.03-.028-.03-.029-.029-.029-.029-.028-.028-.03-.028-.029-.028-.03-.027-.03-.027-.03-.027-.03-.026-.03-.026-.031-.025-.03-.025-.032-.025-.031-.024-.032-.024-.031-.024-.032-.023-.032-.023-.032-.022-.032-.022-.032-.022-.033-.021-.033-.021-.032-.02-.034-.02-.032-.02-.034-.02-.033-.019-.034-.018-.033-.018-.033-.018-.034-.018-.034-.017-.034-.016-.034-.016-.034-.016-.034-.016-.034-.015-.035-.014-.034-.015-.034-.013-.035-.014-.034-.013-.035-.013-.034-.012-.035-.012-.035-.012-.034-.01-.035-.012-.035-.01-.034-.01-.035-.01-.035-.009-.035-.009-.034-.008-.035-.008-.035-.008-.035-.007-.034-.007-.035-.007-.034-.006-.035-.006-.034-.005-.035-.005-.034-.005-.035-.005-.034-.004-.034-.003-.035-.003-.034-.003-.034-.003-.034-.002-.034-.002-.034-.002h-.033l-.034-.002h-.134l-.033.002-.033.001-.033.002-.033.002-.032.002-.033.002-.032.003-.032.004-.033.003-.032.004-.031.004-.032.005-.032.005-.031.005-.031.005-.031.006-.031.006-.031.006-.03.007z" clip-rule="evenodd"/></svg>