<?xml version="1.0" encoding="UTF-8"?>
<svg id="Layer_2" data-name="Layer 2" xmlns="http://www.w3.org/2000/svg" viewBox="0 0 440.94 440.94">
  <defs>
    <style>
      .cls-1, .cls-2 {
        stroke-width: 0px;
      }

      .cls-2 {
        fill: #fff;
      }
    </style>
  </defs>
  <g id="Layer_1-2" data-name="Layer 1">
    <g>
      <rect class="cls-1" width="440.94" height="440.94" rx="125.88" ry="125.88"/>
      <g>
        <path class="cls-2" d="M185,143.77h0c-7.41,4.34-16.93,1.91-21.36-5.44l-6.69-11.1c-4.52-7.49-2.04-17.23,5.51-21.64h0c7.41-4.34,16.93-1.92,21.36,5.44l6.69,11.1c4.52,7.49,2.03,17.23-5.52,21.64Z"/>
        <path class="cls-2" d="M185.39,255.72l-11.21,6.69c-7.51,4.48-17.22,1.96-21.61-5.6h0c-4.31-7.43-1.85-16.95,5.53-21.35l11.21-6.69c7.5-4.47,17.21-1.96,21.6,5.59h0c4.32,7.43,1.86,16.96-5.53,21.36Z"/>
        <path class="cls-2" d="M260.01,237.4l48.1,79.8c2.43,4.03,1.13,9.26-2.9,11.69l-12.28,7.4c-4.03,2.43-9.26,1.13-11.69-2.9l-59.79-99.18-2.49-4.13c-1.18-1.95-3.08-3.35-5.29-3.88l-28.5-6.89-3.46-.83-84.77-20.48c-4.57-1.1-7.38-5.7-6.28-10.27l3.35-13.96c1.1-4.58,5.71-7.4,10.28-6.29l70.22,16.96c7.35,1.78,13.2-6.2,9.3-12.68l-3.61-5.98c-2.45-4.07-1.1-9.35,3-11.75l12.39-7.25c4.02-2.35,9.19-1.04,11.6,2.96l20.65,34.25c2.42,4.02,7.63,5.32,11.66,2.92l90.83-54.19c4.04-2.41,9.27-1.09,11.68,2.95l7.35,12.33c2.41,4.04,1.09,9.27-2.95,11.68l-79.09,47.18-11.55,6.89c-4.05,2.42-5.37,7.67-2.93,11.71l7.19,11.94Z"/>
      </g>
    </g>
  </g>
</svg>